SplineFontDB: 3.0
FontName: AtomicAge
FullName: Atomic Age
FamilyName: Atomic Age
Weight: Book
Copyright: Copyright (c) 2011, Sorkin Type Co (www.sorkintype.com)\nwith Reserved Font Name "Atomic Age".
Version: 1.002
ItalicAngle: 0
UnderlinePosition: -103
UnderlineWidth: 102
Ascent: 1638
Descent: 410
LayerCount: 2
Layer: 0 1 "Back"  1
Layer: 1 1 "Fore"  0
XUID: [1021 631 1661839179 15691746]
FSType: 0
OS2Version: 3
OS2_WeightWidthSlopeOnly: 0
OS2_UseTypoMetrics: 1
CreationTime: 1319119920
ModificationTime: 1323249093
PfmFamily: 17
TTFWeight: 400
TTFWidth: 5
LineGap: 0
VLineGap: 0
Panose: 2 1 6 4 1 2 0 4 0 4
OS2TypoAscent: 362
OS2TypoAOffset: 1
OS2TypoDescent: -150
OS2TypoDOffset: 1
OS2TypoLinegap: 0
OS2WinAscent: 0
OS2WinAOffset: 1
OS2WinDescent: 4
OS2WinDOffset: 1
HheadAscent: 0
HheadAOffset: 1
HheadDescent: -4
HheadDOffset: 1
OS2SubXSize: 1434
OS2SubYSize: 1331
OS2SubXOff: 0
OS2SubYOff: 287
OS2SupXSize: 1434
OS2SupYSize: 1331
OS2SupXOff: 0
OS2SupYOff: 977
OS2StrikeYSize: 130
OS2StrikeYPos: 512
OS2Vendor: 'STC '
OS2CodePages: 20000193.41000000
OS2UnicodeRanges: a00000ef.4000204a.00000000.00000000
Lookup: 258 0 0 "'kern' Horizontal Kerning in Latin lookup 0"  {"'kern' Horizontal Kerning in Latin lookup 0 subtable"  } ['kern' ('latn' <'dflt' > ) ]
DEI: 91125
TtTable: prep
PUSHW_1
 511
SCANCTRL
PUSHB_1
 4
SCANTYPE
EndTTInstrs
ShortTable: maxp 16
  1
  0
  402
  228
  10
  78
  4
  1
  0
  0
  0
  0
  0
  0
  2
  1
EndShort

StartChar: .notdef
Encoding: 65536 -1 0
Width: 2107
Flags: HW
LayerCount: 2
Fore
SplineSet
0 1636 m 1,0,-1
 1715 1636 l 1,1,-1
 1715 -190 l 1,2,-1
 0 -190 l 1,3,-1
 0 1636 l 1,0,-1
501 160 m 1,4,-1
 855 519 l 1,5,-1
 1211 160 l 1,6,-1
 1400 353 l 1,7,-1
 1041 707 l 1,8,-1
 1398 1058 l 1,9,-1
 1211 1248 l 1,10,-1
 857 892 l 1,11,-1
 505 1249 l 1,12,-1
 317 1057 l 1,13,-1
 672 705 l 1,14,-1
 315 351 l 1,15,-1
 501 160 l 1,4,-1
EndSplineSet
EndChar

StartChar: d
Encoding: 100 100 4
Width: 1365
Flags: HW
LayerCount: 2
Fore
SplineSet
237 793 m 2,0,1
 237 897.412 237 897.412 292.5 972.5 c 0,2,3
 347.565 1047 347.565 1047 427 1047 c 2,4,-1
 889 1047 l 1,5,-1
 889 1590 l 1,6,-1
 1127 1590 l 1,7,-1
 1127 171 l 1,8,-1
 1317 171 l 1,9,10
 1308.8 99.2269 1308.8 99.2269 1258.5 50 c 0,11,12
 1207.41 4.14859e-05 1207.41 4.14859e-05 1142 0 c 2,13,-1
 889 0 l 1,14,-1
 889 109 l 1,15,16
 862 58 862 58 820 29 c 128,-1,17
 778 0 778 0 731 0 c 2,18,-1
 427 0 l 2,19,20
 347.565 0 347.565 0 292.5 74.5 c 0,21,22
 237 149.588 237 149.588 237 254 c 2,23,-1
 237 793 l 2,0,1
889 171 m 1,24,-1
 889 876 l 1,25,-1
 475 876 l 1,26,-1
 475 171 l 1,27,-1
 889 171 l 1,24,-1
EndSplineSet
EndChar

StartChar: f
Encoding: 102 102 5
Width: 852
Flags: HW
LayerCount: 2
Fore
SplineSet
531 -269 m 2,0,1
 531 -374.855 531 -374.855 471.5 -449.5 c 0,2,3
 411.319 -525 411.319 -525 329 -525 c 2,4,-1
 293 -525 l 1,5,-1
 293 894 l 1,6,-1
 213 894 l 1,7,-1
 213 1048 l 1,8,-1
 293 1048 l 1,9,-1
 293 1336 l 2,10,11
 293 1441.41 293 1441.41 348.5 1516.5 c 0,12,13
 403.565 1591 403.565 1591 483 1591 c 2,14,-1
 861 1591 l 1,15,-1
 861 1417 l 1,16,-1
 531 1417 l 1,17,-1
 531 1048 l 1,18,-1
 777 1048 l 1,19,-1
 777 894 l 1,20,-1
 531 894 l 1,21,-1
 531 -269 l 2,0,1
EndSplineSet
EndChar

StartChar: b
Encoding: 98 98 6
Width: 1365
Flags: HW
LayerCount: 2
Fore
SplineSet
636 0 m 2,0,1
 538.019 0 538.019 0 475 113 c 1,2,-1
 475 0 l 1,3,-1
 237 0 l 1,4,-1
 237 1591 l 1,5,-1
 475 1591 l 1,6,-1
 475 931 l 1,7,8
 535.148 1047 535.148 1047 636 1047 c 2,9,-1
 938 1047 l 2,10,11
 1014.86 1047 1014.86 1047 1071 972.5 c 128,-1,12
 1127 898.192 1127 898.192 1127 793 c 2,13,-1
 1127 171 l 1,14,-1
 1338 171 l 1,15,16
 1329.8 99.2269 1329.8 99.2269 1279.5 50 c 0,17,18
 1228.41 4.14859e-05 1228.41 4.14859e-05 1163 0 c 2,19,-1
 636 0 l 2,0,1
889 171 m 1,20,-1
 889 876 l 1,21,-1
 475 876 l 1,22,-1
 475 171 l 1,23,-1
 889 171 l 1,20,-1
EndSplineSet
EndChar

StartChar: g
Encoding: 103 103 7
Width: 1365
Flags: HW
LayerCount: 2
Fore
SplineSet
888 111 m 1,0,1
 826.096 -4.23637e-05 826.096 -4.23637e-05 729 0 c 2,2,-1
 427 0 l 2,3,4
 347.565 0 347.565 0 292.5 74.5 c 0,5,6
 237 149.588 237 149.588 237 254 c 2,7,-1
 237 793 l 2,8,9
 237 897.412 237 897.412 292.5 972.5 c 0,10,11
 347.565 1047 347.565 1047 427 1047 c 2,12,-1
 1127 1047 l 1,13,-1
 1127 171 l 1,14,-1
 1338 171 l 1,15,16
 1329.8 99.2269 1329.8 99.2269 1279.5 50 c 0,17,18
 1228.41 4.14859e-05 1228.41 4.14859e-05 1163 0 c 2,19,-1
 1127 0 l 1,20,-1
 1127 -285 l 2,21,22
 1127 -391.192 1127 -391.192 1071 -465.5 c 0,23,24
 1014.1 -541 1014.1 -541 938 -541 c 2,25,-1
 453 -541 l 1,26,-1
 453 -368 l 1,27,-1
 888 -368 l 1,28,-1
 888 111 l 1,0,1
888 171 m 1,29,-1
 888 876 l 1,30,-1
 475 876 l 1,31,-1
 475 171 l 1,32,-1
 888 171 l 1,29,-1
EndSplineSet
EndChar

StartChar: h
Encoding: 104 104 8
Width: 1365
Flags: HW
LayerCount: 2
Fore
SplineSet
476 933 m 1,0,1
 535.111 1047 535.111 1047 636 1047 c 2,2,-1
 937 1047 l 2,3,4
 1014.86 1047 1014.86 1047 1071 972.5 c 128,-1,5
 1127 898.192 1127 898.192 1127 793 c 2,6,-1
 1127 171 l 1,7,-1
 1341 171 l 1,8,9
 1332.87 99.871 1332.87 99.871 1283 50 c 128,-1,10
 1233 0 1233 0 1168 0 c 2,11,-1
 1079 0 l 2,12,13
 1000.14 0 1000.14 0 944 74.5 c 128,-1,14
 888 148.808 888 148.808 888 254 c 2,15,-1
 888 876 l 1,16,-1
 476 876 l 1,17,-1
 476 0 l 1,18,-1
 237 0 l 1,19,-1
 237 1590 l 1,20,-1
 476 1590 l 1,21,-1
 476 933 l 1,0,1
EndSplineSet
EndChar

StartChar: n
Encoding: 110 110 9
Width: 1401
Flags: HW
LayerCount: 2
Fore
SplineSet
273 1047 m 1,0,-1
 512 1047 l 1,1,-1
 512 651 l 1,2,-1
 821 971 l 1,3,4
 887.595 1048 887.595 1048 970 1048 c 0,5,6
 1051.54 1048 1051.54 1048 1112 973.5 c 0,7,8
 1173 898.339 1173 898.339 1173 794 c 2,9,-1
 1173 172 l 1,10,-1
 1375 172 l 1,11,12
 1367.12 101.125 1367.12 101.125 1316.5 50.5 c 128,-1,13
 1266 0 1266 0 1200 0 c 2,14,-1
 1122 0 l 2,15,16
 1042.57 0 1042.57 0 987.5 74.5 c 0,17,18
 932 149.588 932 149.588 932 254 c 2,19,-1
 932 862 l 1,20,-1
 512 430 l 1,21,-1
 512 0 l 1,22,-1
 273 0 l 1,23,-1
 273 1047 l 1,0,-1
EndSplineSet
EndChar

StartChar: i
Encoding: 105 105 10
Width: 682
Flags: HW
LayerCount: 2
Fore
SplineSet
333.5 1289 m 0,0,1
 299 1289 299 1289 268.5 1302 c 128,-1,2
 238 1315 238 1315 215 1338 c 0,3,4
 166 1387 166 1387 166 1457 c 256,5,6
 166 1527 166 1527 215 1576 c 0,7,8
 265 1626 265 1626 334 1626 c 256,9,10
 403 1626 403 1626 453 1576 c 128,-1,11
 503 1526 503 1526 503 1457 c 256,12,13
 503 1388 503 1388 453 1338 c 0,14,15
 404 1289 404 1289 333.5 1289 c 0,0,1
217 1047 m 1,16,-1
 456 1047 l 1,17,-1
 456 171 l 1,18,-1
 670 171 l 1,19,20
 663.944 100.35 663.944 100.35 612.5 50 c 0,21,22
 561.413 -1.82507e-05 561.413 -1.82507e-05 496 0 c 2,23,-1
 408 0 l 2,24,25
 329.145 0 329.145 0 273 74.5 c 128,-1,26
 217 148.808 217 148.808 217 254 c 2,27,-1
 217 1047 l 1,16,-1
EndSplineSet
EndChar

StartChar: k
Encoding: 107 107 11
Width: 1365
Flags: HW
LayerCount: 2
Fore
SplineSet
237 1591 m 1,0,-1
 476 1591 l 1,1,-1
 476 625 l 1,2,-1
 671 625 l 1,3,-1
 898 1047 l 1,4,-1
 1149 1047 l 1,5,-1
 908 628 l 1,6,7
 990.197 613.615 990.197 613.615 1043.5 541.5 c 0,8,9
 1098 467.765 1098 467.765 1098 371 c 2,10,-1
 1098 171 l 1,11,-1
 1328 171 l 1,12,13
 1319.8 99.2269 1319.8 99.2269 1269.5 50 c 0,14,15
 1218.41 4.14859e-05 1218.41 4.14859e-05 1153 0 c 2,16,-1
 1050 0 l 2,17,18
 972.145 0 972.145 0 916 74.5 c 128,-1,19
 860 148.808 860 148.808 860 254 c 2,20,-1
 860 457 l 1,21,-1
 476 457 l 1,22,-1
 476 0 l 1,23,-1
 237 0 l 1,24,-1
 237 1591 l 1,0,-1
EndSplineSet
EndChar

StartChar: l
Encoding: 108 108 12
Width: 682
Flags: HW
LayerCount: 2
Fore
SplineSet
217 1591 m 1,0,-1
 456 1591 l 1,1,-1
 456 171 l 1,2,-1
 669 171 l 1,3,4
 650.762 49.4159 650.762 49.4159 553.5 11.5 c 0,5,6
 524 0 524 0 492 0 c 2,7,-1
 408 0 l 2,8,9
 329.145 0 329.145 0 273 74.5 c 128,-1,10
 217 148.808 217 148.808 217 254 c 2,11,-1
 217 1591 l 1,0,-1
EndSplineSet
EndChar

StartChar: p
Encoding: 112 112 13
Width: 1365
Flags: HW
LayerCount: 2
Fore
SplineSet
636 0 m 2,0,1
 538.686 0 538.686 0 475 112 c 1,2,-1
 476 -285 l 2,3,4
 476 -391.765 476 -391.765 421.5 -465.5 c 0,5,6
 365.696 -541 365.696 -541 289 -541 c 2,7,-1
 237 -541 l 1,8,-1
 237 1047 l 1,9,-1
 938 1047 l 2,10,11
 1014.86 1047 1014.86 1047 1071 972.5 c 128,-1,12
 1127 898.192 1127 898.192 1127 793 c 2,13,-1
 1127 171 l 1,14,-1
 1338 171 l 1,15,16
 1329.8 99.2269 1329.8 99.2269 1279.5 50 c 0,17,18
 1228.41 4.14859e-05 1228.41 4.14859e-05 1163 0 c 2,19,-1
 636 0 l 2,0,1
888 172 m 1,20,-1
 888 876 l 1,21,-1
 475 876 l 1,22,-1
 475 172 l 1,23,-1
 888 172 l 1,20,-1
EndSplineSet
EndChar

StartChar: q
Encoding: 113 113 14
Width: 1365
Flags: HW
LayerCount: 2
Fore
SplineSet
237 793 m 2,0,1
 237 897.412 237 897.412 292.5 972.5 c 0,2,3
 347.565 1047 347.565 1047 427 1047 c 2,4,-1
 1127 1047 l 1,5,-1
 1127 171 l 1,6,-1
 1338 171 l 1,7,8
 1329.8 99.2269 1329.8 99.2269 1279.5 50 c 0,9,10
 1228.41 4.14859e-05 1228.41 4.14859e-05 1163 0 c 2,11,-1
 1127 0 l 1,12,-1
 1127 -541 l 1,13,-1
 888 -541 l 1,14,-1
 888 120 l 1,15,16
 843.556 40 843.556 40 754 9 c 0,17,18
 728 0 728 0 704 0 c 2,19,-1
 427 0 l 2,20,21
 347.565 0 347.565 0 292.5 74.5 c 0,22,23
 237 149.588 237 149.588 237 254 c 2,24,-1
 237 793 l 2,0,1
888 171 m 1,25,-1
 888 876 l 1,26,-1
 475 876 l 1,27,-1
 475 171 l 1,28,-1
 888 171 l 1,25,-1
EndSplineSet
EndChar

StartChar: t
Encoding: 116 116 15
Width: 855
Flags: HW
LayerCount: 2
Fore
SplineSet
267 893 m 1,0,-1
 187 893 l 1,1,-1
 187 1047 l 1,2,-1
 267 1047 l 1,3,-1
 267 1325 l 1,4,-1
 506 1444 l 1,5,-1
 506 1047 l 1,6,-1
 755 1047 l 1,7,-1
 755 893 l 1,8,-1
 506 893 l 1,9,-1
 506 171 l 1,10,-1
 854 171 l 1,11,12
 845.727 98.6138 845.727 98.6138 795 50 c 0,13,14
 742.826 2.34479e-05 742.826 2.34479e-05 678 0 c 2,15,-1
 457 0 l 2,16,17
 377.565 0 377.565 0 322.5 74.5 c 0,18,19
 267 149.588 267 149.588 267 254 c 2,20,-1
 267 893 l 1,0,-1
EndSplineSet
EndChar

StartChar: y
Encoding: 121 121 16
Width: 1365
Flags: HW
LayerCount: 2
Fore
SplineSet
237 1047 m 1,0,-1
 476 1047 l 1,1,-1
 476 171 l 1,2,-1
 888 171 l 1,3,-1
 888 1047 l 1,4,-1
 1127 1047 l 1,5,-1
 1127 171 l 1,6,-1
 1329 171 l 1,7,8
 1320.8 99.2269 1320.8 99.2269 1270.5 50 c 0,9,10
 1219.41 4.14859e-05 1219.41 4.14859e-05 1154 0 c 2,11,-1
 1127 0 l 1,12,-1
 1127 -285 l 2,13,14
 1127 -391.192 1127 -391.192 1071 -465.5 c 0,15,16
 1014.1 -541 1014.1 -541 937 -541 c 2,17,-1
 453 -541 l 1,18,-1
 453 -368 l 1,19,-1
 888 -368 l 1,20,-1
 888 107 l 1,21,22
 861 57 861 57 818.5 28.5 c 128,-1,23
 776 0 776 0 728 0 c 2,24,-1
 427 0 l 2,25,26
 347.565 0 347.565 0 292.5 74.5 c 0,27,28
 237 149.588 237 149.588 237 254 c 2,29,-1
 237 1047 l 1,0,-1
EndSplineSet
EndChar

StartChar: u
Encoding: 117 117 17
Width: 1365
Flags: HW
LayerCount: 2
Fore
SplineSet
889 107 m 1,0,1
 826.94 5.16061e-06 826.94 5.16061e-06 732 0 c 2,2,-1
 427 0 l 2,3,4
 347.565 0 347.565 0 292.5 74.5 c 0,5,6
 237 149.588 237 149.588 237 254 c 2,7,-1
 237 1047 l 1,8,-1
 476 1047 l 1,9,-1
 476 171 l 1,10,-1
 889 171 l 1,11,-1
 889 1047 l 1,12,-1
 1127 1047 l 1,13,-1
 1127 171 l 1,14,-1
 1330 171 l 1,15,16
 1321.8 99.2269 1321.8 99.2269 1271.5 50 c 0,17,18
 1220.41 4.14859e-05 1220.41 4.14859e-05 1155 0 c 2,19,-1
 889 0 l 1,20,-1
 889 107 l 1,0,1
EndSplineSet
EndChar

StartChar: v
Encoding: 118 118 18
Width: 1193
Flags: HW
LayerCount: 2
Fore
SplineSet
81 1047 m 1,0,-1
 320 1047 l 1,1,-1
 597 167 l 1,2,-1
 873 1047 l 1,3,-1
 1112 1047 l 1,4,-1
 759 0 l 1,5,-1
 433 0 l 1,6,-1
 81 1047 l 1,0,-1
EndSplineSet
EndChar

StartChar: x
Encoding: 120 120 19
Width: 1193
Flags: HW
LayerCount: 2
Fore
SplineSet
487 551 m 1,0,-1
 113 1047 l 1,1,-1
 347 1047 l 1,2,-1
 612 713 l 1,3,-1
 871 1047 l 1,4,-1
 1105 1047 l 1,5,-1
 735 558 l 1,6,-1
 1043 171 l 1,7,-1
 1185 171 l 1,8,9
 1176.95 100.521 1176.95 100.521 1128.5 51 c 0,10,11
 1078.61 -5.58498e-05 1078.61 -5.58498e-05 1015 0 c 2,12,-1
 904 0 l 1,13,-1
 609 390 l 1,14,-1
 314 0 l 1,15,-1
 60 0 l 1,16,-1
 487 551 l 1,0,-1
EndSplineSet
EndChar

StartChar: z
Encoding: 122 122 20
Width: 1193
Flags: HW
LayerCount: 2
Fore
SplineSet
205 186 m 1,0,-1
 790 876 l 1,1,-1
 230 876 l 1,2,-1
 230 1047 l 1,3,-1
 1045 1047 l 1,4,-1
 1045 863 l 1,5,-1
 463 171 l 1,6,-1
 1108 171 l 1,7,8
 1099.8 99.2269 1099.8 99.2269 1049.5 50 c 0,9,10
 998.413 -1.82507e-05 998.413 -1.82507e-05 933 0 c 2,11,-1
 205 0 l 1,12,-1
 205 186 l 1,0,-1
EndSplineSet
EndChar

StartChar: w
Encoding: 119 119 21
Width: 1880
Flags: HW
LayerCount: 2
Fore
SplineSet
237 1047 m 1,0,-1
 476 1047 l 1,1,-1
 476 172 l 1,2,-1
 836 172 l 1,3,-1
 836 1047 l 1,4,-1
 1076 1047 l 1,5,-1
 1076 172 l 1,6,-1
 1436 172 l 1,7,-1
 1436 1047 l 1,8,-1
 1879 1047 l 1,9,10
 1870.8 975.227 1870.8 975.227 1820.5 926 c 0,11,12
 1769.41 876 1769.41 876 1704 876 c 2,13,-1
 1675 876 l 1,14,-1
 1675 254 l 2,15,16
 1675 148.808 1675 148.808 1619 74.5 c 128,-1,17
 1562.86 3.8249e-05 1562.86 3.8249e-05 1484 0 c 2,18,-1
 1119 0 l 2,19,20
 1070 0 1070 0 1026 33.5 c 128,-1,21
 982 67 982 67 953 124 c 1,22,23
 924 67 924 67 880 33.5 c 128,-1,24
 836 0 836 0 787 0 c 2,25,-1
 428 0 l 2,26,27
 349.145 0 349.145 0 293 74.5 c 128,-1,28
 237 148.808 237 148.808 237 254 c 2,29,-1
 237 1047 l 1,0,-1
EndSplineSet
EndChar

StartChar: j
Encoding: 106 106 22
Width: 682
Flags: HW
LayerCount: 2
Fore
SplineSet
333.5 1289 m 0,0,1
 299 1289 299 1289 268.5 1302 c 128,-1,2
 238 1315 238 1315 215 1338 c 0,3,4
 166 1387 166 1387 166 1457 c 256,5,6
 166 1527 166 1527 215 1576 c 0,7,8
 265 1626 265 1626 334 1626 c 256,9,10
 403 1626 403 1626 453 1576 c 128,-1,11
 503 1526 503 1526 503 1457 c 256,12,13
 503 1388 503 1388 453 1338 c 0,14,15
 404 1289 404 1289 333.5 1289 c 0,0,1
217 -368 m 1,16,-1
 217 1047 l 1,17,-1
 456 1047 l 1,18,-1
 456 -285 l 2,19,20
 456 -390.412 456 -390.412 400.5 -465.5 c 0,21,22
 344.696 -541 344.696 -541 267 -541 c 2,23,-1
 71 -541 l 1,24,-1
 71 -368 l 1,25,-1
 217 -368 l 1,16,-1
EndSplineSet
EndChar

StartChar: m
Encoding: 109 109 23
Width: 1907
Flags: HW
LayerCount: 2
Fore
SplineSet
273 1047 m 1,0,-1
 512 1047 l 1,1,-1
 512 645 l 1,2,-1
 755 971 l 1,3,4
 819.842 1048 819.842 1048 906 1048 c 0,5,6
 987.116 1048 987.116 1048 1046.5 973.5 c 0,7,8
 1107 897.6 1107 897.6 1107 794 c 2,9,-1
 1107 681 l 1,10,-1
 1317 971 l 1,11,12
 1383.59 1048 1383.59 1048 1478 1048 c 0,13,14
 1559.12 1048 1559.12 1048 1618.5 973.5 c 0,15,16
 1679 897.6 1679 897.6 1679 794 c 2,17,-1
 1679 171 l 1,18,-1
 1857 171 l 1,19,20
 1848.8 99.2269 1848.8 99.2269 1798.5 50 c 0,21,22
 1747.41 4.14859e-05 1747.41 4.14859e-05 1682 0 c 2,23,-1
 1628 0 l 2,24,25
 1548.99 0 1548.99 0 1495 74.5 c 128,-1,26
 1441 149.02 1441 149.02 1441 254 c 2,27,-1
 1441 855 l 1,28,-1
 1107 450 l 1,29,-1
 1107 0 l 1,30,-1
 868 0 l 1,31,-1
 868 855 l 1,32,-1
 512 415 l 1,33,-1
 512 0 l 1,34,-1
 273 0 l 1,35,-1
 273 1047 l 1,0,-1
EndSplineSet
EndChar

StartChar: r
Encoding: 114 114 24
Width: 1365
Flags: HW
LayerCount: 2
Fore
SplineSet
237 1157 m 1,0,-1
 477 1157 l 1,1,-1
 477 1047 l 1,2,-1
 1231 1047 l 1,3,4
 1222.87 975.871 1222.87 975.871 1173 926 c 128,-1,5
 1123 876 1123 876 1060 876 c 1,6,-1
 1060 171 l 1,7,-1
 1292 171 l 1,8,9
 1283.73 98.6138 1283.73 98.6138 1233 50 c 0,10,11
 1180.83 -3.50441e-05 1180.83 -3.50441e-05 1112 0 c 2,12,-1
 1012 0 l 2,13,14
 933.145 0 933.145 0 877 74.5 c 128,-1,15
 821 148.808 821 148.808 821 254 c 2,16,-1
 821 876 l 1,17,-1
 475 876 l 1,18,-1
 475 0 l 1,19,-1
 237 0 l 1,20,-1
 237 1157 l 1,0,-1
EndSplineSet
EndChar

StartChar: s
Encoding: 115 115 25
Width: 1365
Flags: HW
LayerCount: 2
Fore
SplineSet
780 1107 m 1,0,1
 759.5 1056.89 759.5 1056.89 759.5 1021.44 c 128,-1,2
 759.5 986 759.5 986 773.25 958.5 c 128,-1,3
 787 931 787 931 812.5 903.5 c 128,-1,4
 838 876 838 876 871.5 849 c 2,5,-1
 940 792 l 1,6,7
 1094.65 668.276 1094.65 668.276 1148.5 522.5 c 0,8,9
 1167.18 471.933 1167.18 471.933 1167.18 442.133 c 128,-1,10
 1167.18 412.333 1167.18 412.333 1166.09 388.667 c 128,-1,11
 1165 365 1165 365 1149 326.5 c 128,-1,12
 1133 288 1133 288 1107 257.5 c 0,13,14
 1052.6 193.684 1052.6 193.684 974 173 c 1,15,-1
 1346 173 l 1,16,17
 1301.82 49.9215 1301.82 49.9215 1215 12.5 c 0,18,19
 1186 0 1186 0 1155 0 c 2,20,-1
 881 0 l 2,21,22
 754.889 0 754.889 0 732.5 108.5 c 0,23,24
 728.053 130.053 728.053 130.053 728.053 146.658 c 128,-1,25
 728.053 163.263 728.053 163.263 729 174 c 1,26,27
 843.132 188.267 843.132 188.267 888.5 290 c 0,28,29
 910 338.212 910 338.212 910 383.606 c 128,-1,30
 910 429 910 429 899.5 460.5 c 128,-1,31
 889 492 889 492 869 524 c 128,-1,32
 849 556 849 556 823 585 c 2,33,-1
 772 641 l 1,34,35
 699.639 735.625 699.639 735.625 683 840 c 1,36,-1
 367 0 l 1,37,-1
 120 0 l 1,38,-1
 540 1107 l 1,39,-1
 780 1107 l 1,0,1
EndSplineSet
EndChar

StartChar: A
Encoding: 65 65 26
Width: 1365
Flags: HW
LayerCount: 2
Fore
SplineSet
275 381 m 1,0,-1
 -16 381 l 1,1,2
 -8 451 -8 451 42.5 501.5 c 128,-1,3
 93 552 93 552 159 552 c 2,4,-1
 305 552 l 1,5,-1
 438 1327 l 2,6,7
 451.758 1407.58 451.758 1407.58 510.5 1463 c 0,8,9
 566.68 1516 566.68 1516 633 1516 c 2,10,-1
 876 1516 l 2,11,12
 941.353 1516 941.353 1516 998 1462.5 c 0,13,14
 1057.64 1406.18 1057.64 1406.18 1071 1326 c 2,15,-1
 1299 0 l 1,16,-1
 1060 0 l 1,17,-1
 998 381 l 1,18,-1
 507 381 l 1,19,-1
 446 0 l 1,20,-1
 210 0 l 1,21,-1
 275 381 l 1,0,-1
971 552 m 1,22,-1
 843 1347 l 1,23,-1
 660 1347 l 1,24,-1
 534 552 l 1,25,-1
 971 552 l 1,22,-1
EndSplineSet
EndChar

StartChar: one
Encoding: 49 49 27
Width: 852
Flags: HW
LayerCount: 2
Fore
SplineSet
354 1078 m 1,0,-1
 200 1078 l 1,1,-1
 200 1249 l 1,2,-1
 593 1249 l 1,3,-1
 593 0 l 1,4,-1
 354 0 l 1,5,-1
 354 1078 l 1,0,-1
EndSplineSet
EndChar

StartChar: B
Encoding: 66 66 28
Width: 1365
Flags: HW
LayerCount: 2
Fore
SplineSet
1165 888 m 2,0,1
 1165 731.762 1165 731.762 1036 656 c 1,2,3
 1118.16 626.125 1118.16 626.125 1164.5 547 c 0,4,5
 1205 477.854 1205 477.854 1205 402 c 2,6,-1
 1205 252 l 2,7,8
 1205 146.491 1205 146.491 1148.5 74 c 0,9,10
 1090.82 -5.40149e-05 1090.82 -5.40149e-05 1014 0 c 2,11,-1
 257 0 l 1,12,-1
 257 565 l 1,13,-1
 -54 565 l 1,14,15
 -48.0386 636.537 -48.0386 636.537 2.5 686 c 0,16,17
 53.587 736 53.587 736 121 736 c 2,18,-1
 257 736 l 1,19,-1
 257 1516 l 1,20,-1
 959 1516 l 2,21,22
 1040.78 1516 1040.78 1516 1101.5 1442.5 c 0,23,24
 1165 1365.63 1165 1365.63 1165 1262 c 2,25,-1
 1165 888 l 2,0,1
928 736 m 1,26,-1
 928 1345 l 1,27,-1
 494 1345 l 1,28,-1
 494 736 l 1,29,-1
 928 736 l 1,26,-1
966 171 m 1,30,-1
 966 565 l 1,31,-1
 494 565 l 1,32,-1
 494 171 l 1,33,-1
 966 171 l 1,30,-1
EndSplineSet
EndChar

StartChar: C
Encoding: 67 67 29
Width: 1365
Flags: HW
LayerCount: 2
Fore
SplineSet
237 1262 m 2,0,1
 237 1368.19 237 1368.19 293 1442.5 c 0,2,3
 348.391 1516 348.391 1516 426 1516 c 2,4,-1
 982 1516 l 2,5,6
 1060.61 1516 1060.61 1516 1116 1442.5 c 0,7,8
 1172 1368.19 1172 1368.19 1172 1262 c 2,9,-1
 1172 871 l 1,10,-1
 934 871 l 1,11,-1
 934 1347 l 1,12,-1
 474 1347 l 1,13,-1
 474 171 l 1,14,-1
 1284 171 l 1,15,16
 1275.8 99.2269 1275.8 99.2269 1225.5 50 c 0,17,18
 1174.41 4.14859e-05 1174.41 4.14859e-05 1109 0 c 2,19,-1
 426 0 l 2,20,21
 349.588 0 349.588 0 293 74 c 0,22,23
 237 147.231 237 147.231 237 252 c 2,24,-1
 237 1262 l 2,0,1
EndSplineSet
EndChar

StartChar: D
Encoding: 68 68 30
Width: 1365
Flags: HW
LayerCount: 2
Fore
SplineSet
236 982 m 2,0,1
 236 1084.64 236 1084.64 293.5 1159.5 c 0,2,3
 350.725 1234 350.725 1234 430 1234 c 2,4,-1
 475 1234 l 1,5,-1
 475 171 l 1,6,-1
 936 171 l 1,7,-1
 936 1347 l 1,8,-1
 42 1347 l 1,9,10
 47.9622 1416.56 47.9622 1416.56 99.5 1467 c 0,11,12
 149.565 1516 149.565 1516 217 1516 c 2,13,-1
 985 1516 l 2,14,15
 1065.17 1516 1065.17 1516 1119.5 1442.5 c 0,16,17
 1175 1367.41 1175 1367.41 1175 1262 c 2,18,-1
 1175 252 l 2,19,20
 1175 148 1175 148 1119.5 74 c 128,-1,21
 1064 -1.19209e-06 1064 -1.19209e-06 986 0 c 2,22,-1
 237 0 l 1,23,-1
 236 982 l 2,0,1
EndSplineSet
EndChar

StartChar: F
Encoding: 70 70 31
Width: 1193
Flags: HW
LayerCount: 2
Fore
SplineSet
1113 725 m 1,0,-1
 1114 564 l 1,1,-1
 879 564 l 1,2,-1
 879 -11 l 2,3,4
 879 -114.704 879 -114.704 820 -189 c 0,5,6
 762.029 -262 762.029 -262 685 -262 c 2,7,-1
 639 -262 l 1,8,-1
 639 564 l 1,9,-1
 156 564 l 1,10,11
 165.516 668.674 165.516 668.674 260.5 712 c 0,12,13
 289 725 289 725 321 725 c 2,14,-1
 639 725 l 1,15,-1
 639 1346 l 1,16,-1
 -2 1346 l 1,17,18
 6.07392 1416.65 6.07392 1416.65 56.5 1466 c 0,19,20
 107.587 1516 107.587 1516 173 1516 c 2,21,-1
 879 1516 l 1,22,-1
 879 725 l 1,23,-1
 1113 725 l 1,0,-1
EndSplineSet
EndChar

StartChar: G
Encoding: 71 71 32
Width: 1385
Flags: HW
LayerCount: 2
Fore
SplineSet
237 1261 m 2,0,1
 237 1366.41 237 1366.41 292.5 1441.5 c 0,2,3
 346.826 1515 346.826 1515 425 1515 c 2,4,-1
 1225 1515 l 1,5,-1
 1225 1346 l 1,6,-1
 476 1346 l 1,7,-1
 476 172 l 1,8,-1
 986 172 l 1,9,-1
 986 883 l 1,10,-1
 1227 883 l 1,11,-1
 1225 -117 l 2,12,13
 1225 -218.98 1225 -218.98 1171 -293.5 c 128,-1,14
 1117.01 -368 1117.01 -368 1040 -368 c 2,15,-1
 986 -368 l 1,16,-1
 986 0 l 1,17,-1
 425 0 l 2,18,19
 348 0 348 0 292.5 74 c 128,-1,20
 237 148 237 148 237 252 c 2,21,-1
 237 1261 l 2,0,1
EndSplineSet
EndChar

StartChar: H
Encoding: 72 72 33
Width: 1365
Flags: HW
LayerCount: 2
Fore
SplineSet
237 565 m 1,0,-1
 -52 565 l 1,1,2
 -44.0531 636.523 -44.0531 636.523 6.5 686 c 0,3,4
 57.587 736 57.587 736 123 736 c 2,5,-1
 237 736 l 1,6,-1
 237 1516 l 1,7,-1
 475 1516 l 1,8,-1
 475 736 l 1,9,-1
 994 736 l 1,10,-1
 994 1516 l 1,11,-1
 1234 1516 l 1,12,-1
 1234 0 l 1,13,-1
 994 0 l 1,14,-1
 994 565 l 1,15,-1
 475 565 l 1,16,-1
 475 0 l 1,17,-1
 237 0 l 1,18,-1
 237 565 l 1,0,-1
EndSplineSet
EndChar

StartChar: I
Encoding: 73 73 34
Width: 1193
Flags: HW
LayerCount: 2
Fore
SplineSet
396 171 m 1,0,-1
 711 171 l 1,1,-1
 711 1347 l 1,2,-1
 383 1347 l 1,3,-1
 383 1002 l 1,4,-1
 177 1002 l 1,5,-1
 177 1262 l 2,6,7
 177 1368.19 177 1368.19 233 1442.5 c 0,8,9
 288.391 1516 288.391 1516 368 1516 c 2,10,-1
 951 1516 l 1,11,-1
 951 252 l 2,12,13
 951 147.231 951 147.231 895 74 c 0,14,15
 838.412 -2.76091e-05 838.412 -2.76091e-05 761 0 c 2,16,-1
 396 0 l 1,17,-1
 396 171 l 1,0,-1
EndSplineSet
EndChar

StartChar: J
Encoding: 74 74 35
Width: 1365
Flags: HW
LayerCount: 2
Fore
SplineSet
237 670 m 1,0,-1
 472 670 l 1,1,-1
 472 171 l 1,2,-1
 896 171 l 1,3,-1
 896 1347 l 1,4,-1
 457 1347 l 1,5,-1
 457 1516 l 1,6,-1
 1147 1516 l 1,7,-1
 1147 254 l 2,8,9
 1147 148.808 1147 148.808 1091 74.5 c 128,-1,10
 1034.86 3.8249e-05 1034.86 3.8249e-05 956 0 c 2,11,-1
 426 0 l 2,12,13
 348 0 348 0 292.5 74 c 128,-1,14
 237 148 237 148 237 252 c 2,15,-1
 237 670 l 1,0,-1
EndSplineSet
EndChar

StartChar: K
Encoding: 75 75 36
Width: 1365
Flags: HW
LayerCount: 2
Fore
SplineSet
233 1516 m 1,0,-1
 473 1516 l 1,1,-1
 473 763 l 1,2,-1
 672 763 l 1,3,-1
 930 1516 l 1,4,-1
 1184 1516 l 1,5,-1
 909 763 l 1,6,-1
 950 763 l 2,7,8
 1026.94 763 1026.94 763 1077 689 c 0,9,10
 1126 616.565 1126 616.565 1126 512 c 2,11,-1
 1126 172 l 1,12,-1
 1392 172 l 1,13,14
 1384.12 101.125 1384.12 101.125 1333.5 50.5 c 128,-1,15
 1283 0 1283 0 1217 0 c 2,16,-1
 1076 0 l 2,17,18
 998.588 0 998.588 0 942 74 c 0,19,20
 886 147.231 886 147.231 886 252 c 2,21,-1
 886 595 l 1,22,-1
 473 595 l 1,23,-1
 473 0 l 1,24,-1
 233 0 l 1,25,-1
 233 1516 l 1,0,-1
EndSplineSet
EndChar

StartChar: M
Encoding: 77 77 37
Width: 1882
Flags: HW
LayerCount: 2
Fore
SplineSet
217 1516 m 1,0,-1
 456 1516 l 1,1,-1
 456 1114 l 1,2,-1
 727 1438 l 2,3,4
 792.684 1516 792.684 1516 880 1516 c 0,5,6
 965.571 1516 965.571 1516 1024.5 1448.5 c 0,7,8
 1084 1380.35 1084 1380.35 1084 1284 c 2,9,-1
 1084 1148 l 1,10,-1
 1327 1438 l 2,11,12
 1392.68 1516 1392.68 1516 1480 1516 c 0,13,14
 1565.57 1516 1565.57 1516 1624.5 1448.5 c 0,15,16
 1684 1380.35 1684 1380.35 1684 1284 c 2,17,-1
 1684 171 l 1,18,-1
 1900 171 l 1,19,20
 1891.8 99.2269 1891.8 99.2269 1841.5 50 c 0,21,22
 1790.41 4.14859e-05 1790.41 4.14859e-05 1725 0 c 2,23,-1
 1631 0 l 2,24,25
 1553.41 0 1553.41 0 1499 74 c 0,26,27
 1445 147.44 1445 147.44 1445 252 c 2,28,-1
 1445 1320 l 1,29,-1
 1084 891 l 1,30,-1
 1084 0 l 1,31,-1
 845 0 l 1,32,-1
 845 1320 l 1,33,-1
 456 858 l 1,34,-1
 456 0 l 1,35,-1
 217 0 l 1,36,-1
 217 1516 l 1,0,-1
EndSplineSet
EndChar

StartChar: O
Encoding: 79 79 38
Width: 1365
Flags: HW
LayerCount: 2
Fore
SplineSet
203 1262 m 2,0,1
 203 1367.41 203 1367.41 258.5 1442.5 c 0,2,3
 312.826 1516 312.826 1516 391 1516 c 2,4,-1
 971 1516 l 2,5,6
 1050.61 1516 1050.61 1516 1106 1442.5 c 0,7,8
 1162 1368.19 1162 1368.19 1162 1262 c 2,9,-1
 1161 252 l 2,10,11
 1161 147.231 1161 147.231 1105 74 c 0,12,13
 1048.41 -2.76091e-05 1048.41 -2.76091e-05 971 0 c 2,14,-1
 391 0 l 2,15,16
 314 0 314 0 258.5 74 c 128,-1,17
 203 148 203 148 203 252 c 2,18,-1
 203 1262 l 2,0,1
923 171 m 1,19,-1
 923 1347 l 1,20,-1
 442 1347 l 1,21,-1
 442 171 l 1,22,-1
 923 171 l 1,19,-1
EndSplineSet
EndChar

StartChar: Q
Encoding: 81 81 39
Width: 1365
Flags: HW
LayerCount: 2
Fore
SplineSet
270 0 m 1,0,1
 278.072 70.6334 278.072 70.6334 329 120.5 c 0,2,3
 380.574 171 380.574 171 445 171 c 2,4,-1
 901 171 l 1,5,-1
 901 1347 l 1,6,-1
 428 1347 l 1,7,-1
 428 460 l 1,8,-1
 378 460 l 2,9,10
 300.145 460 300.145 460 244 534.5 c 128,-1,11
 188 608.808 188 608.808 188 715 c 2,12,-1
 188 1262 l 2,13,14
 188 1368.19 188 1368.19 244 1442.5 c 0,15,16
 299.391 1516 299.391 1516 377 1516 c 2,17,-1
 949 1516 l 2,18,19
 1028.61 1516 1028.61 1516 1084 1442.5 c 0,20,21
 1140 1368.19 1140 1368.19 1140 1262 c 2,22,-1
 1140 409 l 2,23,24
 1140 284.64 1140 284.64 1059 208.5 c 0,25,26
 1034 185 1034 185 1004 171 c 1,27,-1
 1361 171 l 1,28,29
 1353 101 1353 101 1302.5 50.5 c 128,-1,30
 1252 0 1252 0 1186 0 c 2,31,-1
 270 0 l 1,0,1
EndSplineSet
EndChar

StartChar: R
Encoding: 82 82 40
Width: 1365
Flags: HW
LayerCount: 2
Fore
SplineSet
1120 889 m 2,0,1
 1120 732.762 1120 732.762 991 657 c 1,2,3
 1072.35 627.419 1072.35 627.419 1120 548 c 0,4,5
 1161 479.667 1161 479.667 1161 403 c 2,6,-1
 1160 172 l 1,7,-1
 1423 172 l 1,8,9
 1415.12 101.125 1415.12 101.125 1364.5 50.5 c 128,-1,10
 1314 0 1314 0 1248 0 c 2,11,-1
 1110 0 l 2,12,13
 1032.59 0 1032.59 0 976 74 c 0,14,15
 920 147.231 920 147.231 920 252 c 2,16,-1
 920 564 l 1,17,-1
 474 564 l 1,18,-1
 473 0 l 1,19,-1
 237 0 l 1,20,-1
 237 564 l 1,21,-1
 -36 564 l 1,22,23
 -30.0938 632.906 -30.0938 632.906 21.5 684.5 c 0,24,25
 72 735 72 735 139 735 c 2,26,-1
 237 735 l 1,27,-1
 237 1516 l 1,28,-1
 915 1516 l 2,29,30
 996.783 1516 996.783 1516 1057.5 1442.5 c 0,31,32
 1120 1366.84 1120 1366.84 1120 1262 c 2,33,-1
 1120 889 l 2,0,1
883 735 m 1,34,-1
 883 1345 l 1,35,-1
 474 1345 l 1,36,-1
 474 735 l 1,37,-1
 883 735 l 1,34,-1
EndSplineSet
EndChar

StartChar: U
Encoding: 85 85 41
Width: 1365
Flags: HW
LayerCount: 2
Fore
SplineSet
207 1516 m 1,0,-1
 447 1516 l 1,1,-1
 447 182 l 1,2,-1
 540 182 l 1,3,-1
 925 486 l 1,4,-1
 925 1516 l 1,5,-1
 1163 1516 l 1,6,-1
 1163 172 l 1,7,-1
 1363 172 l 1,8,9
 1355.12 101.125 1355.12 101.125 1304.5 50.5 c 128,-1,10
 1254 0 1254 0 1188 0 c 2,11,-1
 925 0 l 1,12,-1
 925 288 l 1,13,-1
 608 33 l 1,14,15
 570 0 570 0 520 0 c 2,16,-1
 405 0 l 2,17,18
 324.765 0 324.765 0 266 74 c 0,19,20
 207 148.296 207 148.296 207 252 c 2,21,-1
 207 1516 l 1,0,-1
EndSplineSet
EndChar

StartChar: E
Encoding: 69 69 42
Width: 1193
Flags: HW
LayerCount: 2
Fore
SplineSet
266 564 m 1,0,-1
 -16 564 l 1,1,2
 -6.48419 668.674 -6.48419 668.674 88.5 712 c 0,3,4
 117 725 117 725 149 725 c 2,5,-1
 266 725 l 1,6,-1
 266 1262 l 2,7,8
 266 1368.76 266 1368.76 320.5 1442.5 c 0,9,10
 374.826 1516 374.826 1516 454 1516 c 2,11,-1
 1082 1516 l 1,12,-1
 1082 1347 l 1,13,-1
 506 1347 l 1,14,-1
 506 725 l 1,15,-1
 902 725 l 1,16,-1
 902 564 l 1,17,-1
 506 564 l 1,18,-1
 506 171 l 1,19,-1
 1171 171 l 1,20,21
 1162.8 99.2269 1162.8 99.2269 1112.5 50 c 0,22,23
 1061.41 4.14859e-05 1061.41 4.14859e-05 996 0 c 2,24,-1
 456 0 l 2,25,26
 377 0 377 0 321.5 74 c 128,-1,27
 266 148 266 148 266 252 c 2,28,-1
 266 564 l 1,0,-1
EndSplineSet
EndChar

StartChar: W
Encoding: 87 87 43
Width: 1882
Flags: HW
LayerCount: 2
Fore
SplineSet
237 1346 m 1,0,-1
 -27 1346 l 1,1,2
 -19 1416 -19 1416 31.5 1466.5 c 128,-1,3
 82 1517 82 1517 148 1517 c 2,4,-1
 476 1517 l 1,5,-1
 476 172 l 1,6,-1
 846 172 l 1,7,-1
 846 1517 l 1,8,-1
 1086 1517 l 1,9,-1
 1086 172 l 1,10,-1
 1456 172 l 1,11,-1
 1456 1517 l 1,12,-1
 1695 1517 l 1,13,-1
 1695 254 l 2,14,15
 1695 148.808 1695 148.808 1639 74.5 c 128,-1,16
 1582.86 3.8249e-05 1582.86 3.8249e-05 1504 0 c 2,17,-1
 1131 0 l 2,18,19
 1082 0 1082 0 1038 33.5 c 128,-1,20
 994 67 994 67 965 124 c 1,21,22
 936 67 936 67 892 33.5 c 128,-1,23
 848 0 848 0 799 0 c 2,24,-1
 428 0 l 2,25,26
 349.145 0 349.145 0 293 74.5 c 128,-1,27
 237 148.808 237 148.808 237 254 c 2,28,-1
 237 1346 l 1,0,-1
EndSplineSet
EndChar

StartChar: a
Encoding: 97 97 44
Width: 1365
Flags: HW
LayerCount: 2
Fore
SplineSet
237 765 m 2,0,1
 237 885.759 237 885.759 299 967 c 0,2,3
 360.816 1048 360.816 1048 453 1048 c 2,4,-1
 1127 1048 l 1,5,-1
 1127 171 l 1,6,-1
 1344 171 l 1,7,8
 1335.8 99.2269 1335.8 99.2269 1285.5 50 c 0,9,10
 1234.41 4.14859e-05 1234.41 4.14859e-05 1169 0 c 2,11,-1
 1062 0 l 2,12,13
 1013 0 1013 0 969 33.5 c 128,-1,14
 925 67 925 67 896 124 c 1,15,16
 867 67 867 67 823 33.5 c 128,-1,17
 779 0 779 0 730 0 c 2,18,-1
 427 0 l 2,19,20
 348 0 348 0 292.5 74 c 128,-1,21
 237 148 237 148 237 251 c 2,22,-1
 237 765 l 2,0,1
889 171 m 1,23,-1
 889 876 l 1,24,-1
 475 876 l 1,25,-1
 475 171 l 1,26,-1
 889 171 l 1,23,-1
EndSplineSet
EndChar

StartChar: o
Encoding: 111 111 45
Width: 1365
Flags: HW
LayerCount: 2
Fore
SplineSet
237 793 m 2,0,1
 237 898.412 237 898.412 292.5 973.5 c 0,2,3
 346.826 1047 346.826 1047 425 1047 c 2,4,-1
 1263 1047 l 1,5,6
 1254.8 975.227 1254.8 975.227 1204.5 926 c 0,7,8
 1153.41 876 1153.41 876 1088 876 c 2,9,-1
 1025 876 l 1,10,11
 1093.93 825.206 1093.93 825.206 1118.5 725.5 c 0,12,13
 1127 691 1127 691 1127 651 c 2,14,-1
 1127 252 l 2,15,16
 1127 147.231 1127 147.231 1071 74 c 0,17,18
 1014.41 -2.76091e-05 1014.41 -2.76091e-05 937 0 c 2,19,-1
 425 0 l 2,20,21
 348 0 348 0 292.5 74 c 128,-1,22
 237 148 237 148 237 252 c 2,23,-1
 237 793 l 2,0,1
888 171 m 1,24,-1
 888 876 l 1,25,-1
 476 876 l 1,26,-1
 476 171 l 1,27,-1
 888 171 l 1,24,-1
EndSplineSet
EndChar

StartChar: e
Encoding: 101 101 46
Width: 1365
Flags: HW
LayerCount: 2
Fore
SplineSet
237 793 m 2,0,1
 237 897.412 237 897.412 292.5 972.5 c 0,2,3
 347.565 1047 347.565 1047 427 1047 c 2,4,-1
 958 1047 l 2,5,6
 1035.86 1047 1035.86 1047 1092 972.5 c 128,-1,7
 1148 898.192 1148 898.192 1148 793 c 2,8,-1
 1148 460 l 1,9,-1
 476 460 l 1,10,-1
 476 171 l 1,11,-1
 1210 171 l 1,12,13
 1201.8 99.2269 1201.8 99.2269 1151.5 50 c 0,14,15
 1100.41 4.14859e-05 1100.41 4.14859e-05 1035 0 c 2,16,-1
 427 0 l 2,17,18
 347.565 0 347.565 0 292.5 74.5 c 0,19,20
 237 149.588 237 149.588 237 254 c 2,21,-1
 237 793 l 2,0,1
909 600 m 1,22,-1
 909 876 l 1,23,-1
 476 876 l 1,24,-1
 476 600 l 1,25,-1
 909 600 l 1,22,-1
EndSplineSet
EndChar

StartChar: T
Encoding: 84 84 47
Width: 1365
Flags: HW
LayerCount: 2
Fore
SplineSet
426 0 m 1,0,1
 434 70 434 70 484.5 120.5 c 128,-1,2
 535 171 535 171 601 171 c 2,3,-1
 895 171 l 1,4,-1
 895 1347 l 1,5,-1
 451 1347 l 1,6,-1
 451 1022 l 1,7,-1
 212 1022 l 1,8,-1
 212 1262 l 2,9,10
 212 1368.19 212 1368.19 268 1442.5 c 0,11,12
 323.391 1516 323.391 1516 401 1516 c 2,13,-1
 1340 1516 l 1,14,-1
 1340 1347 l 1,15,-1
 1133 1347 l 1,16,-1
 1133 253 l 2,17,18
 1133 148.808 1133 148.808 1077 74.5 c 128,-1,19
 1020.86 3.8249e-05 1020.86 3.8249e-05 944 0 c 2,20,-1
 426 0 l 1,0,1
EndSplineSet
EndChar

StartChar: L
Encoding: 76 76 48
Width: 1193
Flags: HW
LayerCount: 2
Fore
SplineSet
30 0 m 1,0,1
 36.1541 69.7466 36.1541 69.7466 87.5 120 c 0,2,3
 139.609 171 139.609 171 205 171 c 2,4,-1
 267 171 l 1,5,-1
 267 1262 l 2,6,7
 267 1367.41 267 1367.41 322.5 1442.5 c 0,8,9
 376.826 1516 376.826 1516 456 1516 c 2,10,-1
 776 1516 l 1,11,-1
 776 1357 l 1,12,-1
 505 1357 l 1,13,-1
 505 416 l 2,14,15
 505 321.163 505 321.163 454.5 246 c 0,16,17
 410.21 180.08 410.21 180.08 358 171 c 1,18,-1
 944 171 l 1,19,-1
 944 371 l 1,20,-1
 1155 371 l 1,21,-1
 1155 170 l 2,22,23
 1155 100.163 1155 100.163 1100.5 49 c 0,24,25
 1048.3 -2.57209e-05 1048.3 -2.57209e-05 980 0 c 2,26,-1
 30 0 l 1,0,1
EndSplineSet
EndChar

StartChar: P
Encoding: 80 80 49
Width: 1365
Flags: HW
LayerCount: 2
Fore
SplineSet
338 526 m 1,0,-1
 50 526 l 1,1,2
 58 596 58 596 108.5 646.5 c 128,-1,3
 159 697 159 697 225 697 c 2,4,-1
 337 697 l 1,5,-1
 337 1516 l 1,6,-1
 1082 1516 l 2,7,8
 1160.61 1516 1160.61 1516 1216 1442.5 c 0,9,10
 1272 1368.19 1272 1368.19 1272 1262 c 2,11,-1
 1272 778 l 2,12,13
 1272 673.808 1272 673.808 1216 599.5 c 0,14,15
 1160.61 526 1160.61 526 1082 526 c 2,16,-1
 578 526 l 1,17,-1
 578 0 l 1,18,-1
 338 0 l 1,19,-1
 338 526 l 1,0,-1
1039 697 m 1,20,-1
 1039 1347 l 1,21,-1
 577 1347 l 1,22,-1
 577 697 l 1,23,-1
 1039 697 l 1,20,-1
EndSplineSet
EndChar

StartChar: Y
Encoding: 89 89 50
Width: 1365
Flags: HW
LayerCount: 2
Fore
SplineSet
300 0 m 1,0,1
 308 70 308 70 358.5 120.5 c 128,-1,2
 409 171 409 171 475 171 c 2,3,-1
 955 171 l 1,4,-1
 955 618 l 1,5,-1
 651 434 l 1,6,7
 604.313 403.654 604.313 403.654 548 406 c 1,8,-1
 435 406 l 2,9,10
 354.765 406 354.765 406 296 480 c 0,11,12
 237 554.296 237 554.296 237 658 c 2,13,-1
 237 1345 l 1,14,-1
 25 1345 l 1,15,16
 33.1415 1416.24 33.1415 1416.24 84.5 1465.5 c 0,17,18
 137.149 1516 137.149 1516 210 1516 c 2,19,-1
 477 1516 l 1,20,-1
 477 578 l 1,21,-1
 570 578 l 1,22,-1
 955 815 l 1,23,-1
 955 1516 l 1,24,-1
 1193 1516 l 1,25,-1
 1193 251 l 2,26,27
 1193 149.588 1193 149.588 1137.5 74.5 c 0,28,29
 1082.43 4.37056e-05 1082.43 4.37056e-05 1003 0 c 2,30,-1
 300 0 l 1,0,1
EndSplineSet
EndChar

StartChar: three
Encoding: 51 51 51
Width: 1365
Flags: HW
LayerCount: 2
Fore
SplineSet
260 322 m 1,0,-1
 498 322 l 1,1,-1
 498 172 l 1,2,-1
 900 172 l 1,3,-1
 900 553 l 1,4,-1
 602 553 l 1,5,-1
 602 724 l 1,6,-1
 900 724 l 1,7,-1
 900 1078 l 1,8,-1
 498 1078 l 1,9,-1
 498 889 l 1,10,-1
 260 889 l 1,11,-1
 260 996 l 2,12,13
 260 1101.19 260 1101.19 316 1175.5 c 128,-1,14
 372.145 1250 372.145 1250 451 1250 c 2,15,-1
 949 1250 l 2,16,17
 1027.86 1250 1027.86 1250 1084 1175.5 c 128,-1,18
 1140 1101.19 1140 1101.19 1140 996 c 2,19,-1
 1140 894 l 2,20,21
 1140 768.418 1140 768.418 1049.5 684.5 c 0,22,23
 1022 659 1022 659 990 643 c 1,24,25
 1093.73 587.894 1093.73 587.894 1128.5 473 c 0,26,27
 1140 435 1140 435 1140 393 c 2,28,-1
 1140 254 l 2,29,30
 1140 148.808 1140 148.808 1084 74.5 c 128,-1,31
 1027.86 3.8249e-05 1027.86 3.8249e-05 949 0 c 2,32,-1
 451 0 l 2,33,34
 372.145 0 372.145 0 316 74.5 c 128,-1,35
 260 148.808 260 148.808 260 254 c 2,36,-1
 260 322 l 1,0,-1
EndSplineSet
EndChar

StartChar: zero
Encoding: 48 48 52
Width: 1365
Flags: HW
LayerCount: 2
Fore
SplineSet
267 975 m 2,0,1
 267 1081.41 267 1081.41 322.5 1156.5 c 0,2,3
 376.826 1230 376.826 1230 457 1230 c 2,4,-1
 908 1230 l 2,5,6
 986.609 1230 986.609 1230 1042 1156.5 c 0,7,8
 1098 1082.19 1098 1082.19 1098 975 c 2,9,-1
 1098 254 l 2,10,11
 1098 148.808 1098 148.808 1042 74.5 c 128,-1,12
 985.855 3.8249e-05 985.855 3.8249e-05 909 0 c 2,13,-1
 457 0 l 2,14,15
 377.565 0 377.565 0 322.5 74.5 c 0,16,17
 267 149.588 267 149.588 267 254 c 2,18,-1
 267 975 l 2,0,1
860 172 m 1,19,-1
 860 1059 l 1,20,-1
 505 1059 l 1,21,-1
 505 172 l 1,22,-1
 860 172 l 1,19,-1
EndSplineSet
EndChar

StartChar: two
Encoding: 50 50 53
Width: 1365
Flags: HW
LayerCount: 2
Fore
SplineSet
285 288 m 2,0,1
 285 410.55 285 410.55 348 483 c 0,2,3
 368 506 368 506 392 519 c 2,4,-1
 894 779 l 1,5,-1
 894 1078 l 1,6,-1
 522 1078 l 1,7,-1
 522 891 l 1,8,-1
 285 891 l 1,9,-1
 285 996 l 2,10,11
 285 1100.41 285 1100.41 340.5 1175.5 c 0,12,13
 395.565 1250 395.565 1250 475 1250 c 2,14,-1
 942 1250 l 2,15,16
 1021.43 1250 1021.43 1250 1076.5 1175.5 c 0,17,18
 1132 1100.41 1132 1100.41 1132 996 c 2,19,-1
 1132 841 l 2,20,21
 1132 719.465 1132 719.465 1062.5 643.5 c 0,22,23
 1041 620 1041 620 1015 607 c 2,24,-1
 522 349 l 1,25,-1
 522 172 l 1,26,-1
 1132 172 l 1,27,-1
 1132 0 l 1,28,-1
 285 0 l 1,29,-1
 285 288 l 2,0,1
EndSplineSet
EndChar

StartChar: five
Encoding: 53 53 54
Width: 1365
Flags: HW
LayerCount: 2
Fore
SplineSet
297 360 m 1,0,-1
 534 360 l 1,1,-1
 534 172 l 1,2,-1
 891 172 l 1,3,-1
 891 638 l 1,4,-1
 297 638 l 1,5,-1
 297 1250 l 1,6,-1
 1093 1250 l 1,7,-1
 1093 1078 l 1,8,-1
 534 1078 l 1,9,-1
 534 809 l 1,10,-1
 939 809 l 2,11,12
 1016.29 809 1016.29 809 1072 734 c 0,13,14
 1128 658.615 1128 658.615 1128 552 c 2,15,-1
 1128 254 l 2,16,17
 1128 148.808 1128 148.808 1072 74.5 c 128,-1,18
 1015.86 3.8249e-05 1015.86 3.8249e-05 939 0 c 2,19,-1
 487 0 l 2,20,21
 407.565 0 407.565 0 352.5 74.5 c 0,22,23
 297 149.588 297 149.588 297 254 c 2,24,-1
 297 360 l 1,0,-1
EndSplineSet
EndChar

StartChar: six
Encoding: 54 54 55
Width: 1365
Flags: HW
LayerCount: 2
Fore
SplineSet
276 996 m 2,0,1
 276 1101.19 276 1101.19 332 1175.5 c 128,-1,2
 388.145 1250 388.145 1250 467 1250 c 2,3,-1
 1045 1250 l 1,4,-1
 1045 1078 l 1,5,-1
 514 1078 l 1,6,-1
 514 809 l 1,7,-1
 956 809 l 2,8,9
 1035.71 809 1035.71 809 1092.5 734 c 0,10,11
 1149 659.377 1149 659.377 1149 552 c 2,12,-1
 1149 254 l 2,13,14
 1149 148.057 1149 148.057 1092.5 74.5 c 0,15,16
 1035.28 3.67132e-05 1035.28 3.67132e-05 956 0 c 2,17,-1
 467 0 l 2,18,19
 388.145 0 388.145 0 332 74.5 c 128,-1,20
 276 148.808 276 148.808 276 254 c 2,21,-1
 276 996 l 2,0,1
909 172 m 1,22,-1
 909 648 l 1,23,-1
 514 648 l 1,24,-1
 514 172 l 1,25,-1
 909 172 l 1,22,-1
EndSplineSet
EndChar

StartChar: nine
Encoding: 57 57 56
Width: 1365
Flags: HW
LayerCount: 2
Fore
SplineSet
387 172 m 1,0,-1
 889 172 l 1,1,-1
 889 454 l 1,2,-1
 447 454 l 2,3,4
 368.145 454 368.145 454 312 528.5 c 128,-1,5
 256 602.808 256 602.808 256 710 c 2,6,-1
 256 996 l 2,7,8
 256 1101.19 256 1101.19 312 1175.5 c 128,-1,9
 368.145 1250 368.145 1250 447 1250 c 2,10,-1
 936 1250 l 2,11,12
 1015.28 1250 1015.28 1250 1072.5 1175.5 c 0,13,14
 1129 1101.94 1129 1101.94 1129 996 c 2,15,-1
 1129 254 l 2,16,17
 1129 148.057 1129 148.057 1072.5 74.5 c 0,18,19
 1015.28 3.67132e-05 1015.28 3.67132e-05 936 0 c 2,20,-1
 387 0 l 1,21,-1
 387 172 l 1,0,-1
889 617 m 1,22,-1
 889 1078 l 1,23,-1
 494 1078 l 1,24,-1
 494 617 l 1,25,-1
 889 617 l 1,22,-1
EndSplineSet
EndChar

StartChar: eight
Encoding: 56 56 57
Width: 1365
Flags: HW
LayerCount: 2
Fore
SplineSet
271 393 m 2,0,1
 271 518.509 271 518.509 360.5 601.5 c 0,2,3
 388 627 388 627 421 643 c 1,4,5
 316.528 693.653 316.528 693.653 282 814.5 c 0,6,7
 271 853 271 853 271 894 c 2,8,-1
 271 995 l 2,9,10
 271 1100.94 271 1100.94 327.5 1174.5 c 0,11,12
 384.725 1249 384.725 1249 462 1249 c 2,13,-1
 960 1249 l 2,14,15
 1038.86 1249 1038.86 1249 1095 1174.5 c 128,-1,16
 1151 1100.19 1151 1100.19 1151 995 c 2,17,-1
 1151 894 l 2,18,19
 1151 768.418 1151 768.418 1060.5 684.5 c 0,20,21
 1033 659 1033 659 1001 643 c 1,22,23
 1104.73 587.894 1104.73 587.894 1139.5 473 c 0,24,25
 1151 435 1151 435 1151 393 c 2,26,-1
 1151 254 l 2,27,28
 1151 148.808 1151 148.808 1095 74.5 c 128,-1,29
 1038.86 3.8249e-05 1038.86 3.8249e-05 960 0 c 2,30,-1
 462 0 l 2,31,32
 384.725 0 384.725 0 327.5 74.5 c 0,33,34
 271 148.057 271 148.057 271 254 c 2,35,-1
 271 393 l 2,0,1
911 724 m 1,36,-1
 911 1078 l 1,37,-1
 510 1078 l 1,38,-1
 510 724 l 1,39,-1
 911 724 l 1,36,-1
911 172 m 1,40,-1
 911 553 l 1,41,-1
 510 553 l 1,42,-1
 510 172 l 1,43,-1
 911 172 l 1,40,-1
EndSplineSet
EndChar

StartChar: seven
Encoding: 55 55 58
Width: 1365
Flags: HW
LayerCount: 2
Fore
SplineSet
926 1078 m 1,0,-1
 481 1078 l 1,1,-1
 481 877 l 1,2,-1
 257 877 l 1,3,-1
 257 1249 l 1,4,-1
 1148 1249 l 1,5,-1
 1148 1063 l 1,6,-1
 789 0 l 1,7,-1
 535 0 l 1,8,-1
 926 1078 l 1,0,-1
EndSplineSet
EndChar

StartChar: four
Encoding: 52 52 59
Width: 1365
Flags: HW
LayerCount: 2
Fore
SplineSet
193 399 m 1,0,1
 488 1250 l 1,2,-1
 733 1250 l 1,3,-1
 435 384 l 1,4,-1
 826 384 l 1,5,-1
 826 846 l 1,6,-1
 1064 846 l 1,7,-1
 1064 384 l 1,8,-1
 1272 384 l 1,9,-1
 1272 214 l 1,10,-1
 1064 214 l 1,11,-1
 1064 0 l 1,12,-1
 826 0 l 1,13,-1
 826 214 l 1,14,-1
 193 214 l 1,15,-1
 193 399 l 1,0,1
EndSplineSet
EndChar

StartChar: N
Encoding: 78 78 60
Width: 1365
Flags: HW
LayerCount: 2
Fore
SplineSet
230 1516 m 1,0,-1
 467 1516 l 1,1,-1
 467 1149 l 1,2,-1
 840 1441 l 1,3,4
 906.839 1496.7 906.839 1496.7 941.42 1506.35 c 128,-1,5
 976 1516 976 1516 1008 1516 c 128,-1,6
 1040 1516 1040 1516 1074 1498.5 c 128,-1,7
 1108 1481 1108 1481 1133.5 1449.5 c 0,8,9
 1188 1382.18 1188 1382.18 1188 1284 c 2,10,-1
 1188 172 l 1,11,-1
 1413 172 l 1,12,13
 1405.12 101.125 1405.12 101.125 1354.5 50.5 c 128,-1,14
 1304 0 1304 0 1238 0 c 2,15,-1
 1130 0 l 2,16,17
 1053 0 1053 0 997.5 74 c 0,18,19
 943 146.667 943 146.667 943 252 c 2,20,-1
 943 1315 l 1,21,-1
 467 944 l 1,22,-1
 467 0 l 1,23,-1
 230 0 l 1,24,-1
 230 1516 l 1,0,-1
EndSplineSet
EndChar

StartChar: V
Encoding: 86 86 61
Width: 1365
Flags: HW
LayerCount: 2
Fore
SplineSet
294 1345 m 1,0,-1
 28 1345 l 1,1,2
 36 1415 36 1415 86.5 1465.5 c 128,-1,3
 137 1516 137 1516 203 1516 c 2,4,-1
 502 1516 l 1,5,-1
 815 171 l 1,6,-1
 1121 1516 l 1,7,-1
 1369 1516 l 1,8,-1
 997 0 l 1,9,-1
 635 0 l 1,10,-1
 294 1345 l 1,0,-1
EndSplineSet
EndChar

StartChar: X
Encoding: 88 88 62
Width: 1193
Flags: HW
LayerCount: 2
Fore
SplineSet
444 802 m 1,0,-1
 62 1516 l 1,1,-1
 311 1516 l 1,2,-1
 569 1033 l 1,3,-1
 830 1516 l 1,4,-1
 1079 1516 l 1,5,-1
 694 798 l 1,6,-1
 1029 171 l 1,7,-1
 1246 171 l 1,8,9
 1237.8 99.2269 1237.8 99.2269 1187.5 50 c 0,10,11
 1136.41 4.14859e-05 1136.41 4.14859e-05 1071 0 c 2,12,-1
 874 0 l 1,13,-1
 570 566 l 1,14,-1
 267 0 l 1,15,-1
 11 0 l 1,16,-1
 444 802 l 1,0,-1
EndSplineSet
EndChar

StartChar: Z
Encoding: 90 90 63
Width: 1193
Flags: HW
LayerCount: 2
Fore
SplineSet
165 176 m 1,0,-1
 832 1347 l 1,1,-1
 190 1347 l 1,2,-1
 190 1516 l 1,3,-1
 1106 1516 l 1,4,-1
 1106 1343 l 1,5,-1
 439 171 l 1,6,-1
 1183 172 l 1,7,8
 1175.12 101.125 1175.12 101.125 1124.5 50.5 c 128,-1,9
 1074 0 1074 0 1008 0 c 2,10,-1
 165 0 l 1,11,-1
 165 176 l 1,0,-1
EndSplineSet
EndChar

StartChar: S
Encoding: 83 83 64
Width: 1365
Flags: HW
LayerCount: 2
Fore
SplineSet
351 0 m 1,0,1
 359 70 359 70 409.5 120.5 c 128,-1,2
 460 171 460 171 526 171 c 2,3,-1
 893 171 l 1,4,-1
 893 414 l 1,5,-1
 369 675 l 2,6,7
 237 741 237 741 237 918 c 2,8,-1
 237 1262 l 2,9,10
 237 1368.76 237 1368.76 291.5 1442.5 c 0,11,12
 345.826 1516 345.826 1516 424 1516 c 2,13,-1
 977 1516 l 2,14,15
 1055.17 1516 1055.17 1516 1109.5 1442.5 c 0,16,17
 1165 1367.41 1165 1367.41 1165 1262 c 2,18,-1
 1165 966 l 1,19,-1
 926 966 l 1,20,-1
 926 1345 l 1,21,-1
 476 1345 l 1,22,-1
 476 871 l 1,23,-1
 1018 594 l 2,24,25
 1098.79 553.606 1098.79 553.606 1124 437 c 0,26,27
 1132 400 1132 400 1132 360 c 2,28,-1
 1132 252 l 2,29,30
 1132 148 1132 148 1076.5 74 c 128,-1,31
 1021 -1.19209e-06 1021 -1.19209e-06 944 0 c 2,32,-1
 351 0 l 1,0,1
EndSplineSet
EndChar

StartChar: ampersand
Encoding: 38 38 65
Width: 1365
Flags: HW
LayerCount: 2
Fore
SplineSet
159 633 m 2,0,1
 159 719.767 159 719.767 215 793.5 c 0,2,3
 283.622 883.853 283.622 883.853 410 904 c 1,4,-1
 379 946 l 2,5,6
 322 1023 322 1023 322 1119 c 2,7,-1
 322 1259 l 2,8,9
 322 1365.62 322 1365.62 378 1441 c 0,10,11
 433.714 1516 433.714 1516 514 1516 c 2,12,-1
 857 1516 l 2,13,14
 936.435 1516 936.435 1516 991.5 1441.5 c 0,15,16
 1046 1367.76 1046 1367.76 1046 1260 c 2,17,-1
 1046 1135 l 1,18,-1
 808 1135 l 1,19,-1
 808 1345 l 1,20,-1
 559 1345 l 1,21,-1
 559 1052 l 1,22,-1
 872 622 l 1,23,-1
 1071 944 l 1,24,-1
 1324 944 l 1,25,-1
 1008 434 l 1,26,-1
 1324 0 l 1,27,-1
 1067 0 l 1,28,-1
 890 243 l 1,29,-1
 740 0 l 1,30,-1
 350 0 l 2,31,32
 272.145 0 272.145 0 216 74.5 c 0,33,34
 159 150.135 159 150.135 159 254 c 2,35,-1
 159 633 l 2,0,1
593 171 m 1,36,-1
 753 431 l 1,37,-1
 539 726 l 1,38,-1
 410 726 l 1,39,-1
 410 171 l 1,40,-1
 593 171 l 1,36,-1
EndSplineSet
EndChar

StartChar: IJ
Encoding: 306 306 66
Width: 1365
Flags: HW
LayerCount: 2
Fore
SplineSet
300 0 m 1,0,1
 305.906 68.9062 305.906 68.9062 357.5 120.5 c 0,2,3
 408 171 408 171 474 171 c 2,4,-1
 953 171 l 1,5,-1
 953 1516 l 1,6,-1
 1192 1516 l 1,7,-1
 1192 254 l 2,8,9
 1192 148.808 1192 148.808 1136 74.5 c 128,-1,10
 1079.86 3.8249e-05 1079.86 3.8249e-05 1001 0 c 2,11,-1
 300 0 l 1,0,1
428 469 m 2,12,13
 349.145 469 349.145 469 293 543.5 c 128,-1,14
 237 617.808 237 617.808 237 723 c 2,15,-1
 237 1516 l 1,16,-1
 476 1516 l 1,17,-1
 476 640 l 1,18,-1
 804 640 l 1,19,20
 797.944 569.35 797.944 569.35 746.5 519 c 0,21,22
 695.413 469 695.413 469 630 469 c 2,23,-1
 428 469 l 2,12,13
EndSplineSet
EndChar

StartChar: period
Encoding: 46 46 67
Width: 855
Flags: HW
LayerCount: 2
Fore
SplineSet
259 156 m 256,0,1
 259 226 259 226 308 275 c 0,2,3
 358 325 358 325 427 325 c 256,4,5
 496 325 496 325 546 275 c 128,-1,6
 596 225 596 225 596 156 c 256,7,8
 596 87 596 87 546 37 c 0,9,10
 497 -12 497 -12 427 -12 c 128,-1,11
 357 -12 357 -12 308 37 c 128,-1,12
 259 86 259 86 259 156 c 256,0,1
EndSplineSet
EndChar

StartChar: acute
Encoding: 171 171 68
Width: 1233
Flags: HW
LayerCount: 2
Fore
SplineSet
366 1535 m 1,0,-1
 747 1809 l 2,1,2
 792.625 1841.38 792.625 1841.38 824.313 1841.38 c 128,-1,3
 856 1841.38 856 1841.38 878 1835.69 c 0,4,5
 932.142 1821.69 932.142 1821.69 962 1756 c 0,6,7
 974.857 1726.86 974.857 1726.86 974.857 1709.86 c 128,-1,8
 974.857 1692.86 974.857 1692.86 973.429 1673.43 c 128,-1,9
 972 1654 972 1654 955.5 1624.5 c 0,10,11
 920.52 1561.96 920.52 1561.96 851 1543 c 2,12,-1
 427 1430 l 1,13,-1
 366 1535 l 1,0,-1
EndSplineSet
EndChar

StartChar: grave
Encoding: 96 96 69
Width: 1233
Flags: HW
LayerCount: 2
Fore
SplineSet
335 1543 m 2,0,1
 265.48 1561.96 265.48 1561.96 230.5 1624.5 c 0,2,3
 211.143 1659.11 211.143 1659.11 211.143 1692.98 c 128,-1,4
 211.143 1726.86 211.143 1726.86 225.071 1757.93 c 0,5,6
 262.534 1841.5 262.534 1841.5 344.625 1841.5 c 0,7,8
 391.727 1841.5 391.727 1841.5 439 1809 c 1,9,-1
 820 1535 l 1,10,-1
 759 1430 l 1,11,-1
 335 1543 l 2,0,1
EndSplineSet
EndChar

StartChar: tilde
Encoding: 247 247 70
Width: 1470
Flags: HW
LayerCount: 2
Fore
SplineSet
321.5 1566 m 2,0,-1
 332 1614 l 1,1,2
 349.462 1701.31 349.462 1701.31 437.5 1760 c 0,3,4
 521.5 1816 521.5 1816 633 1816 c 0,5,6
 763.516 1816 763.516 1816 858 1715 c 0,7,8
 887 1684 887 1684 907 1647 c 1,9,-1
 1008 1647 l 1,10,-1
 1062 1757 l 1,11,-1
 1198 1757 l 1,12,13
 1193.87 1715.72 1193.87 1715.72 1188.94 1693.86 c 128,-1,14
 1184 1672 1184 1672 1177.5 1643.5 c 128,-1,15
 1171 1615 1171 1615 1142.5 1577.5 c 128,-1,16
 1114 1540 1114 1540 1073.5 1513.5 c 0,17,18
 990.208 1459 990.208 1459 880 1459 c 0,19,20
 741.613 1459 741.613 1459 645.5 1560 c 0,21,22
 616 1591 616 1591 596 1628 c 1,23,-1
 504 1628 l 1,24,-1
 449 1518 l 1,25,-1
 313 1518 l 1,26,27
 317 1546 317 1546 321.5 1566 c 2,0,-1
EndSplineSet
EndChar

StartChar: asciitilde
Encoding: 126 126 71
Width: 1365
Flags: HW
LayerCount: 2
Fore
SplineSet
168 519 m 1,0,1
 194.241 611.853 194.241 611.853 290 672.5 c 0,2,3
 385.526 733 385.526 733 508 733 c 0,4,5
 656 733 656 733 763 626 c 0,6,7
 796 593 796 593 818 554 c 1,8,-1
 975 554 l 1,9,-1
 1043 670 l 1,10,-1
 1187 670 l 1,11,-1
 1160 568 l 2,12,13
 1133.8 471.262 1133.8 471.262 1037.5 412 c 0,14,15
 943.25 354 943.25 354 820 354 c 0,16,17
 663.121 354 663.121 354 554.5 461 c 0,18,19
 521 494 521 494 498 533 c 1,20,-1
 351 533 l 1,21,-1
 282 417 l 1,22,-1
 138 417 l 1,23,-1
 168 519 l 1,0,1
EndSplineSet
EndChar

StartChar: dieresis
Encoding: 172 172 72
Width: 1588
Flags: HW
LayerCount: 2
Fore
SplineSet
1073 1459 m 0,0,1
 1038 1459 1038 1459 1007 1471 c 128,-1,2
 976 1483 976 1483 954 1505.5 c 0,3,4
 907 1553.57 907 1553.57 907 1627 c 128,-1,5
 907 1700.3 907 1700.3 954 1750.5 c 0,6,7
 1000.34 1800 1000.34 1800 1074 1800 c 0,8,9
 1144.11 1800 1144.11 1800 1191.5 1750.5 c 0,10,11
 1240 1699.84 1240 1699.84 1240 1627 c 128,-1,12
 1240 1554 1240 1554 1191.5 1505.5 c 0,13,14
 1145 1459 1145 1459 1073 1459 c 0,0,1
539 1459 m 0,15,16
 504 1459 504 1459 473 1471 c 128,-1,17
 442 1483 442 1483 420 1505.5 c 0,18,19
 373 1553.57 373 1553.57 373 1627 c 128,-1,20
 373 1700.3 373 1700.3 420 1750.5 c 0,21,22
 466.34 1800 466.34 1800 540 1800 c 0,23,24
 610.106 1800 610.106 1800 657.5 1750.5 c 0,25,26
 706 1699.84 706 1699.84 706 1627 c 128,-1,27
 706 1554 706 1554 657.5 1505.5 c 0,28,29
 611 1459 611 1459 539 1459 c 0,15,16
EndSplineSet
EndChar

StartChar: cedilla
Encoding: 252 252 73
Width: 1132
Flags: HW
LayerCount: 2
Fore
SplineSet
578 0 m 1,0,-1
 578 -96 l 1,1,-1
 705 -96 l 2,2,3
 771.482 -96 771.482 -96 820.5 -157 c 0,4,5
 869 -217.356 869 -217.356 869 -303 c 0,6,7
 869 -388.222 869 -388.222 820.5 -447.5 c 0,8,9
 771 -508 771 -508 705 -508 c 2,10,-1
 220 -508 l 1,11,12
 228.2 -436.251 228.2 -436.251 277.5 -388 c 0,13,14
 328.587 -338 328.587 -338 395 -338 c 2,15,-1
 664 -338 l 1,16,-1
 664 -222 l 1,17,-1
 458 -222 l 1,18,-1
 458 0 l 1,19,-1
 578 0 l 1,0,-1
EndSplineSet
EndChar

StartChar: circumflex
Encoding: 246 246 74
Width: 1393
Flags: HW
LayerCount: 2
Fore
SplineSet
366 1415 m 1,0,1
 286 1521 l 1,2,-1
 551 1774 l 1,3,4
 630.842 1848 630.842 1848 708 1848 c 128,-1,5
 785.205 1848 785.205 1848 863 1774 c 2,6,-1
 1128 1521 l 1,7,8
 1116 1505 1116 1505 1105.5 1492.5 c 0,9,10
 1057.02 1432.36 1057.02 1432.36 1044 1415 c 1,11,-1
 708 1607 l 1,12,-1
 366 1415 l 1,0,1
EndSplineSet
EndChar

StartChar: macron
Encoding: 248 248 75
Width: 1391
Flags: HW
LayerCount: 2
Fore
SplineSet
250 1399 m 1,0,1
 258.129 1470.13 258.129 1470.13 307.5 1519.5 c 0,2,3
 358 1570 358 1570 425 1570 c 2,4,-1
 1152 1570 l 1,5,6
 1146 1500 1146 1500 1095 1449 c 0,7,8
 1045 1399 1045 1399 978 1399 c 2,9,-1
 250 1399 l 1,0,1
EndSplineSet
EndChar

StartChar: ring
Encoding: 251 251 76
AltUni2: 0002da.ffffffff.0
Width: 1286
Flags: HW
LayerCount: 2
Fore
SplineSet
641 1297 m 256,0,1
 520.43 1297 520.43 1297 437 1381.5 c 0,2,3
 353 1466.58 353 1466.58 353 1586 c 0,4,5
 353 1705 353 1705 437 1789 c 0,6,7
 522 1874 522 1874 641 1874 c 256,8,9
 759.41 1874 759.41 1874 845.5 1789 c 0,10,11
 930 1705.57 930 1705.57 930 1586 c 0,12,13
 930 1466 930 1466 845.5 1381.5 c 128,-1,14
 761 1297 761 1297 641 1297 c 256,0,1
641 1451 m 256,15,16
 729.143 1451 729.143 1451 764.5 1533.5 c 0,17,18
 775 1558 775 1558 775 1585.5 c 128,-1,19
 775 1613 775 1613 764.5 1637.5 c 128,-1,20
 754 1662 754 1662 736 1681 c 0,21,22
 697.158 1722 697.158 1722 641 1722 c 256,23,24
 585.842 1722 585.842 1722 547 1681 c 128,-1,25
 508 1639.83 508 1639.83 508 1598.92 c 128,-1,26
 508 1558 508 1558 518.5 1533.5 c 128,-1,27
 529 1509 529 1509 547 1490.5 c 0,28,29
 585.432 1451 585.432 1451 641 1451 c 256,15,16
EndSplineSet
EndChar

StartChar: commaaccent
Encoding: 65539 -1 77
Width: 1050
Flags: HW
LayerCount: 2
Fore
SplineSet
459 -332 m 1,0,1
 367 -290.381 367 -290.381 367 -207 c 0,2,3
 367 -136 367 -136 415.5 -87.5 c 128,-1,4
 464 -39 464 -39 536 -39 c 0,5,6
 605.422 -39 605.422 -39 655 -87.5 c 0,7,8
 705 -136.413 705 -136.413 705 -193.707 c 128,-1,9
 705 -251 705 -251 688.5 -291.5 c 128,-1,10
 672 -332 672 -332 642.5 -374 c 128,-1,11
 613 -416 613 -416 573 -460.5 c 2,12,-1
 485 -556 l 1,13,-1
 391 -511 l 1,14,-1
 459 -332 l 1,0,1
EndSplineSet
EndChar

StartChar: grave.cap
Encoding: 65540 -1 78
Width: 1233
Flags: HW
LayerCount: 2
Fore
SplineSet
249 1729 m 2,0,1
 186.622 1745.63 186.622 1745.63 155 1801.5 c 0,2,3
 137.121 1833.09 137.121 1833.09 137.121 1863.39 c 128,-1,4
 137.121 1893.7 137.121 1893.7 149.561 1921.85 c 0,5,6
 183.099 1997.75 183.099 1997.75 257.625 1997.75 c 0,7,8
 300.35 1997.75 300.35 1997.75 342 1968 c 2,9,-1
 685 1721 l 1,10,-1
 630 1627 l 1,11,-1
 249 1729 l 2,0,1
EndSplineSet
EndChar

StartChar: acute.cap
Encoding: 65541 -1 79
Width: 1233
Flags: HW
LayerCount: 2
Fore
SplineSet
352 1719 m 1,0,-1
 695 1966 l 2,1,2
 736.482 1995.63 736.482 1995.63 764.5 1995.63 c 128,-1,3
 792.518 1995.63 792.518 1995.63 812.259 1990.31 c 0,4,5
 860.287 1977.38 860.287 1977.38 888 1918 c 0,6,7
 899.879 1891.7 899.879 1891.7 899.879 1876.41 c 128,-1,8
 899.879 1861.12 899.879 1861.12 898.439 1843.56 c 128,-1,9
 897 1826 897 1826 882 1799.5 c 0,10,11
 850.378 1743.63 850.378 1743.63 788 1727 c 2,12,-1
 407 1625 l 1,13,-1
 352 1719 l 1,0,-1
EndSplineSet
EndChar

StartChar: circumflex.cap
Encoding: 65542 -1 80
Width: 1062
Flags: HW
LayerCount: 2
Fore
SplineSet
218 1611 m 1,0,1
 146 1706 l 1,2,-1
 385 1934 l 2,3,4
 452.886 2000 452.886 2000 526 2000 c 0,5,6
 597.114 2000 597.114 2000 665 1934 c 2,7,-1
 904 1706 l 1,8,9
 893 1691 893 1691 883.5 1679.5 c 2,10,-1
 828 1611 l 1,11,-1
 526 1783 l 1,12,-1
 218 1611 l 1,0,1
EndSplineSet
EndChar

StartChar: dieresis.cap
Encoding: 65543 -1 81
Width: 1588
Flags: HW
LayerCount: 2
Fore
SplineSet
830.5 1682 m 128,-1,1
 803 1671 803 1671 771 1671 c 128,-1,2
 739 1671 739 1671 711.5 1682 c 128,-1,3
 684 1693 684 1693 664 1713 c 0,4,5
 622 1755 622 1755 622 1805 c 128,-1,6
 622 1855 622 1855 633 1883.5 c 128,-1,7
 644 1912 644 1912 664 1933 c 0,8,9
 706.857 1978 706.857 1978 772 1978 c 0,10,11
 835.143 1978 835.143 1978 878 1933 c 0,12,13
 922 1886.8 922 1886.8 922 1837.4 c 128,-1,14
 922 1788 922 1788 910 1760.5 c 128,-1,15
 898 1733 898 1733 878 1713 c 128,-1,0
 858 1693 858 1693 830.5 1682 c 128,-1,1
350 1682 m 128,-1,17
 323 1671 323 1671 291 1671 c 128,-1,18
 259 1671 259 1671 231.5 1682 c 128,-1,19
 204 1693 204 1693 183.5 1713 c 0,20,21
 141 1754.46 141 1754.46 141 1804.73 c 128,-1,22
 141 1855 141 1855 152 1883.5 c 128,-1,23
 163 1912 163 1912 183.5 1933 c 0,24,25
 227.429 1978 227.429 1978 292 1978 c 0,26,27
 354.143 1978 354.143 1978 397 1933 c 0,28,29
 441 1886.8 441 1886.8 441 1837.4 c 128,-1,30
 441 1788 441 1788 429 1760.5 c 128,-1,31
 417 1733 417 1733 397 1713 c 128,-1,16
 377 1693 377 1693 350 1682 c 128,-1,17
EndSplineSet
EndChar

StartChar: caron.cap
Encoding: 65544 -1 82
Width: 1393
Flags: HW
LayerCount: 2
Fore
SplineSet
840 2000 m 1,0,-1
 912 1905 l 1,1,-1
 673 1677 l 2,2,3
 605.114 1611 605.114 1611 532 1611 c 0,4,5
 460.886 1611 460.886 1611 393 1677 c 2,6,-1
 154 1905 l 1,7,8
 165 1920 165 1920 174.5 1931.5 c 2,9,-1
 230 2000 l 1,10,-1
 532 1828 l 1,11,-1
 840 2000 l 1,0,-1
EndSplineSet
EndChar

StartChar: tilde.cap
Encoding: 65546 -1 84
Width: 1030
Flags: HW
LayerCount: 2
Fore
SplineSet
120 1732 m 1,0,-1
 137 1818 l 2,1,2
 152.944 1897.72 152.944 1897.72 232 1949 c 0,3,4
 310.625 2000 310.625 2000 408 2000 c 0,5,6
 526.5 2000 526.5 2000 611 1909 c 0,7,8
 637 1881 637 1881 655 1848 c 1,9,-1
 746 1848 l 1,10,-1
 794 1947 l 1,11,-1
 917 1947 l 1,12,13
 913.6 1916.4 913.6 1916.4 908.8 1893.2 c 2,14,-1
 902 1861 l 1,15,16
 881.988 1778.95 881.988 1778.95 804.5 1728 c 0,17,18
 729.979 1679 729.979 1679 631 1679 c 0,19,20
 507.75 1679 507.75 1679 420 1770 c 0,21,22
 393 1798 393 1798 375 1831 c 1,23,-1
 292 1831 l 1,24,-1
 243 1732 l 1,25,-1
 120 1732 l 1,0,-1
EndSplineSet
EndChar

StartChar: comma
Encoding: 44 44 85
Width: 855
Flags: HW
LayerCount: 2
Fore
SplineSet
341 12 m 1,0,1
 259 60.7568 259 60.7568 259 157 c 0,2,3
 259 227.422 259 227.422 307.5 277 c 0,4,5
 355.435 326 355.435 326 428 326 c 0,6,7
 498 326 498 326 547 277 c 0,8,9
 597 227 597 227 597 170 c 128,-1,10
 597 113 597 113 587.5 75 c 128,-1,11
 578 37 578 37 560 1 c 0,12,13
 527.808 -63.3846 527.808 -63.3846 458 -148 c 1,14,-1
 344 -291 l 1,15,-1
 250 -246 l 1,16,-1
 341 12 l 1,0,1
EndSplineSet
EndChar

StartChar: quotedblright
Encoding: 211 211 88
Width: 1161
Flags: HW
LayerCount: 2
Fore
SplineSet
789 1201 m 1,0,1
 707 1249.76 707 1249.76 707 1346 c 0,2,3
 707 1416.42 707 1416.42 755.5 1466 c 0,4,5
 803.435 1515 803.435 1515 876 1515 c 0,6,7
 946 1515 946 1515 995 1466 c 0,8,9
 1045 1416 1045 1416 1045 1359 c 128,-1,10
 1045 1302 1045 1302 1035.5 1264.5 c 128,-1,11
 1026 1227 1026 1227 1008 1190.5 c 0,12,13
 979.714 1133.14 979.714 1133.14 906 1041 c 2,14,-1
 792 898 l 1,15,-1
 698 943 l 1,16,-1
 789 1201 l 1,0,1
274 1201 m 1,17,18
 192 1249.76 192 1249.76 192 1346 c 0,19,20
 192 1416.42 192 1416.42 240.5 1466 c 0,21,22
 288.435 1515 288.435 1515 361 1515 c 0,23,24
 431 1515 431 1515 480 1466 c 0,25,26
 530 1416 530 1416 530 1359 c 128,-1,27
 530 1302 530 1302 520.5 1264.5 c 128,-1,28
 511 1227 511 1227 493 1190.5 c 0,29,30
 464.714 1133.14 464.714 1133.14 391 1041 c 2,31,-1
 277 898 l 1,32,-1
 183 943 l 1,33,-1
 274 1201 l 1,17,18
EndSplineSet
EndChar

StartChar: quotedblleft
Encoding: 210 210 89
Width: 1161
Flags: HW
LayerCount: 2
Fore
SplineSet
914 1212 m 1,0,1
 996 1163.24 996 1163.24 996 1067 c 0,2,3
 996 996.578 996 996.578 947.5 947 c 0,4,5
 899.565 898 899.565 898 827 898 c 0,6,7
 757 898 757 898 708 947 c 0,8,9
 658 997 658 997 658 1053.5 c 128,-1,10
 658 1110 658 1110 667.5 1148 c 128,-1,11
 677 1186 677 1186 695 1222.5 c 128,-1,12
 713 1259 713 1259 739 1295 c 2,13,-1
 797 1372 l 1,14,-1
 911 1515 l 1,15,-1
 1005 1470 l 1,16,-1
 914 1212 l 1,0,1
399 1212 m 1,17,18
 481 1163.24 481 1163.24 481 1067 c 0,19,20
 481 996.578 481 996.578 432.5 947 c 0,21,22
 384.565 898 384.565 898 312 898 c 0,23,24
 242 898 242 898 193 947 c 0,25,26
 143 997 143 997 143 1053.5 c 128,-1,27
 143 1110 143 1110 152.5 1148 c 128,-1,28
 162 1186 162 1186 180 1222.5 c 128,-1,29
 198 1259 198 1259 224 1295 c 2,30,-1
 282 1372 l 1,31,-1
 396 1515 l 1,32,-1
 490 1470 l 1,33,-1
 399 1212 l 1,17,18
EndSplineSet
EndChar

StartChar: guilsinglleft
Encoding: 220 220 90
Width: 1162
Flags: HW
LayerCount: 2
Fore
SplineSet
393 393 m 2,0,1
 334 459.08 334 459.08 334 529 c 0,2,3
 334 595.56 334 595.56 393 664 c 2,4,-1
 709 1029 l 1,5,-1
 868 1029 l 1,6,-1
 622 530 l 1,7,-1
 868 31 l 1,8,-1
 709 31 l 1,9,-1
 393 393 l 2,0,1
EndSplineSet
EndChar

StartChar: guilsinglright
Encoding: 221 221 91
Width: 1162
Flags: HW
LayerCount: 2
Fore
SplineSet
600 530 m 1,0,-1
 354 1029 l 1,1,-1
 513 1029 l 1,2,-1
 829 664 l 2,3,4
 888 595.56 888 595.56 888 541.28 c 0,5,6
 888 459.08 888 459.08 829 393 c 2,7,-1
 513 31 l 1,8,-1
 354 31 l 1,9,-1
 600 530 l 1,0,-1
EndSplineSet
EndChar

StartChar: guillemotleft
Encoding: 199 199 92
Width: 1709
Flags: HW
LayerCount: 2
Fore
SplineSet
940 393 m 2,0,1
 881 459.08 881 459.08 881 529 c 0,2,3
 881 595.56 881 595.56 940 664 c 2,4,-1
 1256 1029 l 1,5,-1
 1415 1029 l 1,6,-1
 1169 530 l 1,7,-1
 1415 31 l 1,8,-1
 1256 31 l 1,9,-1
 940 393 l 2,0,1
393 393 m 2,10,11
 334 459.08 334 459.08 334 529 c 0,12,13
 334 595.56 334 595.56 393 664 c 2,14,-1
 709 1029 l 1,15,-1
 868 1029 l 1,16,-1
 622 530 l 1,17,-1
 868 31 l 1,18,-1
 709 31 l 1,19,-1
 393 393 l 2,10,11
EndSplineSet
EndChar

StartChar: guillemotright
Encoding: 200 200 93
Width: 1709
Flags: HW
LayerCount: 2
Fore
SplineSet
1147 530 m 1,0,-1
 901 1029 l 1,1,-1
 1060 1029 l 1,2,-1
 1376 664 l 2,3,4
 1435 595.56 1435 595.56 1435 541.28 c 0,5,6
 1435 459.08 1435 459.08 1376 393 c 2,7,-1
 1060 31 l 1,8,-1
 901 31 l 1,9,-1
 1147 530 l 1,0,-1
600 530 m 1,10,-1
 354 1029 l 1,11,-1
 513 1029 l 1,12,-1
 829 664 l 2,13,14
 888 595.56 888 595.56 888 541.28 c 0,15,16
 888 459.08 888 459.08 829 393 c 2,17,-1
 513 31 l 1,18,-1
 354 31 l 1,19,-1
 600 530 l 1,10,-1
EndSplineSet
EndChar

StartChar: numbersign
Encoding: 35 35 94
Width: 1365
Flags: HW
LayerCount: 2
Fore
SplineSet
1251 940 m 1,0,-1
 1236 764 l 1,1,-1
 1011 764 l 1,2,-1
 985 465 l 1,3,-1
 1211 465 l 1,4,-1
 1194 290 l 1,5,-1
 967 290 l 1,6,7
 964 260 964 260 961 222.5 c 2,8,-1
 955 145.5 l 2,9,10
 952 106 952 106 949.5 68 c 128,-1,11
 947 30 947 30 944 0 c 1,12,-1
 793 0 l 1,13,-1
 816 290 l 1,14,-1
 491 290 l 1,15,-1
 465 0 l 1,16,-1
 312 0 l 1,17,-1
 340 290 l 1,18,-1
 114 290 l 1,19,-1
 129 465 l 1,20,-1
 354 465 l 1,21,-1
 381 764 l 1,22,-1
 156 764 l 1,23,24
 160 813 160 813 164.5 852.5 c 2,25,-1
 174 940 l 1,26,-1
 394 940 l 1,27,-1
 421 1230 l 1,28,-1
 571 1230 l 1,29,-1
 548 940 l 1,30,-1
 874 940 l 1,31,32
 877 970 877 970 879.5 1007.5 c 128,-1,33
 882 1045 882 1045 885 1084.5 c 2,34,-1
 891 1162 l 2,35,36
 894 1200 894 1200 897 1230 c 1,37,-1
 1050 1230 l 1,38,-1
 1027 940 l 1,39,-1
 1251 940 l 1,0,-1
832 465 m 1,40,-1
 856 764 l 1,41,-1
 531 764 l 1,42,-1
 508 465 l 1,43,-1
 832 465 l 1,40,-1
EndSplineSet
EndChar

StartChar: sterling
Encoding: 163 163 95
Width: 1365
Flags: HW
LayerCount: 2
Fore
SplineSet
162 0 m 1,0,1
 168.154 69.7466 168.154 69.7466 219.5 120 c 0,2,3
 271.609 171 271.609 171 337 171 c 2,4,-1
 425 171 l 1,5,-1
 425 537 l 1,6,-1
 189 537 l 1,7,8
 195.154 606.747 195.154 606.747 246.5 657 c 0,9,10
 298.609 708 298.609 708 364 708 c 2,11,-1
 425 708 l 1,12,-1
 425 1091 l 2,13,14
 425 1196.41 425 1196.41 480.5 1271.5 c 0,15,16
 534.826 1345 534.826 1345 614 1345 c 2,17,-1
 951 1345 l 2,18,19
 1030.17 1345 1030.17 1345 1084.5 1271.5 c 0,20,21
 1140 1196.41 1140 1196.41 1140 1091 c 2,22,-1
 1140 1000 l 1,23,-1
 902 1000 l 1,24,-1
 902 1186 l 1,25,-1
 663 1186 l 1,26,-1
 663 708 l 1,27,-1
 1076 708 l 1,28,29
 1076 638.776 1076 638.776 1021.5 586.5 c 0,30,31
 969.894 537 969.894 537 901 537 c 2,32,-1
 663 537 l 1,33,-1
 663 416 l 2,34,35
 663 321.163 663 321.163 612.5 246 c 0,36,37
 568.21 180.08 568.21 180.08 516 171 c 1,38,-1
 1283 171 l 1,39,40
 1283 101.776 1283 101.776 1228.5 49.5 c 0,41,42
 1176.89 5.67707e-05 1176.89 5.67707e-05 1108 0 c 2,43,-1
 162 0 l 1,0,1
EndSplineSet
EndChar

StartChar: Euro
Encoding: 219 219 96
Width: 1365
Flags: HW
LayerCount: 2
Fore
SplineSet
331 434 m 1,0,-1
 134 434 l 1,1,2
 140.154 503.747 140.154 503.747 191.5 554 c 0,3,4
 243.609 605 243.609 605 309 605 c 2,5,-1
 331 605 l 1,6,-1
 331 719 l 1,7,-1
 134 719 l 1,8,9
 140.154 788.747 140.154 788.747 191.5 839 c 0,10,11
 243.609 890 243.609 890 309 890 c 2,12,-1
 331 890 l 1,13,-1
 331 1091 l 2,14,15
 331 1196.41 331 1196.41 386.5 1271.5 c 0,16,17
 440.826 1345 440.826 1345 519 1345 c 2,18,-1
 1099 1345 l 2,19,20
 1178.61 1345 1178.61 1345 1234 1271.5 c 0,21,22
 1290 1197.19 1290 1197.19 1290 1091 c 1,23,-1
 1289 1030 l 1,24,-1
 1051 1030 l 1,25,-1
 1051 1176 l 1,26,-1
 570 1176 l 1,27,-1
 570 890 l 1,28,-1
 1123 890 l 1,29,30
 1123 820.776 1123 820.776 1068.5 768.5 c 0,31,32
 1016.89 719 1016.89 719 948 719 c 2,33,-1
 570 719 l 1,34,-1
 570 605 l 1,35,-1
 1021 605 l 1,36,37
 1021 535.776 1021 535.776 966.5 483.5 c 0,38,39
 914.894 434 914.894 434 846 434 c 2,40,-1
 570 434 l 1,41,-1
 570 171 l 1,42,-1
 1051 171 l 1,43,-1
 1051 317 l 1,44,-1
 1289 317 l 1,45,-1
 1289 252 l 2,46,47
 1289 147.231 1289 147.231 1233 74 c 0,48,49
 1176.41 -2.76091e-05 1176.41 -2.76091e-05 1099 0 c 2,50,-1
 519 0 l 2,51,52
 442 0 442 0 386.5 74 c 128,-1,53
 331 148 331 148 331 252 c 2,54,-1
 331 434 l 1,0,-1
EndSplineSet
EndChar

StartChar: yen
Encoding: 180 180 97
Width: 1365
Flags: HW
LayerCount: 2
Fore
SplineSet
236 294 m 1,0,1
 242.154 363.747 242.154 363.747 293.5 414 c 0,2,3
 345.609 465 345.609 465 411 465 c 2,4,-1
 601 465 l 1,5,-1
 601 570 l 1,6,-1
 236 570 l 1,7,8
 242.154 639.747 242.154 639.747 293.5 690 c 0,9,10
 345.609 741 345.609 741 411 741 c 2,11,-1
 515 741 l 1,12,-1
 182 1350 l 1,13,-1
 437 1350 l 1,14,-1
 723 798 l 1,15,-1
 1007 1350 l 1,16,-1
 1263 1350 l 1,17,-1
 928 741 l 1,18,-1
 1225 741 l 1,19,20
 1225 671.776 1225 671.776 1170.5 619.5 c 0,21,22
 1118.89 570 1118.89 570 1050 570 c 2,23,-1
 840 570 l 1,24,-1
 840 465 l 1,25,-1
 1225 465 l 1,26,27
 1225 395.776 1225 395.776 1170.5 343.5 c 0,28,29
 1118.89 294 1118.89 294 1050 294 c 2,30,-1
 840 294 l 1,31,-1
 840 0 l 1,32,-1
 601 0 l 1,33,-1
 601 294 l 1,34,-1
 236 294 l 1,0,1
EndSplineSet
EndChar

StartChar: dollar
Encoding: 36 36 98
Width: 1365
Flags: HW
LayerCount: 2
Fore
SplineSet
263 357 m 1,0,-1
 502 357 l 1,1,-1
 502 171 l 1,2,-1
 649 171 l 1,3,-1
 649 610 l 1,4,-1
 395 737 l 2,5,6
 263 803 263 803 263 980 c 2,7,-1
 263 1092 l 2,8,9
 263 1198.76 263 1198.76 317.5 1272.5 c 0,10,11
 371.826 1346 371.826 1346 450 1346 c 2,12,-1
 650 1346 l 1,13,-1
 650 1565 l 1,14,-1
 806 1565 l 1,15,-1
 806 1346 l 1,16,-1
 993 1346 l 2,17,18
 1071.17 1346 1071.17 1346 1125.5 1272.5 c 0,19,20
 1181 1197.41 1181 1197.41 1181 1092 c 2,21,-1
 1181 989 l 1,22,-1
 942 989 l 1,23,-1
 942 1175 l 1,24,-1
 806 1175 l 1,25,-1
 806 749 l 1,26,-1
 1049 628 l 2,27,28
 1181 562 1181 562 1181 385 c 2,29,-1
 1181 254 l 2,30,31
 1181 147.235 1181 147.235 1126.5 73.5 c 0,32,33
 1072.17 5.08707e-05 1072.17 5.08707e-05 994 0 c 2,34,-1
 806 0 l 1,35,-1
 806 -217 l 1,36,-1
 649 -217 l 1,37,-1
 649 0 l 1,38,-1
 451 0 l 2,39,40
 372.826 0 372.826 0 318.5 73.5 c 0,41,42
 263 148.588 263 148.588 263 254 c 2,43,-1
 263 357 l 1,0,-1
650 827 m 1,44,-1
 650 1175 l 1,45,-1
 502 1175 l 1,46,-1
 502 903 l 1,47,-1
 650 827 l 1,44,-1
942 171 m 1,48,-1
 942 462 l 1,49,-1
 806 531 l 1,50,-1
 806 171 l 1,51,-1
 942 171 l 1,48,-1
EndSplineSet
EndChar

StartChar: at
Encoding: 64 64 99
Width: 2394
Flags: HW
LayerCount: 2
Fore
SplineSet
283 1221 m 2,0,1
 283 1322.46 283 1322.46 349.5 1395.5 c 0,2,3
 414.597 1467 414.597 1467 507 1467 c 2,4,-1
 1965 1467 l 2,5,6
 2058.84 1467 2058.84 1467 2125 1395.5 c 128,-1,7
 2191 1324.18 2191 1324.18 2191 1221 c 2,8,-1
 2191 252 l 2,9,10
 2191 141.81 2191 141.81 2121.5 69 c 0,11,12
 2055.64 0.000114307 2055.64 0.000114307 1969 0 c 2,13,-1
 1605 0 l 2,14,15
 1556 0 1556 0 1512 33.5 c 128,-1,16
 1468 67 1468 67 1439 124 c 1,17,18
 1410 67 1410 67 1366 33.5 c 128,-1,19
 1322 0 1322 0 1273 0 c 2,20,-1
 1000 0 l 2,21,22
 921 0 921 0 865.5 74 c 128,-1,23
 810 148 810 148 810 251 c 2,24,-1
 810 764 l 2,25,26
 810 884.759 810 884.759 872 966 c 0,27,28
 933.816 1047 933.816 1047 1026 1047 c 2,29,-1
 1670 1047 l 1,30,-1
 1670 171 l 1,31,-1
 1997 171 l 1,32,-1
 1997 1323 l 1,33,-1
 475 1323 l 1,34,-1
 475 -244 l 1,35,-1
 1755 -244 l 1,36,37
 1714.47 -346.876 1714.47 -346.876 1612 -380.5 c 0,38,39
 1580 -391 1580 -391 1545 -391 c 2,40,-1
 507 -391 l 2,41,42
 415.507 -391 415.507 -391 349.5 -318.5 c 0,43,44
 283 -245.459 283 -245.459 283 -144 c 2,45,-1
 283 1221 l 2,0,1
1432 171 m 1,46,-1
 1432 876 l 1,47,-1
 1048 876 l 1,48,-1
 1048 171 l 1,49,-1
 1432 171 l 1,46,-1
EndSplineSet
EndChar

StartChar: ae
Encoding: 190 190 100
Width: 2008
Flags: HW
LayerCount: 2
Fore
SplineSet
237 765 m 2,0,1
 237 886.492 237 886.492 299.5 967 c 0,2,3
 362.382 1048 362.382 1048 454 1048 c 2,4,-1
 1016 1048 l 1,5,-1
 1016 907 l 1,6,7
 1039 970 1039 970 1084 1008.5 c 128,-1,8
 1129 1047 1129 1047 1186 1047 c 2,9,-1
 1611 1047 l 2,10,11
 1688.86 1047 1688.86 1047 1745 972.5 c 128,-1,12
 1801 898.192 1801 898.192 1801 793 c 2,13,-1
 1801 460 l 1,14,-1
 1129 460 l 1,15,-1
 1129 171 l 1,16,-1
 1853 171 l 1,17,18
 1844.8 99.2269 1844.8 99.2269 1794.5 50 c 0,19,20
 1743.41 4.14859e-05 1743.41 4.14859e-05 1678 0 c 2,21,-1
 1080 0 l 2,22,23
 1001.82 0 1001.82 0 946 73 c 0,24,25
 890 146.231 890 146.231 890 251 c 1,26,-1
 638 33 l 2,27,28
 600 0 600 0 550 0 c 2,29,-1
 435 0 l 2,30,31
 354.765 0 354.765 0 296 74 c 0,32,33
 237 148.296 237 148.296 237 252 c 2,34,-1
 237 765 l 2,0,1
1562 600 m 1,35,-1
 1562 876 l 1,36,-1
 1129 876 l 1,37,-1
 1129 600 l 1,38,-1
 1562 600 l 1,35,-1
570 172 m 1,39,-1
 890 453 l 1,40,-1
 890 876 l 1,41,-1
 477 876 l 1,42,-1
 477 172 l 1,43,-1
 570 172 l 1,39,-1
EndSplineSet
EndChar

StartChar: quotesingle
Encoding: 39 39 102
Width: 855
Flags: HW
LayerCount: 2
Fore
SplineSet
291 1321 m 1,0,1
 286 1343.5 286 1343.5 286 1371.25 c 128,-1,2
 286 1399 286 1399 296.5 1426 c 128,-1,3
 307 1453 307 1453 326 1472.5 c 0,4,5
 367.41 1515 367.41 1515 411.205 1515 c 128,-1,6
 455 1515 455 1515 481 1503.5 c 128,-1,7
 507 1492 507 1492 526.5 1472 c 0,8,9
 568 1429.44 568 1429.44 568 1370 c 0,10,11
 568 1343 568 1343 564 1319 c 2,12,-1
 476 822 l 1,13,-1
 376 822 l 1,14,-1
 291 1321 l 1,0,1
EndSplineSet
EndChar

StartChar: exclam
Encoding: 33 33 103
Width: 855
Flags: HW
LayerCount: 2
Fore
SplineSet
268 1282 m 2,0,1
 262 1324 262 1324 262 1358.5 c 128,-1,2
 262 1393 262 1393 274.5 1427.5 c 128,-1,3
 287 1462 287 1462 308.5 1487.5 c 0,4,5
 355.294 1543 355.294 1543 422 1543 c 256,6,7
 490.412 1543 490.412 1543 538.5 1488.5 c 0,8,9
 586 1434.67 586 1434.67 586 1356 c 0,10,11
 586 1324 586 1324 581 1279 c 2,12,-1
 480 505 l 1,13,-1
 365 505 l 1,14,-1
 268 1282 l 2,0,1
259 157 m 256,15,16
 259 227 259 227 308 276 c 0,17,18
 358 326 358 326 427 326 c 256,19,20
 496 326 496 326 546 276 c 128,-1,21
 596 226 596 226 596 157 c 256,22,23
 596 88 596 88 546 38 c 0,24,25
 497 -11 497 -11 427 -11 c 128,-1,26
 357 -11 357 -11 308 38 c 128,-1,27
 259 87 259 87 259 157 c 256,15,16
EndSplineSet
EndChar

StartChar: question
Encoding: 63 63 106
Width: 1193
Flags: HW
LayerCount: 2
Fore
SplineSet
443 645 m 2,0,1
 443 767.55 443 767.55 506 840 c 0,2,3
 526 863 526 863 551 876 c 2,4,-1
 801 1003 l 1,5,-1
 801 1344 l 1,6,-1
 391 1344 l 1,7,-1
 391 1131 l 1,8,-1
 152 1131 l 1,9,-1
 152 1262 l 2,10,11
 152 1366.41 152 1366.41 207.5 1441.5 c 0,12,13
 262.565 1516 262.565 1516 342 1516 c 2,14,-1
 850 1516 l 2,15,16
 929.435 1516 929.435 1516 984.5 1441.5 c 0,17,18
 1040 1366.41 1040 1366.41 1040 1262 c 2,19,-1
 1040 1054 l 2,20,21
 1040 933.581 1040 933.581 970.5 856 c 0,22,23
 949 832 949 832 924 819 c 2,24,-1
 681 695 l 1,25,-1
 681 521 l 1,26,-1
 443 521 l 1,27,-1
 443 645 l 2,0,1
395 157 m 256,28,29
 395 227 395 227 444 276 c 0,30,31
 494 326 494 326 563 326 c 256,32,33
 632 326 632 326 682 276 c 128,-1,34
 732 226 732 226 732 157 c 256,35,36
 732 88 732 88 682 38 c 0,37,38
 633 -11 633 -11 563 -11 c 128,-1,39
 493 -11 493 -11 444 38 c 128,-1,40
 395 87 395 87 395 157 c 256,28,29
EndSplineSet
EndChar

StartChar: mu
Encoding: 181 181 107
AltUni2: 0003bc.ffffffff.0
Width: 1365
Flags: HW
LayerCount: 2
Fore
SplineSet
869 107 m 1,0,1
 806.94 5.16061e-06 806.94 5.16061e-06 712 0 c 2,2,-1
 456 0 l 1,3,-1
 456 -285 l 2,4,5
 456 -391.765 456 -391.765 401.5 -465.5 c 0,6,7
 345.696 -541 345.696 -541 269 -541 c 2,8,-1
 217 -541 l 1,9,-1
 217 1047 l 1,10,-1
 456 1047 l 1,11,-1
 456 171 l 1,12,-1
 869 171 l 1,13,-1
 869 1047 l 1,14,-1
 1107 1047 l 1,15,-1
 1107 171 l 1,16,-1
 1318 171 l 1,17,18
 1309.8 99.2269 1309.8 99.2269 1259.5 50 c 0,19,20
 1208.41 4.14859e-05 1208.41 4.14859e-05 1143 0 c 2,21,-1
 869 0 l 1,22,-1
 869 107 l 1,0,1
EndSplineSet
EndChar

StartChar: slash
Encoding: 47 47 108
Width: 1245
Flags: HW
LayerCount: 2
Fore
SplineSet
163 -176 m 1,0,-1
 910 1769 l 1,1,-1
 1081 1769 l 1,2,-1
 334 -176 l 1,3,-1
 163 -176 l 1,0,-1
EndSplineSet
EndChar

StartChar: dotlessj
Encoding: 567 567 109
Width: 682
Flags: HW
LayerCount: 2
Fore
SplineSet
217 -368 m 1,0,-1
 217 1047 l 1,1,-1
 456 1047 l 1,2,-1
 456 -285 l 2,3,4
 456 -390.412 456 -390.412 400.5 -465.5 c 0,5,6
 344.696 -541 344.696 -541 267 -541 c 2,7,-1
 71 -541 l 1,8,-1
 71 -368 l 1,9,-1
 217 -368 l 1,0,-1
EndSplineSet
EndChar

StartChar: dotlessi
Encoding: 245 245 110
AltUni2: 000131.ffffffff.0
Width: 682
Flags: HW
LayerCount: 2
Fore
SplineSet
217 1047 m 1,0,-1
 456 1047 l 1,1,-1
 456 171 l 1,2,-1
 670 171 l 1,3,4
 663.944 100.35 663.944 100.35 612.5 50 c 0,5,6
 561.413 -1.82507e-05 561.413 -1.82507e-05 496 0 c 2,7,-1
 408 0 l 2,8,9
 329.145 0 329.145 0 273 74.5 c 128,-1,10
 217 148.808 217 148.808 217 254 c 2,11,-1
 217 1047 l 1,0,-1
EndSplineSet
EndChar

StartChar: less
Encoding: 60 60 111
Width: 1365
Flags: HW
LayerCount: 2
Fore
SplineSet
290 615 m 1,0,-1
 1126 883 l 1,1,-1
 1126 701 l 1,2,-1
 478 523 l 1,3,-1
 1126 342 l 1,4,-1
 1126 161 l 1,5,-1
 290 429 l 1,6,-1
 290 615 l 1,0,-1
EndSplineSet
EndChar

StartChar: greater
Encoding: 62 62 112
Width: 1365
Flags: HW
LayerCount: 2
Fore
SplineSet
290 342 m 1,0,-1
 938 523 l 1,1,-1
 290 701 l 1,2,-1
 290 883 l 1,3,-1
 1126 615 l 1,4,-1
 1126 429 l 1,5,-1
 290 161 l 1,6,-1
 290 342 l 1,0,-1
EndSplineSet
EndChar

StartChar: plus
Encoding: 43 43 113
Width: 1365
Flags: HW
LayerCount: 2
Fore
SplineSet
291 608 m 1,0,-1
 640 608 l 1,1,-1
 640 966 l 1,2,-1
 817 966 l 1,3,-1
 817 608 l 1,4,-1
 1165 608 l 1,5,-1
 1165 432 l 1,6,-1
 817 432 l 1,7,-1
 817 71 l 1,8,-1
 640 71 l 1,9,-1
 640 432 l 1,10,-1
 291 432 l 1,11,-1
 291 608 l 1,0,-1
EndSplineSet
EndChar

StartChar: plusminus
Encoding: 177 177 114
Width: 1365
Flags: HW
LayerCount: 2
Fore
SplineSet
290 819 m 1,0,-1
 639 819 l 1,1,-1
 639 1117 l 1,2,-1
 816 1117 l 1,3,-1
 816 819 l 1,4,-1
 1164 819 l 1,5,-1
 1164 643 l 1,6,-1
 816 643 l 1,7,-1
 816 355 l 1,8,-1
 639 355 l 1,9,-1
 639 643 l 1,10,-1
 290 643 l 1,11,-1
 290 819 l 1,0,-1
290 211 m 1,12,-1
 1164 211 l 1,13,-1
 1164 35 l 1,14,-1
 290 35 l 1,15,-1
 290 211 l 1,12,-1
EndSplineSet
EndChar

StartChar: hyphen
Encoding: 45 45 115
Width: 1365
Flags: HW
LayerCount: 2
Fore
SplineSet
290 607 m 1,0,-1
 1164 607 l 1,1,-1
 1164 431 l 1,2,-1
 290 431 l 1,3,-1
 290 607 l 1,0,-1
EndSplineSet
EndChar

StartChar: equal
Encoding: 61 61 116
Width: 1365
Flags: HW
LayerCount: 2
Fore
SplineSet
290 859 m 1,0,-1
 1164 859 l 1,1,-1
 1164 683 l 1,2,-1
 290 683 l 1,3,-1
 290 859 l 1,0,-1
290 356 m 1,4,-1
 1164 356 l 1,5,-1
 1164 181 l 1,6,-1
 290 181 l 1,7,-1
 290 356 l 1,4,-1
EndSplineSet
EndChar

StartChar: multiply
Encoding: 65547 -1 117
Width: 1365
Flags: HW
LayerCount: 2
Fore
SplineSet
591 522 m 1,0,-1
 294 818 l 1,1,-1
 423 947 l 1,2,-1
 717 648 l 1,3,-1
 1012 945 l 1,4,5
 1124.49 834.31 1124.49 834.31 1138 820 c 1,6,-1
 841 525 l 1,7,-1
 1141 228 l 1,8,-1
 1012 96 l 1,9,-1
 715 395 l 1,10,-1
 419 96 l 1,11,-1
 290 227 l 1,12,-1
 591 522 l 1,0,-1
EndSplineSet
EndChar

StartChar: divide
Encoding: 214 214 118
Width: 1365
Flags: HW
LayerCount: 2
Fore
SplineSet
593 906 m 256,0,1
 593 966.714 593 966.714 620.5 997.357 c 0,2,3
 667.744 1050 667.744 1050 726 1050 c 0,4,5
 782.128 1050 782.128 1050 821.5 1008.5 c 0,6,7
 862 965.811 862 965.811 862 906 c 256,8,9
 862 846.189 862 846.189 821.5 803.5 c 0,10,11
 782.128 762 782.128 762 739.564 762 c 0,12,13
 667.744 762 667.744 762 630.372 803.643 c 128,-1,14
 593 845.286 593 845.286 593 906 c 256,0,1
290 607 m 1,15,-1
 1164 607 l 1,16,-1
 1164 431 l 1,17,-1
 290 431 l 1,18,-1
 290 607 l 1,15,-1
593 129 m 256,19,20
 593 226.184 593 226.184 672.5 263.5 c 0,21,22
 697 275 697 275 725 275 c 128,-1,23
 753 275 753 275 778 263.5 c 128,-1,24
 803 252 803 252 821.5 232.5 c 0,25,26
 862 189.811 862 189.811 862 129 c 256,27,28
 862 68.5946 862 68.5946 821.5 27 c 0,29,30
 781.579 -14 781.579 -14 739.289 -14 c 128,-1,31
 697 -14 697 -14 672.5 -3 c 128,-1,32
 648 8 648 8 630.5 27 c 0,33,34
 593 67.7143 593 67.7143 593 129 c 256,19,20
EndSplineSet
EndChar

StartChar: logicalnot
Encoding: 194 194 119
Width: 1365
Flags: HW
LayerCount: 2
Fore
SplineSet
290 868 m 1,0,-1
 1291 868 l 1,1,-1
 1291 293 l 1,2,-1
 1114 293 l 1,3,-1
 1114 692 l 1,4,-1
 290 692 l 1,5,-1
 290 868 l 1,0,-1
EndSplineSet
EndChar

StartChar: endash
Encoding: 208 208 120
Width: 1760
Flags: HW
LayerCount: 2
Fore
SplineSet
184 533 m 1,0,1
 189.906 601.906 189.906 601.906 241.5 653.5 c 0,2,3
 292 704 292 704 359 704 c 2,4,-1
 1576 704 l 1,5,6
 1567.8 632.227 1567.8 632.227 1517.5 583 c 0,7,8
 1466.41 533 1466.41 533 1401 533 c 2,9,-1
 184 533 l 1,0,1
EndSplineSet
EndChar

StartChar: emdash
Encoding: 209 209 121
Width: 2171
Flags: HW
LayerCount: 2
Fore
SplineSet
180 533 m 1,0,1
 185.906 601.906 185.906 601.906 237.5 653.5 c 0,2,3
 288 704 288 704 355 704 c 2,4,-1
 1991 704 l 1,5,6
 1985 634 1985 634 1934 583 c 0,7,8
 1884 533 1884 533 1817 533 c 2,9,-1
 180 533 l 1,0,1
EndSplineSet
EndChar

StartChar: caron
Encoding: 255 255 122
AltUni2: 0002c7.ffffffff.0
Width: 1393
Flags: HW
LayerCount: 2
Fore
SplineSet
1039 1920 m 1,0,-1
 1119 1814 l 1,1,-1
 854 1561 l 1,2,3
 774.158 1487 774.158 1487 697 1487 c 128,-1,4
 619.795 1487 619.795 1487 542 1561 c 2,5,-1
 277 1814 l 1,6,7
 289 1830 289 1830 299.5 1842.5 c 0,8,9
 347.977 1902.64 347.977 1902.64 361 1920 c 1,10,-1
 697 1728 l 1,11,-1
 1039 1920 l 1,0,-1
EndSplineSet
EndChar

StartChar: dotaccentcmb
Encoding: 775 775 123
Width: 687
Flags: HW
LayerCount: 2
Fore
SplineSet
341 1459 m 0,0,1
 306 1459 306 1459 275 1471 c 128,-1,2
 244 1483 244 1483 222 1505.5 c 0,3,4
 175 1553.57 175 1553.57 175 1627 c 128,-1,5
 175 1700.3 175 1700.3 222 1750.5 c 0,6,7
 268.34 1800 268.34 1800 342 1800 c 0,8,9
 412.106 1800 412.106 1800 459.5 1750.5 c 0,10,11
 508 1699.84 508 1699.84 508 1627 c 128,-1,12
 508 1554 508 1554 459.5 1505.5 c 0,13,14
 413 1459 413 1459 341 1459 c 0,0,1
EndSplineSet
EndChar

StartChar: thorn
Encoding: 65549 -1 125
Width: 1376
Flags: HW
LayerCount: 2
Fore
SplineSet
636 0 m 2,0,1
 538.686 0 538.686 0 475 112 c 1,2,-1
 476 -285 l 2,3,4
 476 -391.765 476 -391.765 421.5 -465.5 c 0,5,6
 365.696 -541 365.696 -541 289 -541 c 2,7,-1
 237 -541 l 1,8,-1
 237 1591 l 1,9,-1
 476 1591 l 1,10,-1
 476 1047 l 1,11,-1
 949 1047 l 2,12,13
 1025.86 1047 1025.86 1047 1082 972.5 c 128,-1,14
 1138 898.192 1138 898.192 1138 793 c 2,15,-1
 1138 171 l 1,16,-1
 1349 171 l 1,17,18
 1340.8 99.2269 1340.8 99.2269 1290.5 50 c 0,19,20
 1239.41 4.14859e-05 1239.41 4.14859e-05 1174 0 c 2,21,-1
 636 0 l 2,0,1
899 171 m 1,22,-1
 899 876 l 1,23,-1
 475 876 l 1,24,-1
 475 171 l 1,25,-1
 899 171 l 1,22,-1
EndSplineSet
EndChar

StartChar: fraction
Encoding: 218 218 126
AltUni2: 002044.ffffffff.0
Width: 1128
Flags: HW
LayerCount: 2
Fore
SplineSet
740 1311 m 1,0,-1
 912 1311 l 1,1,-1
 386 -59 l 1,2,-1
 215 -59 l 1,3,-1
 740 1311 l 1,0,-1
EndSplineSet
EndChar

StartChar: onesuperior
Encoding: 65550 -1 127
Width: 682
Flags: HW
LayerCount: 2
Fore
SplineSet
251 1151 m 1,0,-1
 119 1151 l 1,1,-1
 119 1249 l 1,2,-1
 463 1249 l 1,3,-1
 463 454 l 1,4,-1
 251 454 l 1,5,-1
 251 1151 l 1,0,-1
EndSplineSet
EndChar

StartChar: twosuperior
Encoding: 65551 -1 128
Width: 1193
Flags: HW
LayerCount: 2
Fore
SplineSet
265 661 m 2,0,1
 265 712 265 712 286.5 751.5 c 128,-1,2
 308 791 308 791 344 805 c 2,3,-1
 785 975 l 1,4,-1
 785 1141 l 1,5,-1
 487 1141 l 1,6,-1
 487 1020 l 1,7,-1
 265 1020 l 1,8,-1
 265 1091 l 2,9,10
 265 1157.28 265 1157.28 308 1203.5 c 0,11,12
 351.256 1250 351.256 1250 413 1250 c 2,13,-1
 858 1250 l 2,14,15
 919.744 1250 919.744 1250 963 1203.5 c 0,16,17
 1007 1156.2 1007 1156.2 1007 1091 c 2,18,-1
 1007 991 l 2,19,20
 1007 940 1007 940 982 901 c 128,-1,21
 957 862 957 862 918 846 c 2,22,-1
 487 677 l 1,23,-1
 487 562 l 1,24,-1
 1007 562 l 1,25,-1
 1007 454 l 1,26,-1
 265 454 l 1,27,-1
 265 661 l 2,0,1
EndSplineSet
EndChar

StartChar: threesuperior
Encoding: 65552 -1 129
Width: 1193
Flags: HW
LayerCount: 2
Fore
SplineSet
414 454 m 2,0,1
 351.727 454 351.727 454 309 501 c 0,2,3
 266 548.3 266 548.3 266 614 c 2,4,-1
 266 661 l 1,5,-1
 477 661 l 1,6,-1
 477 564 l 1,7,-1
 774 564 l 1,8,-1
 774 807 l 1,9,-1
 551 807 l 1,10,-1
 551 915 l 1,11,-1
 774 915 l 1,12,-1
 774 1141 l 1,13,-1
 477 1141 l 1,14,-1
 477 1044 l 1,15,-1
 266 1044 l 1,16,-1
 266 1091 l 2,17,18
 266 1157.28 266 1157.28 309 1203.5 c 0,19,20
 352.256 1250 352.256 1250 414 1250 c 2,21,-1
 837 1249 l 2,22,23
 898.744 1249 898.744 1249 942 1202.5 c 0,24,25
 986 1155.2 986 1155.2 986 1090 c 2,26,-1
 986 1026 l 2,27,28
 986 974 986 974 949.5 930 c 128,-1,29
 913 886 913 886 855 863 c 1,30,31
 913 841 913 841 949.5 797.5 c 128,-1,32
 986 754 986 754 986 702 c 2,33,-1
 986 614 l 2,34,35
 986 549.4 986 549.4 942 501 c 0,36,37
 899.273 454 899.273 454 837 454 c 2,38,-1
 414 454 l 2,0,1
EndSplineSet
EndChar

StartChar: onequarter
Encoding: 65553 -1 130
Width: 2046
Flags: HW
LayerCount: 2
Fore
SplineSet
1063 1311 m 1,0,-1
 1235 1311 l 1,1,-1
 709 -59 l 1,2,-1
 538 -59 l 1,3,-1
 1063 1311 l 1,0,-1
313 1151 m 1,4,-1
 181 1151 l 1,5,-1
 181 1249 l 1,6,-1
 524 1249 l 1,7,-1
 524 454 l 1,8,-1
 313 454 l 1,9,-1
 313 1151 l 1,4,-1
1122 244 m 1,10,-1
 1332 797 l 1,11,-1
 1541 797 l 1,12,-1
 1323 238 l 1,13,-1
 1599 238 l 1,14,-1
 1599 627 l 1,15,-1
 1802 627 l 1,16,-1
 1802 238 l 1,17,-1
 1885 238 l 1,18,-1
 1885 132 l 1,19,-1
 1802 132 l 1,20,-1
 1802 -1 l 1,21,-1
 1599 -1 l 1,22,-1
 1599 132 l 1,23,-1
 1122 132 l 1,24,-1
 1122 244 l 1,10,-1
EndSplineSet
EndChar

StartChar: onehalf
Encoding: 65554 -1 131
Width: 2046
Flags: HW
LayerCount: 2
Fore
SplineSet
473 -59 m 1,0,1
 999 1311 l 1,2,-1
 1170 1311 l 1,3,-1
 644 -59 l 1,4,-1
 473 -59 l 1,0,1
248 1151 m 1,5,-1
 116 1151 l 1,6,-1
 116 1249 l 1,7,-1
 460 1249 l 1,8,-1
 460 454 l 1,9,-1
 248 454 l 1,10,-1
 248 1151 l 1,5,-1
1187 207 m 2,11,12
 1187 258 1187 258 1208.5 297.5 c 128,-1,13
 1230 337 1230 337 1266 351 c 2,14,-1
 1707 521 l 1,15,-1
 1707 687 l 1,16,-1
 1409 687 l 1,17,-1
 1409 566 l 1,18,-1
 1187 566 l 1,19,-1
 1187 637 l 2,20,21
 1187 703.275 1187 703.275 1230 749.5 c 0,22,23
 1273.26 796 1273.26 796 1335 796 c 2,24,-1
 1780 796 l 2,25,26
 1841.74 796 1841.74 796 1885 749.5 c 0,27,28
 1929 702.2 1929 702.2 1929 637 c 2,29,-1
 1929 537 l 2,30,31
 1929 486 1929 486 1904 447 c 128,-1,32
 1879 408 1879 408 1840 392 c 2,33,-1
 1409 223 l 1,34,-1
 1409 108 l 1,35,-1
 1929 108 l 1,36,-1
 1929 0 l 1,37,-1
 1187 0 l 1,38,-1
 1187 207 l 2,11,12
EndSplineSet
EndChar

StartChar: threequarters
Encoding: 65555 -1 132
Width: 2046
Flags: HW
LayerCount: 2
Fore
SplineSet
1183 1311 m 1,0,-1
 1355 1311 l 1,1,-1
 830 -59 l 1,2,-1
 659 -59 l 1,3,-1
 1183 1311 l 1,0,-1
1242 245 m 1,4,-1
 1452 798 l 1,5,-1
 1661 798 l 1,6,-1
 1443 239 l 1,7,-1
 1719 239 l 1,8,-1
 1719 628 l 1,9,-1
 1922 628 l 1,10,-1
 1922 239 l 1,11,-1
 2005 239 l 1,12,-1
 2005 133 l 1,13,-1
 1922 133 l 1,14,-1
 1922 0 l 1,15,-1
 1719 0 l 1,16,-1
 1719 133 l 1,17,-1
 1242 133 l 1,18,-1
 1242 245 l 1,4,-1
189 454 m 2,19,20
 126.727 454 126.727 454 84 501 c 0,21,22
 41 548.3 41 548.3 41 614 c 2,23,-1
 41 661 l 1,24,-1
 252 661 l 1,25,-1
 252 564 l 1,26,-1
 549 564 l 1,27,-1
 549 807 l 1,28,-1
 326 807 l 1,29,-1
 326 915 l 1,30,-1
 549 915 l 1,31,-1
 549 1141 l 1,32,-1
 252 1141 l 1,33,-1
 252 1044 l 1,34,-1
 41 1044 l 1,35,-1
 41 1091 l 2,36,37
 41 1157.28 41 1157.28 84 1203.5 c 0,38,39
 127.256 1250 127.256 1250 189 1250 c 2,40,-1
 612 1249 l 2,41,42
 673.744 1249 673.744 1249 717 1202.5 c 0,43,44
 761 1155.2 761 1155.2 761 1090 c 2,45,-1
 761 1026 l 2,46,47
 761 974 761 974 724.5 930 c 128,-1,48
 688 886 688 886 630 863 c 1,49,50
 688 841 688 841 724.5 797.5 c 128,-1,51
 761 754 761 754 761 702 c 2,52,-1
 761 614 l 2,53,54
 761 549.4 761 549.4 717 501 c 0,55,56
 674.273 454 674.273 454 612 454 c 2,57,-1
 189 454 l 2,19,20
EndSplineSet
EndChar

StartChar: percent
Encoding: 37 37 133
Width: 1882
Flags: HW
LayerCount: 2
Fore
SplineSet
1269 1311 m 1,0,-1
 1446 1311 l 1,1,-1
 640 -59 l 1,2,-1
 462 -59 l 1,3,-1
 1269 1311 l 1,0,-1
313 615 m 2,4,5
 251.837 615 251.837 615 207.5 661.5 c 0,6,7
 164 707.122 164 707.122 164 774 c 2,8,-1
 164 1079 l 2,9,10
 164 1145.28 164 1145.28 207 1191.5 c 0,11,12
 250.256 1238 250.256 1238 312 1238 c 2,13,-1
 674 1237 l 2,14,15
 735.744 1237 735.744 1237 779 1190.5 c 0,16,17
 823 1143.2 823 1143.2 823 1078 c 2,18,-1
 823 773 l 2,19,20
 823 706.725 823 706.725 780 660.5 c 0,21,22
 736.744 614 736.744 614 675 614 c 2,23,-1
 313 615 l 2,4,5
612 723 m 1,24,-1
 612 1129 l 1,25,-1
 376 1129 l 1,26,-1
 376 723 l 1,27,-1
 612 723 l 1,24,-1
1080 464 m 2,28,29
 1080 530.275 1080 530.275 1123 576.5 c 0,30,31
 1166.26 623 1166.26 623 1228 623 c 2,32,-1
 1590 622 l 2,33,34
 1651.74 622 1651.74 622 1695 575.5 c 0,35,36
 1739 528.2 1739 528.2 1739 463 c 2,37,-1
 1739 158 l 2,38,39
 1739 91.725 1739 91.725 1696 45.5 c 0,40,41
 1652.74 -1.00005 1652.74 -1.00005 1591 -1 c 2,42,-1
 1229 0 l 2,43,44
 1167.84 0 1167.84 0 1123.5 46.5 c 0,45,46
 1080 92.1219 1080 92.1219 1080 159 c 2,47,-1
 1080 464 l 2,28,29
1528 108 m 1,48,-1
 1528 514 l 1,49,-1
 1292 514 l 1,50,-1
 1292 108 l 1,51,-1
 1528 108 l 1,48,-1
EndSplineSet
EndChar

StartChar: ordfeminine
Encoding: 187 187 134
Width: 1365
Flags: HW
LayerCount: 2
Fore
SplineSet
833 576 m 1,0,1
 791 492 791 492 720 492 c 2,2,-1
 464 492 l 2,3,4
 411.13 492 411.13 492 372 542 c 0,5,6
 334 590.556 334 590.556 334 663 c 2,7,-1
 334 1013 l 2,8,9
 334 1094.33 334 1094.33 376.5 1151 c 0,10,11
 417.75 1206 417.75 1206 481 1206 c 2,12,-1
 1031 1206 l 1,13,-1
 1031 609 l 1,14,-1
 1189 609 l 1,15,16
 1182.86 559.857 1182.86 559.857 1157.93 534.929 c 0,17,18
 1115 492 1115 492 1070 492 c 2,19,-1
 947 492 l 2,20,21
 877.211 492 877.211 492 833 576 c 1,0,1
829 609 m 1,22,-1
 829 1089 l 1,23,-1
 536 1089 l 1,24,-1
 536 609 l 1,25,-1
 829 609 l 1,22,-1
568.5 127 m 128,-1,27
 559 149 559 149 559 174.5 c 128,-1,28
 559 200 559 200 568.5 222.5 c 128,-1,29
 578 245 578 245 595 262 c 0,30,31
 631 298 631 298 669 298 c 128,-1,32
 707 298 707 298 729.5 288.5 c 128,-1,33
 752 279 752 279 768.5 262 c 0,34,35
 805 224.394 805 224.394 805 186.697 c 128,-1,36
 805 149 805 149 795 127 c 128,-1,37
 785 105 785 105 768.5 88 c 0,38,39
 733.559 52 733.559 52 694.779 52 c 128,-1,40
 656 52 656 52 634 61.5 c 128,-1,41
 612 71 612 71 595 88 c 128,-1,26
 578 105 578 105 568.5 127 c 128,-1,27
EndSplineSet
EndChar

StartChar: ordmasculine
Encoding: 188 188 135
Width: 1365
Flags: HW
LayerCount: 2
Fore
SplineSet
464 492 m 2,0,1
 411.13 492 411.13 492 372 542 c 0,2,3
 334 590.556 334 590.556 334 663 c 2,4,-1
 334 1013 l 2,5,6
 334 1094.33 334 1094.33 376.5 1151 c 0,7,8
 417.75 1206 417.75 1206 481 1206 c 2,9,-1
 901 1206 l 2,10,11
 954.319 1206 954.319 1206 993 1155.5 c 0,12,13
 1031 1105.89 1031 1105.89 1031 1035 c 2,14,-1
 1031 685 l 2,15,16
 1031 603.667 1031 603.667 988.5 547 c 0,17,18
 947.25 492 947.25 492 884 492 c 2,19,-1
 464 492 l 2,0,1
829 609 m 1,20,-1
 829 1089 l 1,21,-1
 536 1089 l 1,22,-1
 536 609 l 1,23,-1
 829 609 l 1,20,-1
568.5 127 m 128,-1,25
 559 149 559 149 559 174.5 c 128,-1,26
 559 200 559 200 568.5 222.5 c 128,-1,27
 578 245 578 245 595 262 c 0,28,29
 631 298 631 298 669 298 c 128,-1,30
 707 298 707 298 729.5 288.5 c 128,-1,31
 752 279 752 279 768.5 262 c 0,32,33
 805 224.394 805 224.394 805 186.697 c 128,-1,34
 805 149 805 149 795 127 c 128,-1,35
 785 105 785 105 768.5 88 c 0,36,37
 733.559 52 733.559 52 694.779 52 c 128,-1,38
 656 52 656 52 634 61.5 c 128,-1,39
 612 71 612 71 595 88 c 128,-1,24
 578 105 578 105 568.5 127 c 128,-1,25
EndSplineSet
EndChar

StartChar: degree
Encoding: 161 161 136
Width: 1365
Flags: HW
LayerCount: 2
Fore
SplineSet
681.5 557 m 0,0,1
 608 557 608 557 543.5 585 c 128,-1,2
 479 613 479 613 431 661.5 c 0,3,4
 327 766.583 327 766.583 327 914 c 256,5,6
 327 1061 327 1061 431 1165 c 128,-1,7
 535 1269 535 1269 682 1269 c 128,-1,8
 829 1269 829 1269 933 1165 c 128,-1,9
 1037 1061 1037 1061 1037 914 c 256,10,11
 1037 766.583 1037 766.583 933 661.5 c 0,12,13
 829.577 557 829.577 557 681.5 557 c 0,0,1
681 724 m 0,14,15
 719 724 719 724 754 739 c 128,-1,16
 789 754 789 754 815 779.5 c 0,17,18
 873 836.385 873 836.385 873 914 c 256,19,20
 873 989 873 989 815 1047 c 0,21,22
 759 1103 759 1103 682 1103 c 0,23,24
 602.423 1103 602.423 1103 547.5 1047 c 0,25,26
 492 990.412 492 990.412 492 914 c 256,27,28
 492 835 492 835 547.5 779.5 c 128,-1,29
 603 724 603 724 681 724 c 0,14,15
EndSplineSet
EndChar

StartChar: asterisk
Encoding: 42 42 137
Width: 1365
Flags: HW
LayerCount: 2
Fore
SplineSet
501 599 m 0,0,1
 481 592 481 592 457 592 c 128,-1,2
 433 592 433 592 410.5 603.5 c 128,-1,3
 388 615 388 615 372 633.5 c 0,4,5
 339 671.656 339 671.656 339 710.328 c 0,6,7
 339 784.143 339 784.143 396 833 c 2,8,-1
 575 987 l 1,9,-1
 335 1010 l 1,10,11
 282.363 1016.32 282.363 1016.32 253.181 1041.66 c 0,12,13
 201 1086.97 201 1086.97 201 1128.49 c 128,-1,14
 201 1170 201 1170 212.5 1194 c 128,-1,15
 224 1218 224 1218 242 1234.5 c 0,16,17
 278.545 1268 278.545 1268 314.273 1268 c 0,18,19
 366.5 1268 366.5 1268 412 1242 c 1,20,-1
 606 1126 l 1,21,-1
 557 1349 l 2,22,23
 553 1364 553 1364 553 1386.5 c 128,-1,24
 553 1409 553 1409 561 1434 c 128,-1,25
 569 1459 569 1459 585 1479 c 0,26,27
 620.2 1523 620.2 1523 678 1523 c 256,28,29
 736.487 1523 736.487 1523 773.5 1481.5 c 0,30,31
 808 1442.82 808 1442.82 808 1386 c 0,32,33
 808 1369 808 1369 803 1347 c 2,34,-1
 749 1121 l 1,35,-1
 954 1241 l 2,36,37
 1017.58 1277.81 1017.58 1277.81 1081.5 1256.5 c 0,38,39
 1129.17 1240.61 1129.17 1240.61 1151.5 1194 c 0,40,41
 1163 1170 1163 1170 1163 1140.5 c 128,-1,42
 1163 1111 1163 1111 1152.5 1088 c 128,-1,43
 1142 1065 1142 1065 1123.5 1048 c 0,44,45
 1083.17 1010.94 1083.17 1010.94 1028 1007 c 2,46,-1
 795 988 l 1,47,-1
 973 832 l 2,48,49
 1028 783.6 1028 783.6 1028 714 c 0,50,51
 1028 667.545 1028 667.545 1002.5 641.273 c 0,52,53
 955.647 593 955.647 593 909.323 593 c 128,-1,54
 863 593 863 593 827.5 619 c 128,-1,55
 792 645 792 645 774 688 c 2,56,-1
 685 901 l 1,57,-1
 591 685 l 2,58,59
 564.086 621.08 564.086 621.08 501 599 c 0,0,1
EndSplineSet
EndChar

StartChar: copyright
Encoding: 169 169 138
Width: 2394
Flags: HW
LayerCount: 2
Fore
SplineSet
461 1282 m 2,0,1
 461 1379.07 461 1379.07 524 1447.5 c 128,-1,2
 587.063 1516 587.063 1516 674 1516 c 2,3,-1
 1800 1516 l 2,4,5
 1886.94 1516 1886.94 1516 1950 1447.5 c 128,-1,6
 2013 1379.07 2013 1379.07 2013 1282 c 2,7,-1
 2013 235 l 2,8,9
 2013 138.517 2013 138.517 1950 69 c 0,10,11
 1887.47 1.37836e-07 1887.47 1.37836e-07 1800 0 c 2,12,-1
 674 0 l 2,13,14
 586.531 0 586.531 0 524 69 c 0,15,16
 461 138.517 461 138.517 461 235 c 2,17,-1
 461 1282 l 2,0,1
1830 140 m 1,18,-1
 1830 1379 l 1,19,-1
 644 1379 l 1,20,-1
 644 140 l 1,21,-1
 1830 140 l 1,18,-1
847 959 m 2,22,23
 847 1062.6 847 1062.6 900 1131.5 c 0,24,25
 954.231 1202 954.231 1202 1028 1202 c 2,26,-1
 1457 1202 l 2,27,28
 1529.77 1202 1529.77 1202 1584 1131.5 c 0,29,30
 1638 1061.3 1638 1061.3 1638 959 c 2,31,-1
 1638 834 l 1,32,-1
 1412 834 l 1,33,-1
 1412 1039 l 1,34,-1
 1074 1039 l 1,35,-1
 1074 486 l 1,36,-1
 1412 486 l 1,37,-1
 1412 609 l 1,38,-1
 1638 609 l 1,39,-1
 1638 564 l 2,40,41
 1638 464.469 1638 464.469 1584.5 393.5 c 0,42,43
 1531.35 323 1531.35 323 1458 323 c 2,44,-1
 1028 323 l 2,45,46
 954.231 323 954.231 323 900 393.5 c 0,47,48
 847 462.4 847 462.4 847 564 c 2,49,-1
 847 959 l 2,22,23
EndSplineSet
EndChar

StartChar: registered
Encoding: 168 168 139
Width: 2394
Flags: HW
LayerCount: 2
Fore
SplineSet
461 1282 m 2,0,1
 461 1379.07 461 1379.07 524 1447.5 c 128,-1,2
 587.063 1516 587.063 1516 674 1516 c 2,3,-1
 1800 1516 l 2,4,5
 1886.94 1516 1886.94 1516 1950 1447.5 c 128,-1,6
 2013 1379.07 2013 1379.07 2013 1282 c 2,7,-1
 2013 235 l 2,8,9
 2013 138.517 2013 138.517 1950 69 c 0,10,11
 1887.47 1.37836e-07 1887.47 1.37836e-07 1800 0 c 2,12,-1
 674 0 l 2,13,14
 586.531 0 586.531 0 524 69 c 0,15,16
 461 138.517 461 138.517 461 235 c 2,17,-1
 461 1282 l 2,0,1
1830 140 m 1,18,-1
 1830 1379 l 1,19,-1
 644 1379 l 1,20,-1
 644 140 l 1,21,-1
 1830 140 l 1,18,-1
1637 914 m 2,22,23
 1637 767 1637 767 1509 703 c 1,24,25
 1604.3 655.352 1604.3 655.352 1632 548 c 0,26,27
 1640 517 1640 517 1640 489 c 2,28,-1
 1640 323 l 1,29,-1
 1411 323 l 1,30,-1
 1411 633 l 1,31,-1
 1074 633 l 1,32,-1
 1073 323 l 1,33,-1
 848 323 l 1,34,-1
 848 1201 l 1,35,-1
 1442 1201 l 2,36,37
 1518.5 1201 1518.5 1201 1577 1136 c 0,38,39
 1637 1069.33 1637 1069.33 1637 978 c 2,40,-1
 1637 914 l 2,22,23
1412 776 m 1,41,-1
 1412 1038 l 1,42,-1
 1074 1038 l 1,43,-1
 1074 776 l 1,44,-1
 1412 776 l 1,41,-1
EndSplineSet
EndChar

StartChar: section
Encoding: 164 164 140
Width: 1365
Flags: HW
LayerCount: 2
Fore
SplineSet
506 -16 m 1,0,-1
 506 -206 l 1,1,-1
 919 -206 l 1,2,-1
 919 1 l 1,3,-1
 437 253 l 2,4,5
 385 280 385 280 354 343 c 128,-1,6
 323 406 323 406 323 487 c 2,7,-1
 323 686 l 2,8,9
 323 791.333 323 791.333 377.5 864 c 0,10,11
 433 938 433 938 511 938 c 2,12,-1
 554 938 l 1,13,-1
 399 1017 l 1,14,15
 267 1083 267 1083 267 1260 c 2,16,-1
 267 1337 l 2,17,18
 267 1443.76 267 1443.76 321.5 1517.5 c 0,19,20
 375.826 1591 375.826 1591 454 1591 c 2,21,-1
 970 1591 l 2,22,23
 1048.17 1591 1048.17 1591 1102.5 1517.5 c 0,24,25
 1158 1442.41 1158 1442.41 1158 1337 c 2,26,-1
 1158 1230 l 1,27,-1
 919 1230 l 1,28,-1
 919 1420 l 1,29,-1
 506 1420 l 1,30,-1
 506 1213 l 1,31,-1
 988 961 l 2,32,33
 1040 934 1040 934 1071 871 c 128,-1,34
 1102 808 1102 808 1102 727 c 2,35,-1
 1102 528 l 2,36,37
 1102 424 1102 424 1046.5 350 c 128,-1,38
 991 276 991 276 914 276 c 2,39,-1
 870 276 l 1,40,-1
 1026 197 l 2,41,42
 1158 131 1158 131 1158 -46 c 2,43,-1
 1158 -123 l 2,44,45
 1158 -229.765 1158 -229.765 1103.5 -303.5 c 0,46,47
 1049.17 -377 1049.17 -377 971 -377 c 2,48,-1
 455 -377 l 2,49,50
 376.826 -377 376.826 -377 322.5 -303.5 c 0,51,52
 267 -228.412 267 -228.412 267 -123 c 2,53,-1
 267 -16 l 1,54,-1
 506 -16 l 1,0,-1
878 431 m 1,55,-1
 878 783 l 1,56,-1
 547 783 l 1,57,-1
 547 431 l 1,58,-1
 878 431 l 1,55,-1
EndSplineSet
EndChar

StartChar: dagger
Encoding: 160 160 141
Width: 1365
Flags: HW
LayerCount: 2
Fore
SplineSet
566 892 m 1,0,-1
 218 892 l 1,1,2
 227.49 993.222 227.49 993.222 320.5 1035.5 c 0,3,4
 348 1048 348 1048 378 1048 c 2,5,-1
 566 1048 l 1,6,-1
 566 1578 l 1,7,-1
 804 1578 l 1,8,-1
 804 1048 l 1,9,-1
 1141 1048 l 1,10,11
 1131.51 946.777 1131.51 946.777 1038.5 904.5 c 0,12,13
 1011 892 1011 892 981 892 c 2,14,-1
 804 892 l 1,15,-1
 804 -269 l 2,16,17
 804 -374.855 804 -374.855 744.5 -449.5 c 0,18,19
 684.319 -525 684.319 -525 602 -525 c 2,20,-1
 566 -525 l 1,21,-1
 566 892 l 1,0,-1
EndSplineSet
EndChar

StartChar: bar
Encoding: 124 124 142
Width: 855
Flags: HW
LayerCount: 2
Fore
SplineSet
349.5 691 m 128,-1,1
 350 1208 350 1208 350 1735 c 1,2,-1
 506 1735 l 1,3,-1
 506 -354 l 1,4,-1
 349 -354 l 1,5,0
 349 174 349 174 349.5 691 c 128,-1,1
EndSplineSet
EndChar

StartChar: bracketleft
Encoding: 91 91 143
Width: 1193
Flags: HW
LayerCount: 2
Fore
SplineSet
357 1534 m 2,0,1
 357 1634.46 357 1634.46 423.5 1707.5 c 0,2,3
 488.597 1779 488.597 1779 581 1779 c 2,4,-1
 915 1779 l 1,5,-1
 915 1634 l 1,6,-1
 586 1634 l 1,7,-1
 586 -245 l 1,8,-1
 915 -245 l 1,9,-1
 915 -392 l 1,10,-1
 581 -392 l 2,11,12
 489.507 -392 489.507 -392 423.5 -319.5 c 0,13,14
 357 -246.459 357 -246.459 357 -146 c 2,15,-1
 357 1534 l 2,0,1
EndSplineSet
EndChar

StartChar: bracketright
Encoding: 93 93 144
Width: 1193
Flags: HW
LayerCount: 2
Fore
SplineSet
685 -244 m 1,0,-1
 685 1634 l 1,1,-1
 357 1634 l 1,2,-1
 357 1781 l 1,3,-1
 686 1781 l 2,4,5
 781.836 1781 781.836 1781 848 1709.5 c 0,6,7
 915 1637.1 915 1637.1 915 1536 c 2,8,-1
 915 -142 l 2,9,10
 915 -244.677 915 -244.677 848 -316 c 0,11,12
 780.364 -388 780.364 -388 686 -388 c 2,13,-1
 357 -388 l 1,14,-1
 357 -244 l 1,15,-1
 685 -244 l 1,0,-1
EndSplineSet
EndChar

StartChar: parenleft
Encoding: 40 40 145
Width: 1193
Flags: HW
LayerCount: 2
Fore
SplineSet
357 960 m 2,0,1
 357 1305.6 357 1305.6 516 1533.5 c 0,2,3
 673.178 1758.79 673.178 1758.79 916 1777 c 1,4,-1
 916 1629 l 1,5,6
 773.615 1600.11 773.615 1600.11 681.5 1449 c 0,7,8
 586 1292.34 586 1292.34 586 1069 c 2,9,-1
 586 319 l 2,10,11
 586 96.236 586 96.236 681.5 -61.5 c 0,12,13
 773.246 -213.035 773.246 -213.035 916 -242 c 1,14,-1
 916 -388 l 1,15,16
 677.825 -357.202 677.825 -357.202 520 -135 c 0,17,18
 357 94.4868 357 94.4868 357 429 c 2,19,-1
 357 960 l 2,0,1
EndSplineSet
EndChar

StartChar: parenright
Encoding: 41 41 146
Width: 1193
Flags: HW
LayerCount: 2
Fore
SplineSet
357 -242 m 1,0,1
 497.548 -213.483 497.548 -213.483 590.5 -61 c 0,2,3
 686 95.6629 686 95.6629 686 319 c 2,4,-1
 686 1069 l 2,5,6
 686 1291.34 686 1291.34 590.5 1448 c 0,7,8
 497.548 1600.48 497.548 1600.48 357 1629 c 1,9,-1
 357 1777 l 1,10,11
 476 1768 476 1768 578.5 1704 c 128,-1,12
 681 1640 681 1640 756 1532.5 c 0,13,14
 916 1303.17 916 1303.17 916 960 c 2,15,-1
 916 429 l 2,16,17
 916 95.8947 916 95.8947 752 -135 c 0,18,19
 594.282 -357.05 594.282 -357.05 357 -388 c 1,20,-1
 357 -242 l 1,0,1
EndSplineSet
EndChar

StartChar: braceleft
Encoding: 123 123 147
Width: 1193
Flags: HW
LayerCount: 2
Fore
SplineSet
445 466 m 2,0,1
 445 616.211 445 616.211 269 644 c 1,2,-1
 269 743 l 1,3,4
 445 760.6 445 760.6 445 933 c 2,5,-1
 445 1249 l 2,6,7
 445 1472.59 445 1472.59 608 1619.5 c 0,8,9
 763.119 1759.31 763.119 1759.31 1004 1778 c 1,10,-1
 1004 1632 l 1,11,12
 866.28 1620.02 866.28 1620.02 770 1543 c 0,13,14
 674 1466.2 674 1466.2 674 1358 c 2,15,-1
 674 950 l 2,16,17
 674 831.089 674 831.089 545.5 740 c 0,18,19
 506 712 506 712 460 692 c 1,20,21
 608.719 635.044 608.719 635.044 658.5 513 c 0,22,23
 674 475 674 475 674 435 c 2,24,-1
 674 21 l 2,25,26
 674 -84.9 674 -84.9 770 -158.5 c 0,27,28
 864.346 -230.832 864.346 -230.832 1004 -245 c 1,29,-1
 1004 -391 l 1,30,31
 762.786 -376.691 762.786 -376.691 606.5 -238 c 0,32,33
 445 -94.6821 445 -94.6821 445 129 c 2,34,-1
 445 466 l 2,0,1
EndSplineSet
EndChar

StartChar: braceright
Encoding: 125 125 148
Width: 1193
Flags: HW
LayerCount: 2
Fore
SplineSet
1004 644 m 1,0,1
 828 616.211 828 616.211 828 466 c 2,2,-1
 828 129 l 2,3,4
 828 -89.9073 828 -89.9073 664.5 -235 c 0,5,6
 509.758 -372.32 509.758 -372.32 269 -391 c 1,7,-1
 269 -245 l 1,8,9
 408.654 -230.832 408.654 -230.832 503 -158.5 c 0,10,11
 599 -84.9 599 -84.9 599 21 c 2,12,-1
 599 435 l 2,13,14
 599 512.825 599 512.825 659.5 585 c 0,15,16
 718.046 654.844 718.046 654.844 813 692 c 1,17,18
 665.884 755.963 665.884 755.963 615.5 872 c 0,19,20
 599 910 599 910 599 950 c 2,21,-1
 599 1358 l 2,22,23
 599 1466.2 599 1466.2 503 1543 c 0,24,25
 406.72 1620.02 406.72 1620.02 269 1632 c 1,26,-1
 269 1778 l 1,27,28
 510.928 1763.65 510.928 1763.65 666.5 1622.5 c 0,29,30
 828 1475.97 828 1475.97 828 1249 c 2,31,-1
 828 933 l 2,32,33
 828 803.492 828 803.492 931.5 760.5 c 0,34,35
 964 747 964 747 1004 743 c 1,36,-1
 1004 644 l 1,0,1
EndSplineSet
EndChar

StartChar: currency
Encoding: 65556 -1 149
Width: 1365
Flags: HW
LayerCount: 2
Fore
SplineSet
1138 406 m 2,0,1
 1138 350 1138 350 1122 304 c 1,2,-1
 1307 126 l 1,3,-1
 1215 39 l 1,4,-1
 1049 191 l 1,5,6
 1004 152 1004 152 949 152 c 2,7,-1
 497 152 l 2,8,9
 442 152 442 152 395 191 c 1,10,-1
 230 39 l 1,11,-1
 138 126 l 1,12,-1
 323 304 l 1,13,14
 307 350 307 350 307 406 c 2,15,-1
 307 790 l 2,16,17
 307 842 307 842 320 884 c 1,18,-1
 138 1059 l 1,19,-1
 230 1146 l 1,20,-1
 388 1000 l 1,21,22
 437.286 1045 437.286 1045 497 1045 c 2,23,-1
 948 1045 l 2,24,25
 1006.71 1045 1006.71 1045 1056 1000 c 1,26,-1
 1215 1146 l 1,27,-1
 1307 1059 l 1,28,-1
 1124 883 l 1,29,30
 1138 838 1138 838 1138 790 c 2,31,-1
 1138 406 l 2,0,1
900 325 m 1,32,-1
 900 874 l 1,33,-1
 545 874 l 1,34,-1
 545 325 l 1,35,-1
 900 325 l 1,32,-1
EndSplineSet
EndChar

StartChar: cent
Encoding: 162 162 150
Width: 1365
Flags: HW
LayerCount: 2
Fore
SplineSet
267 894 m 2,0,1
 267 999.412 267 999.412 322.5 1074.5 c 0,2,3
 376.826 1148 376.826 1148 455 1148 c 2,4,-1
 657 1148 l 1,5,-1
 657 1408 l 1,6,-1
 813 1408 l 1,7,-1
 813 1148 l 1,8,-1
 987 1148 l 2,9,10
 1066.61 1148 1066.61 1148 1122 1074.5 c 0,11,12
 1178 1000.19 1178 1000.19 1178 894 c 2,13,-1
 1177 727 l 1,14,-1
 939 727 l 1,15,-1
 939 979 l 1,16,-1
 813 979 l 1,17,-1
 813 274 l 1,18,-1
 939 274 l 1,19,-1
 939 390 l 1,20,-1
 1177 390 l 1,21,-1
 1177 355 l 2,22,23
 1177 250.231 1177 250.231 1121 177 c 0,24,25
 1064.41 103 1064.41 103 987 103 c 2,26,-1
 813 103 l 1,27,-1
 813 -156 l 1,28,-1
 656 -156 l 1,29,-1
 656 103 l 1,30,-1
 455 103 l 2,31,32
 378 103 378 103 322.5 177 c 128,-1,33
 267 251 267 251 267 355 c 2,34,-1
 267 894 l 2,0,1
656 452.5 m 1,35,-1
 657 799.5 l 1,36,-1
 657 979 l 1,37,-1
 506 979 l 1,38,-1
 506 274 l 1,39,-1
 656 274 l 1,40,41
 656 452.5 l 1,35,-1
EndSplineSet
EndChar

StartChar: paragraph
Encoding: 166 166 151
Width: 1715
Flags: HW
LayerCount: 2
Fore
SplineSet
434 249 m 2,0,1
 355.391 249 355.391 249 300 322.5 c 0,2,3
 244 396.808 244 396.808 244 501 c 2,4,-1
 244 1261 l 2,5,6
 244 1367.19 244 1367.19 300 1441.5 c 0,7,8
 355.391 1515 355.391 1515 434 1515 c 2,9,-1
 1517 1515 l 1,10,11
 1508.8 1443.23 1508.8 1443.23 1458.5 1394 c 0,12,13
 1407.41 1344 1407.41 1344 1342 1344 c 2,14,-1
 1274 1344 l 1,15,-1
 1274 -9 l 2,16,17
 1274 -114.855 1274 -114.855 1214.5 -189.5 c 0,18,19
 1154.32 -265 1154.32 -265 1072 -265 c 2,20,-1
 1056 -265 l 1,21,-1
 1056 1344 l 1,22,-1
 914 1344 l 1,23,-1
 914 -14 l 2,24,25
 914 -118.6 914 -118.6 853.5 -194.5 c 0,26,27
 793.319 -270 793.319 -270 711 -270 c 2,28,-1
 695 -270 l 1,29,-1
 695 249 l 1,30,-1
 434 249 l 2,0,1
EndSplineSet
EndChar

StartChar: Oslash
Encoding: 175 175 152
Width: 1399
Flags: HW
LayerCount: 2
Fore
SplineSet
1118 1466 m 1,0,1
 1196 1388 1196 1388 1196 1262 c 2,2,-1
 1195 252 l 2,3,4
 1195 147.231 1195 147.231 1139 74 c 0,5,6
 1082.41 -2.76091e-05 1082.41 -2.76091e-05 1005 0 c 2,7,-1
 428 0 l 1,8,-1
 345 -177 l 1,9,-1
 194 -177 l 1,10,-1
 304 59 l 1,11,12
 237 134.645 237 134.645 237 252 c 2,13,-1
 237 1262 l 2,14,15
 237 1367.41 237 1367.41 292.5 1442.5 c 0,16,17
 346.826 1516 346.826 1516 425 1516 c 2,18,-1
 981 1516 l 1,19,-1
 1075 1717 l 1,20,-1
 1236 1717 l 1,21,-1
 1118 1466 l 1,0,1
903 1347 m 1,22,-1
 476 1347 l 1,23,-1
 476 429 l 1,24,-1
 903 1347 l 1,22,-1
957 171 m 1,25,-1
 957 1123 l 1,26,-1
 509 171 l 1,27,-1
 957 171 l 1,25,-1
EndSplineSet
EndChar

StartChar: AE
Encoding: 174 174 153
Width: 1868
Flags: HW
LayerCount: 2
Fore
SplineSet
281 512 m 1,0,-1
 40 512 l 1,1,2
 49.5158 616.674 49.5158 616.674 144.5 660 c 0,3,4
 173 673 173 673 205 673 c 2,5,-1
 308 673 l 1,6,-1
 421 1327 l 2,7,8
 434.758 1407.58 434.758 1407.58 493.5 1463 c 0,9,10
 549.68 1516 549.68 1516 616 1516 c 2,11,-1
 1728 1516 l 1,12,-1
 1728 1347 l 1,13,-1
 1152 1347 l 1,14,-1
 1152 673 l 1,15,-1
 1598 673 l 1,16,-1
 1598 512 l 1,17,-1
 1152 512 l 1,18,-1
 1152 171 l 1,19,-1
 1817 171 l 1,20,21
 1808.8 99.2269 1808.8 99.2269 1758.5 50 c 0,22,23
 1707.41 4.14859e-05 1707.41 4.14859e-05 1642 0 c 2,24,-1
 1102 0 l 2,25,26
 1023 0 1023 0 967.5 74 c 128,-1,27
 912 148 912 148 912 252 c 2,28,-1
 912 512 l 1,29,-1
 510 512 l 1,30,-1
 429 0 l 1,31,-1
 193 0 l 1,32,-1
 281 512 l 1,0,-1
912 673 m 1,33,-1
 912 1347 l 1,34,-1
 643 1347 l 1,35,-1
 536 673 l 1,36,-1
 912 673 l 1,33,-1
EndSplineSet
EndChar

StartChar: eth
Encoding: 65557 -1 154
Width: 1365
Flags: HW
LayerCount: 2
Fore
SplineSet
237 706 m 2,0,1
 237 811.412 237 811.412 292.5 886.5 c 0,2,3
 346.826 960 346.826 960 425 960 c 2,4,-1
 794 960 l 1,5,-1
 587 1245 l 1,6,-1
 263 1133 l 1,7,-1
 263 1294 l 1,8,-1
 494 1373 l 1,9,-1
 335 1593 l 1,10,-1
 604 1593 l 1,11,-1
 710 1448 l 1,12,-1
 1035 1560 l 1,13,-1
 1035 1399 l 1,14,-1
 804 1319 l 1,15,-1
 1087 933 l 1,16,17
 1139 857.167 1139 857.167 1139 758 c 2,18,-1
 1138 252 l 2,19,20
 1138 147.231 1138 147.231 1082 74 c 0,21,22
 1025.41 -2.76091e-05 1025.41 -2.76091e-05 948 0 c 2,23,-1
 425 0 l 2,24,25
 348 0 348 0 292.5 74 c 128,-1,26
 237 148 237 148 237 252 c 2,27,-1
 237 706 l 2,0,1
910 171 m 1,28,-1
 910 789 l 1,29,-1
 466 789 l 1,30,-1
 466 171 l 1,31,-1
 910 171 l 1,28,-1
EndSplineSet
EndChar

StartChar: Thorn
Encoding: 65558 -1 155
Width: 1365
Flags: HW
LayerCount: 2
Fore
SplineSet
238 307 m 1,0,-1
 -50 307 l 1,1,2
 -42 377 -42 377 8.5 427.5 c 128,-1,3
 59 478 59 478 125 478 c 2,4,-1
 237 478 l 1,5,-1
 237 1516 l 1,6,-1
 476 1516 l 1,7,-1
 476 1256 l 1,8,-1
 982 1256 l 2,9,10
 1060.61 1256 1060.61 1256 1116 1182.5 c 0,11,12
 1172 1108.19 1172 1108.19 1172 1002 c 2,13,-1
 1172 559 l 2,14,15
 1172 454.808 1172 454.808 1116 380.5 c 0,16,17
 1060.61 307 1060.61 307 982 307 c 2,18,-1
 478 307 l 1,19,-1
 478 0 l 1,20,-1
 238 0 l 1,21,-1
 238 307 l 1,0,-1
939 478 m 1,22,-1
 939 1087 l 1,23,-1
 477 1087 l 1,24,-1
 477 478 l 1,25,-1
 939 478 l 1,22,-1
EndSplineSet
EndChar

StartChar: foundryicon
Encoding: 65559 -1 156
Width: 2999
Flags: HW
LayerCount: 2
Fore
SplineSet
392 232 m 2,0,1
 309 232 309 232 251 290 c 128,-1,2
 193 348 193 348 193 431 c 2,3,-1
 193 1088 l 2,4,5
 193 1171 193 1171 251 1229 c 128,-1,6
 309 1287 309 1287 392 1287 c 2,7,-1
 1248 1287 l 2,8,9
 1329 1287 1329 1287 1388 1228 c 0,10,11
 1446 1170 1446 1170 1446 1088 c 2,12,-1
 1446 436 l 2,13,14
 1446 347.727 1446 347.727 1383.5 287.5 c 0,15,16
 1325.91 232 1325.91 232 1251 232 c 2,17,-1
 392 232 l 2,0,1
2421 1014 m 2,18,19
 2371.89 1014 2371.89 1014 2346 1055 c 1,20,-1
 2346 545 l 1,21,-1
 2206 545 l 1,22,-1
 2206 1284 l 1,23,-1
 2636 1285 l 2,24,25
 2672 1285 2672 1285 2698 1259.5 c 128,-1,26
 2724 1234 2724 1234 2724 1198 c 2,27,-1
 2724 1100 l 2,28,29
 2724 1043.62 2724 1043.62 2670 1020 c 0,30,31
 2654 1013 2654 1013 2636 1013 c 2,32,-1
 2421 1014 l 2,18,19
2024 1055 m 1,33,34
 2007.6 1014 2007.6 1014 1955 1014 c 2,35,-1
 1926 1014 l 2,36,37
 1868.94 1014 1868.94 1014 1846.5 1067.5 c 0,38,39
 1840 1083 1840 1083 1840 1101 c 2,40,-1
 1840 1284 l 1,41,-1
 1978 1284 l 1,42,-1
 1978 1128 l 1,43,-1
 2024 1128 l 1,44,-1
 2024 1284 l 1,45,-1
 2164 1284 l 1,46,-1
 2164 632 l 2,47,48
 2164 596 2164 596 2139 570.5 c 128,-1,49
 2114 545 2114 545 2077 545 c 2,50,-1
 1735 545 l 2,51,52
 1700.61 545 1700.61 545 1681.3 563.5 c 0,53,54
 1648 595.417 1648 595.417 1648 632 c 2,55,-1
 1648 654 l 1,56,-1
 2024 654 l 1,57,-1
 2024 773 l 1,58,59
 2019 742 2019 742 1995 721 c 128,-1,60
 1971 700 1971 700 1938 700 c 2,61,-1
 1734 700 l 2,62,63
 1679.16 700 1679.16 700 1655 753.5 c 0,64,65
 1648 769 1648 769 1648 787 c 2,66,-1
 1648 857 l 1,67,-1
 1615 857 l 1,68,-1
 1615 967 l 1,69,-1
 1648 967 l 1,70,-1
 1648 1238 l 1,71,-1
 1787 1284 l 1,72,-1
 1787 967 l 1,73,-1
 1981 967 l 1,74,-1
 1981 857 l 1,75,-1
 1787 857 l 1,76,-1
 1787 810 l 1,77,-1
 2024 810 l 1,78,-1
 2024 1055 l 1,33,34
2584 1128 m 1,79,-1
 2584 1176 l 1,80,-1
 2346 1176 l 1,81,-1
 2346 1128 l 1,82,-1
 2584 1128 l 1,79,-1
963 593 m 2,83,84
 963 518.484 963 518.484 1015.5 488 c 0,85,86
 1031 479 1031 479 1049 479 c 2,87,-1
 1161 479 l 2,88,89
 1190 479 1190 479 1212.5 501 c 128,-1,90
 1235 523 1235 523 1240 555 c 1,91,-1
 1071 555 l 1,92,-1
 1071 878 l 1,93,-1
 1200 878 l 1,94,-1
 1200 947 l 1,95,-1
 1071 947 l 1,96,-1
 1071 1124 l 1,97,-1
 963 1071 l 1,98,-1
 963 947 l 1,99,-1
 886 947 l 1,100,-1
 886 878 l 1,101,-1
 963 878 l 1,102,-1
 963 593 l 2,83,84
479 479 m 1,103,-1
 613 847 l 1,104,105
 619.887 804.298 619.887 804.298 648.444 771.649 c 128,-1,106
 677 739 677 739 692.608 713.459 c 128,-1,107
 708.216 687.919 708.216 687.919 708.216 669.959 c 128,-1,108
 708.216 652 708.216 652 708 648 c 0,109,110
 704 601 704 601 680.5 580.5 c 128,-1,111
 657 560 657 560 628 557 c 1,112,113
 620.452 479 620.452 479 695 479 c 2,114,-1
 822 479 l 2,115,116
 850 479 850 479 872 500.5 c 128,-1,117
 894 522 894 522 903 557 c 1,118,-1
 737 557 l 1,119,120
 771 566 771 566 795 594.5 c 128,-1,121
 819 623 819 623 820.5 655 c 128,-1,122
 822 687 822 687 814.5 711.5 c 128,-1,123
 807 736 807 736 794.5 758.5 c 0,124,125
 771.138 800.552 771.138 800.552 743.069 823.776 c 2,126,-1
 700 859 l 2,127,128
 634.394 911.485 634.394 911.485 659 973 c 1,129,-1
 556 973 l 1,130,-1
 373 479 l 1,131,-1
 479 479 l 1,103,-1
2390 879 m 2,132,133
 2390 936.375 2390 936.375 2444 960 c 0,134,135
 2460 967 2460 967 2477 967 c 2,136,-1
 2637 967 l 2,137,138
 2673 967 2673 967 2699 941.5 c 128,-1,139
 2725 916 2725 916 2725 879 c 2,140,-1
 2725 701 l 1,141,-1
 2531 701 l 1,142,-1
 2531 654 l 1,143,-1
 2725 654 l 1,144,-1
 2725 632 l 2,145,146
 2725 596 2725 596 2699 570.5 c 128,-1,147
 2673 545 2673 545 2637 545 c 2,148,-1
 2477 545 l 2,149,150
 2442 545 2442 545 2416 570 c 128,-1,151
 2390 595 2390 595 2390 632 c 2,152,-1
 2390 879 l 2,132,133
2585 810 m 1,153,-1
 2585 857 l 1,154,-1
 2531 857 l 1,155,-1
 2531 810 l 1,156,-1
 2585 810 l 1,153,-1
1647 409 m 2,157,158
 1647 464.839 1647 464.839 1700.5 489 c 0,159,160
 1716 496 1716 496 1734 496 c 2,161,-1
 2072 496 l 2,162,163
 2109 496 2109 496 2134 470.5 c 128,-1,164
 2159 445 2159 445 2159 409 c 2,165,-1
 2159 387 l 1,166,-1
 1787 387 l 1,167,-1
 1787 340 l 1,168,-1
 2207 340 l 1,169,-1
 2207 410 l 2,170,171
 2207 444.391 2207 444.391 2225.5 463.696 c 0,172,173
 2257.42 497 2257.42 497 2293 497 c 2,174,-1
 2637 497 l 2,175,176
 2693.84 497 2693.84 497 2718 443.5 c 0,177,178
 2725 428 2725 428 2725 410 c 2,179,-1
 2725 318 l 2,180,181
 2725 282 2725 282 2699 256.5 c 128,-1,182
 2673 231 2673 231 2637 231 c 2,183,-1
 2293 231 l 2,184,185
 2258 231 2258 231 2233 255.5 c 128,-1,186
 2208 280 2208 280 2207 315 c 1,187,188
 2203.74 259.567 2203.74 259.567 2153.5 238.5 c 0,189,190
 2138 232 2138 232 2120 232 c 2,191,-1
 1734 231 l 2,192,193
 1699.61 231 1699.61 231 1680.3 249.5 c 0,194,195
 1647 281.417 1647 281.417 1647 318 c 2,196,-1
 1647 409 l 2,157,158
2585 340 m 1,197,-1
 2585 387 l 1,198,-1
 2347 387 l 1,199,-1
 2347 340 l 1,200,-1
 2585 340 l 1,197,-1
EndSplineSet
EndChar

StartChar: Lslash
Encoding: 321 321 157
Width: 1193
Flags: HW
LayerCount: 2
Fore
SplineSet
30 0 m 1,0,1
 36.1541 69.7466 36.1541 69.7466 87.5 120 c 0,2,3
 139.609 171 139.609 171 205 171 c 2,4,-1
 267 171 l 1,5,-1
 267 639 l 1,6,-1
 30 563 l 1,7,-1
 30 732 l 1,8,-1
 267 808 l 1,9,-1
 267 1262 l 2,10,11
 267 1367.41 267 1367.41 322.5 1442.5 c 0,12,13
 376.826 1516 376.826 1516 456 1516 c 2,14,-1
 776 1516 l 1,15,-1
 776 1357 l 1,16,-1
 505 1357 l 1,17,-1
 505 884 l 1,18,-1
 860 999 l 1,19,-1
 860 830 l 1,20,-1
 505 715 l 1,21,-1
 505 416 l 2,22,23
 505 321.163 505 321.163 454.5 246 c 0,24,25
 410.21 180.08 410.21 180.08 358 171 c 1,26,-1
 944 171 l 1,27,-1
 944 371 l 1,28,-1
 1155 371 l 1,29,-1
 1155 170 l 2,30,31
 1155 100.163 1155 100.163 1100.5 49 c 0,32,33
 1048.3 -2.57209e-05 1048.3 -2.57209e-05 980 0 c 2,34,-1
 30 0 l 1,0,1
EndSplineSet
EndChar

StartChar: Eth
Encoding: 65560 -1 158
Width: 1366
Flags: HW
LayerCount: 2
Fore
SplineSet
237 549 m 1,0,-1
 44 549 l 1,1,-1
 44 703 l 1,2,-1
 237 703 l 1,3,-1
 237 982 l 2,4,5
 237 1084.64 237 1084.64 294.5 1159.5 c 0,6,7
 351.725 1234 351.725 1234 431 1234 c 2,8,-1
 476 1234 l 1,9,-1
 476 703 l 1,10,-1
 717 703 l 1,11,-1
 717 549 l 1,12,-1
 476 549 l 1,13,-1
 476 171 l 1,14,-1
 937 171 l 1,15,-1
 937 1347 l 1,16,-1
 43 1347 l 1,17,18
 48.9622 1416.56 48.9622 1416.56 100.5 1467 c 0,19,20
 150.565 1516 150.565 1516 218 1516 c 2,21,-1
 986 1516 l 2,22,23
 1066.17 1516 1066.17 1516 1120.5 1442.5 c 0,24,25
 1176 1367.41 1176 1367.41 1176 1262 c 2,26,-1
 1176 252 l 2,27,28
 1176 148 1176 148 1120.5 74 c 128,-1,29
 1065 -1.19209e-06 1065 -1.19209e-06 987 0 c 2,30,-1
 238 0 l 1,31,-1
 237 549 l 1,0,-1
EndSplineSet
EndChar

StartChar: c
Encoding: 99 99 179
Width: 1365
Flags: HW
LayerCount: 2
Fore
SplineSet
243 793 m 2,0,1
 243 897.412 243 897.412 298.5 972.5 c 0,2,3
 353.565 1047 353.565 1047 433 1047 c 2,4,-1
 959 1047 l 2,5,6
 1036.86 1047 1036.86 1047 1093 972.5 c 128,-1,7
 1149 898.192 1149 898.192 1149 793 c 2,8,-1
 1149 607 l 1,9,-1
 910 607 l 1,10,-1
 910 876 l 1,11,-1
 481 876 l 1,12,-1
 481 171 l 1,13,-1
 1181 171 l 1,14,15
 1172.8 99.2269 1172.8 99.2269 1122.5 50 c 0,16,17
 1071.41 4.14859e-05 1071.41 4.14859e-05 1006 0 c 2,18,-1
 433 0 l 2,19,20
 353.565 0 353.565 0 298.5 74.5 c 0,21,22
 243 149.588 243 149.588 243 254 c 2,23,-1
 243 793 l 2,0,1
EndSplineSet
EndChar

StartChar: underscore
Encoding: 95 95 180
Width: 1609
Flags: HW
LayerCount: 2
Fore
SplineSet
1648 -127 m 1,0,-1
 1648 -255 l 1,1,-1
 -38 -255 l 1,2,-1
 -38 -127 l 1,3,-1
 1648 -127 l 1,0,-1
EndSplineSet
EndChar

StartChar: asciicircum
Encoding: 94 94 181
Width: 1365
Flags: HW
LayerCount: 2
Fore
SplineSet
607 1515 m 1,0,-1
 809 1515 l 1,1,2
 1165 467 l 1,3,-1
 980 467 l 1,4,-1
 708 1333 l 1,5,-1
 452 467 l 1,6,-1
 267 467 l 1,7,-1
 607 1515 l 1,0,-1
EndSplineSet
EndChar

StartChar: kgreenlandic
Encoding: 312 312 182
Width: 1335
Flags: HW
LayerCount: 2
Fore
SplineSet
237 1047 m 1,0,-1
 476 1047 l 1,1,-1
 476 595 l 1,2,-1
 641 595 l 1,3,-1
 828 1047 l 1,4,-1
 1079 1047 l 1,5,-1
 878 598 l 1,6,7
 960.197 583.615 960.197 583.615 1013.5 511.5 c 0,8,9
 1068 437.765 1068 437.765 1068 341 c 2,10,-1
 1068 171 l 1,11,-1
 1258 171 l 1,12,13
 1249.8 99.2269 1249.8 99.2269 1199.5 50 c 0,14,15
 1148.41 4.14859e-05 1148.41 4.14859e-05 1083 0 c 2,16,-1
 1020 0 l 2,17,18
 942.145 0 942.145 0 886 74.5 c 128,-1,19
 830 148.808 830 148.808 830 254 c 2,20,-1
 830 427 l 1,21,-1
 476 427 l 1,22,-1
 476 0 l 1,23,-1
 237 0 l 1,24,-1
 237 1047 l 1,0,-1
EndSplineSet
EndChar

StartChar: brokenbar
Encoding: 65578 -1 183
Width: 855
Flags: HW
LayerCount: 2
Fore
SplineSet
349 1104 m 1,0,-1
 350 1523 l 1,1,-1
 350 1735 l 1,2,-1
 506 1735 l 1,3,-1
 506 892 l 1,4,-1
 349 892 l 1,5,-1
 349 1104 l 1,0,-1
349 -354 m 1,6,-1
 350 510 l 1,7,-1
 506 510 l 1,8,-1
 506 -354 l 1,9,-1
 349 -354 l 1,6,-1
EndSplineSet
EndChar

StartChar: backslash
Encoding: 92 92 184
Width: 1245
Flags: HW
LayerCount: 2
Fore
SplineSet
163 1769 m 1,0,-1
 333 1769 l 1,1,2
 1082 -176 l 1,3,-1
 909 -176 l 1,4,-1
 163 1769 l 1,0,-1
EndSplineSet
EndChar

StartChar: exclamdown
Encoding: 193 193 185
Width: 855
Flags: HW
LayerCount: 2
Fore
SplineSet
426.5 1206 m 0,0,1
 392 1206 392 1206 361.5 1219 c 128,-1,2
 331 1232 331 1232 308 1255 c 0,3,4
 259 1304 259 1304 259 1374 c 256,5,6
 259 1444 259 1444 308 1493 c 0,7,8
 358 1543 358 1543 427 1543 c 256,9,10
 496 1543 496 1543 546 1493 c 128,-1,11
 596 1443 596 1443 596 1374 c 256,12,13
 596 1305 596 1305 546 1255 c 0,14,15
 497 1206 497 1206 426.5 1206 c 0,0,1
268 250 m 2,16,-1
 365 1027 l 1,17,-1
 480 1027 l 1,18,-1
 581 253 l 2,19,20
 586 208 586 208 586 172.5 c 128,-1,21
 586 137 586 137 573.5 103 c 128,-1,22
 561 69 561 69 538.5 43.5 c 0,23,24
 490.412 -11 490.412 -11 422 -11 c 256,25,26
 355.294 -11 355.294 -11 308.5 44.5 c 0,27,28
 262 99.6512 262 99.6512 262 153.826 c 128,-1,29
 262 208 262 208 268 250 c 2,16,-1
EndSplineSet
EndChar

StartChar: questiondown
Encoding: 192 192 186
Width: 1193
Flags: HW
LayerCount: 2
Fore
SplineSet
647.5 1190 m 0,0,1
 613 1190 613 1190 582.5 1203 c 128,-1,2
 552 1216 552 1216 529 1239 c 0,3,4
 480 1288 480 1288 480 1358 c 256,5,6
 480 1428 480 1428 529 1477 c 0,7,8
 579 1527 579 1527 648 1527 c 256,9,10
 717 1527 717 1527 767 1477 c 128,-1,11
 817 1427 817 1427 817 1358 c 256,12,13
 817 1289 817 1289 767 1239 c 0,14,15
 718 1190 718 1190 647.5 1190 c 0,0,1
172 462 m 2,16,17
 172 582.419 172 582.419 241.5 660 c 0,18,19
 263 684 263 684 288 697 c 2,20,-1
 531 821 l 1,21,-1
 531 995 l 1,22,-1
 769 995 l 1,23,-1
 769 871 l 2,24,25
 769 748.45 769 748.45 706 676 c 0,26,27
 686 653 686 653 661 640 c 2,28,-1
 411 513 l 1,29,-1
 411 172 l 1,30,-1
 821 172 l 1,31,-1
 821 385 l 1,32,-1
 1060 385 l 1,33,-1
 1060 254 l 2,34,35
 1060 149.588 1060 149.588 1004.5 74.5 c 0,36,37
 949.435 -3.88714e-05 949.435 -3.88714e-05 870 0 c 2,38,-1
 362 0 l 2,39,40
 282.565 0 282.565 0 227.5 74.5 c 0,41,42
 172 149.588 172 149.588 172 254 c 2,43,-1
 172 462 l 2,16,17
EndSplineSet
EndChar

StartChar: quoteleft
Encoding: 212 212 187
Width: 855
Flags: HW
LayerCount: 2
Fore
SplineSet
510 1212 m 1,0,1
 592 1163.24 592 1163.24 592 1067 c 0,2,3
 592 996.578 592 996.578 543.5 947 c 0,4,5
 495.565 898 495.565 898 423 898 c 0,6,7
 353 898 353 898 304 947 c 0,8,9
 254 997 254 997 254 1053.5 c 128,-1,10
 254 1110 254 1110 263.5 1148.5 c 128,-1,11
 273 1187 273 1187 291 1223 c 0,12,13
 323.192 1287.38 323.192 1287.38 393 1372 c 1,14,-1
 507 1515 l 1,15,-1
 601 1470 l 1,16,-1
 510 1212 l 1,0,1
EndSplineSet
EndChar

StartChar: quoteright
Encoding: 213 213 188
Width: 855
Flags: HW
LayerCount: 2
Fore
SplineSet
345 1201 m 1,0,1
 263 1249.76 263 1249.76 263 1346 c 0,2,3
 263 1416.42 263 1416.42 311.5 1466 c 0,4,5
 359.435 1515 359.435 1515 432 1515 c 0,6,7
 502 1515 502 1515 551 1466 c 0,8,9
 601 1416 601 1416 601 1359 c 128,-1,10
 601 1302 601 1302 591.5 1264 c 128,-1,11
 582 1226 582 1226 564 1190 c 0,12,13
 531.808 1125.62 531.808 1125.62 462 1041 c 1,14,-1
 348 898 l 1,15,-1
 254 943 l 1,16,-1
 345 1201 l 1,0,1
EndSplineSet
EndChar

StartChar: quotedblbase
Encoding: 227 227 190
Width: 1161
Flags: HW
LayerCount: 2
Fore
SplineSet
789 12 m 1,0,1
 707 60.7568 707 60.7568 707 157 c 0,2,3
 707 227.422 707 227.422 755.5 277 c 0,4,5
 803.435 326 803.435 326 876 326 c 0,6,7
 946 326 946 326 995 277 c 0,8,9
 1045 227 1045 227 1045 170 c 128,-1,10
 1045 113 1045 113 1035.5 75.5 c 128,-1,11
 1026 38 1026 38 1008 1.5 c 0,12,13
 979.714 -55.8571 979.714 -55.8571 906 -148 c 2,14,-1
 792 -291 l 1,15,-1
 698 -246 l 1,16,-1
 789 12 l 1,0,1
274 12 m 1,17,18
 192 60.7568 192 60.7568 192 157 c 0,19,20
 192 227.422 192 227.422 240.5 277 c 0,21,22
 288.435 326 288.435 326 361 326 c 0,23,24
 431 326 431 326 480 277 c 0,25,26
 530 227 530 227 530 170 c 128,-1,27
 530 113 530 113 520.5 75.5 c 128,-1,28
 511 38 511 38 493 1.5 c 0,29,30
 464.714 -55.8571 464.714 -55.8571 391 -148 c 2,31,-1
 277 -291 l 1,32,-1
 183 -246 l 1,33,-1
 274 12 l 1,17,18
EndSplineSet
EndChar

StartChar: lozenge
Encoding: 215 215 191
AltUni2: 0025ca.ffffffff.0
Width: 1365
Flags: HW
LayerCount: 2
Fore
SplineSet
221 742 m 1,0,-1
 601 1487 l 1,1,-1
 830 1487 l 1,2,-1
 1204 742 l 1,3,-1
 832 0 l 1,4,-1
 603 0 l 1,5,-1
 221 742 l 1,0,-1
1006 742 m 1,6,-1
 712 1356 l 1,7,-1
 410 742 l 1,8,-1
 711 131 l 1,9,-1
 1006 742 l 1,6,-1
EndSplineSet
EndChar

StartChar: hungarumlaut
Encoding: 253 253 193
AltUni2: 0002dd.ffffffff.0
Width: 1598
Flags: HW
LayerCount: 2
Fore
SplineSet
424 1431 m 1,0,-1
 560 1793 l 2,1,2
 586.492 1862.29 586.492 1862.29 646.5 1886.5 c 0,3,4
 669.911 1895.95 669.911 1895.95 685.393 1895.95 c 0,5,6
 733.038 1895.95 733.038 1895.95 767.519 1874.97 c 0,7,8
 836.286 1833.15 836.286 1833.15 836.286 1749.64 c 0,9,10
 836.286 1680.96 836.286 1680.96 789 1628 c 2,11,-1
 548 1356 l 1,12,-1
 424 1431 l 1,0,-1
1118 1774 m 1,13,14
 1145.65 1841.16 1145.65 1841.16 1209 1863 c 0,15,16
 1228.33 1869.67 1228.33 1869.67 1243.83 1869.67 c 0,17,18
 1292.48 1869.67 1292.48 1869.67 1327.24 1844.83 c 0,19,20
 1390.52 1799.63 1390.52 1799.63 1390.52 1723.8 c 0,21,22
 1389.96 1647.97 1389.96 1647.97 1335 1593 c 2,23,-1
 1086 1344 l 1,24,-1
 960 1425 l 1,25,-1
 1118 1774 l 1,13,14
EndSplineSet
EndChar

StartChar: breve
Encoding: 249 249 194
AltUni2: 0002d8.ffffffff.0
Width: 1391
Flags: HW
LayerCount: 2
Fore
SplineSet
637 1459 m 2,0,1
 486.233 1459 486.233 1459 383 1567.5 c 0,2,3
 278 1677.86 278 1677.86 278 1846 c 1,4,-1
 429 1846 l 1,5,6
 429 1789.75 429 1789.75 498 1738 c 0,7,8
 570 1684 570 1684 660 1684 c 2,9,-1
 706 1684 l 2,10,11
 796.625 1684 796.625 1684 867.5 1738 c 0,12,13
 937 1790.95 937 1790.95 937 1846 c 1,14,-1
 1087 1846 l 1,15,16
 1087 1677.86 1087 1677.86 982 1567.5 c 0,17,18
 878.767 1459 878.767 1459 728 1459 c 2,19,-1
 637 1459 l 2,0,1
EndSplineSet
EndChar

StartChar: ogonek
Encoding: 254 254 195
AltUni2: 0002db.ffffffff.0
Width: 1132
Flags: HW
LayerCount: 2
Fore
SplineSet
760 111 m 1,0,-1
 926 59 l 1,1,-1
 579 -301 l 1,2,-1
 961 -301 l 1,3,-1
 961 -509 l 1,4,-1
 561 -509 l 2,5,6
 492.667 -509 492.667 -509 445 -457 c 0,7,8
 398 -405.727 398 -405.727 398 -348.864 c 128,-1,9
 398 -292 398 -292 411 -262.5 c 128,-1,10
 424 -233 424 -233 447 -207 c 1,11,-1
 760 111 l 1,0,-1
EndSplineSet
EndChar

StartChar: perthousand
Encoding: 228 228 196
Width: 2699
Flags: HW
LayerCount: 2
Fore
SplineSet
1918 414 m 2,0,1
 1918 480.275 1918 480.275 1961 526.5 c 0,2,3
 2004.26 573 2004.26 573 2066 573 c 2,4,-1
 2398 572 l 2,5,6
 2459.74 572 2459.74 572 2503 525.5 c 0,7,8
 2547 478.2 2547 478.2 2547 413 c 2,9,-1
 2547 158 l 2,10,11
 2547 91.725 2547 91.725 2504 45.5 c 0,12,13
 2460.74 -1.00005 2460.74 -1.00005 2399 -1 c 2,14,-1
 2067 0 l 2,15,16
 2005.84 0 2005.84 0 1961.5 46.5 c 0,17,18
 1918 92.1219 1918 92.1219 1918 159 c 2,19,-1
 1918 414 l 2,0,1
2336 108 m 1,20,-1
 2336 464 l 1,21,-1
 2130 464 l 1,22,-1
 2130 108 l 1,23,-1
 2336 108 l 1,20,-1
1269 1311 m 1,24,-1
 1446 1311 l 1,25,-1
 640 -59 l 1,26,-1
 462 -59 l 1,27,-1
 1269 1311 l 1,24,-1
313 615 m 2,28,29
 251.837 615 251.837 615 207.5 661.5 c 0,30,31
 164 707.122 164 707.122 164 774 c 2,32,-1
 164 1079 l 2,33,34
 164 1145.28 164 1145.28 207 1191.5 c 0,35,36
 250.256 1238 250.256 1238 312 1238 c 2,37,-1
 674 1237 l 2,38,39
 735.744 1237 735.744 1237 779 1190.5 c 0,40,41
 823 1143.2 823 1143.2 823 1078 c 2,42,-1
 823 773 l 2,43,44
 823 706.725 823 706.725 780 660.5 c 0,45,46
 736.744 614 736.744 614 675 614 c 2,47,-1
 313 615 l 2,28,29
612 723 m 1,48,-1
 612 1129 l 1,49,-1
 376 1129 l 1,50,-1
 376 723 l 1,51,-1
 612 723 l 1,48,-1
1080 464 m 2,52,53
 1080 530.275 1080 530.275 1123 576.5 c 0,54,55
 1166.26 623 1166.26 623 1228 623 c 2,56,-1
 1590 622 l 2,57,58
 1651.74 622 1651.74 622 1695 575.5 c 0,59,60
 1739 528.2 1739 528.2 1739 463 c 2,61,-1
 1739 158 l 2,62,63
 1739 91.725 1739 91.725 1696 45.5 c 0,64,65
 1652.74 -1.00005 1652.74 -1.00005 1591 -1 c 2,66,-1
 1229 0 l 2,67,68
 1167.84 0 1167.84 0 1123.5 46.5 c 0,69,70
 1080 92.1219 1080 92.1219 1080 159 c 2,71,-1
 1080 464 l 2,52,53
1528 108 m 1,72,-1
 1528 514 l 1,73,-1
 1292 514 l 1,74,-1
 1292 108 l 1,75,-1
 1528 108 l 1,72,-1
EndSplineSet
EndChar

StartChar: trademark
Encoding: 170 170 197
Width: 1882
Flags: HW
LayerCount: 2
Fore
SplineSet
917 1516 m 1,0,-1
 1048 1516 l 1,1,-1
 1048 1409 l 1,2,-1
 1170 1487 l 1,3,4
 1203.14 1516 1203.14 1516 1236.07 1516 c 128,-1,5
 1269 1516 1269 1516 1287.5 1508 c 128,-1,6
 1306 1500 1306 1500 1320 1487 c 0,7,8
 1351 1458.21 1351 1458.21 1351 1419 c 2,9,-1
 1351 1408 l 1,10,-1
 1475 1487 l 1,11,12
 1508.14 1516 1508.14 1516 1540.07 1516 c 128,-1,13
 1572 1516 1572 1516 1590.5 1508 c 128,-1,14
 1609 1500 1609 1500 1623.5 1487 c 0,15,16
 1655 1458.76 1655 1458.76 1655 1419 c 2,17,-1
 1655 955 l 1,18,-1
 1522 955 l 1,19,-1
 1522 1410 l 1,20,-1
 1351 1304 l 1,21,-1
 1351 955 l 1,22,-1
 1220 955 l 1,23,-1
 1220 1410 l 1,24,-1
 1048 1305 l 1,25,-1
 1048 955 l 1,26,-1
 917 955 l 1,27,-1
 917 1516 l 1,0,-1
378 1421 m 1,28,-1
 199 1421 l 1,29,-1
 200 1516 l 1,30,-1
 691 1516 l 1,31,-1
 691 1421 l 1,32,-1
 512 1421 l 1,33,-1
 512 955 l 1,34,-1
 378 955 l 1,35,-1
 378 1421 l 1,28,-1
EndSplineSet
EndChar

StartChar: daggerdbl
Encoding: 224 224 198
Width: 1365
Flags: HW
LayerCount: 2
Fore
SplineSet
217 527 m 1,0,1
 226.49 628.222 226.49 628.222 319.5 670.5 c 0,2,3
 347 683 347 683 377 683 c 2,4,-1
 565 683 l 1,5,-1
 565 892 l 1,6,-1
 217 892 l 1,7,8
 226.49 993.222 226.49 993.222 319.5 1035.5 c 0,9,10
 347 1048 347 1048 377 1048 c 2,11,-1
 565 1048 l 1,12,-1
 565 1578 l 1,13,-1
 803 1578 l 1,14,-1
 803 1048 l 1,15,-1
 1140 1048 l 1,16,17
 1130.51 946.777 1130.51 946.777 1037.5 904.5 c 0,18,19
 1010 892 1010 892 980 892 c 2,20,-1
 803 892 l 1,21,-1
 803 683 l 1,22,-1
 1140 683 l 1,23,24
 1130.51 581.777 1130.51 581.777 1037.5 539.5 c 0,25,26
 1010 527 1010 527 980 527 c 2,27,-1
 803 527 l 1,28,-1
 803 -269 l 2,29,30
 803 -374.855 803 -374.855 743.5 -449.5 c 0,31,32
 683.319 -525 683.319 -525 601 -525 c 2,33,-1
 565 -525 l 1,34,-1
 565 527 l 1,35,-1
 217 527 l 1,0,1
EndSplineSet
EndChar

StartChar: notequal
Encoding: 173 173 199
AltUni2: 002260.ffffffff.0
Width: 1365
Flags: HW
LayerCount: 2
Fore
SplineSet
290 376 m 1,0,-1
 584 376 l 1,1,-1
 702 683 l 1,2,-1
 290 683 l 1,3,-1
 290 859 l 1,4,-1
 769 859 l 1,5,-1
 870 1121 l 1,6,-1
 1042 1121 l 1,7,-1
 941 859 l 1,8,-1
 1165 859 l 1,9,-1
 1165 683 l 1,10,-1
 874 683 l 1,11,-1
 756 376 l 1,12,-1
 1165 376 l 1,13,-1
 1165 201 l 1,14,-1
 689 201 l 1,15,-1
 590 -59 l 1,16,-1
 417 -59 l 1,17,-1
 517 201 l 1,18,-1
 290 201 l 1,19,-1
 290 376 l 1,0,-1
EndSplineSet
EndChar

StartChar: lessequal
Encoding: 178 178 200
AltUni2: 002264.ffffffff.0
Width: 1365
Flags: HW
LayerCount: 2
Fore
SplineSet
290 807 m 1,0,1
 1126 1065 l 1,2,-1
 1126 883 l 1,3,-1
 478 715 l 1,4,-1
 1126 544 l 1,5,-1
 1126 363 l 1,6,-1
 290 621 l 1,7,-1
 290 807 l 1,0,1
290 259 m 1,8,-1
 1126 259 l 1,9,-1
 1126 83 l 1,10,-1
 290 83 l 1,11,-1
 290 259 l 1,8,-1
EndSplineSet
EndChar

StartChar: greaterequal
Encoding: 179 179 201
AltUni2: 002265.ffffffff.0
Width: 1365
Flags: HW
LayerCount: 2
Fore
SplineSet
290 544 m 1,0,1
 938 715 l 1,2,-1
 290 883 l 1,3,-1
 290 1065 l 1,4,-1
 1126 807 l 1,5,-1
 1126 621 l 1,6,-1
 290 363 l 1,7,-1
 290 544 l 1,0,1
290 259 m 1,8,-1
 1126 259 l 1,9,-1
 1126 83 l 1,10,-1
 290 83 l 1,11,-1
 290 259 l 1,8,-1
EndSplineSet
EndChar

StartChar: lcaron
Encoding: 318 318 202
Width: 904
Flags: HW
LayerCount: 2
Fore
SplineSet
172 1591 m 1,0,-1
 411 1591 l 1,1,-1
 411 171 l 1,2,-1
 624 171 l 1,3,4
 605.762 49.4159 605.762 49.4159 508.5 11.5 c 0,5,6
 479 0 479 0 447 0 c 2,7,-1
 363 0 l 2,8,9
 284.145 0 284.145 0 228 74.5 c 128,-1,10
 172 148.808 172 148.808 172 254 c 2,11,-1
 172 1591 l 1,0,-1
672 1201 m 1,12,13
 590 1249.76 590 1249.76 590 1346 c 0,14,15
 590 1416.42 590 1416.42 638.5 1466 c 0,16,17
 686.435 1515 686.435 1515 759 1515 c 0,18,19
 829 1515 829 1515 878 1466 c 0,20,21
 928 1416 928 1416 928 1359 c 128,-1,22
 928 1302 928 1302 918.5 1264 c 128,-1,23
 909 1226 909 1226 891 1190 c 0,24,25
 858.808 1125.62 858.808 1125.62 789 1041 c 1,26,-1
 675 898 l 1,27,-1
 581 943 l 1,28,-1
 672 1201 l 1,12,13
EndSplineSet
EndChar

StartChar: Lcaron
Encoding: 317 317 203
Width: 1176
Flags: HW
LayerCount: 2
Fore
SplineSet
21 0 m 1,0,1
 27.1541 69.7466 27.1541 69.7466 78.5 120 c 0,2,3
 130.609 171 130.609 171 196 171 c 2,4,-1
 258 171 l 1,5,-1
 258 1262 l 2,6,7
 258 1367.41 258 1367.41 313.5 1442.5 c 0,8,9
 367.826 1516 367.826 1516 447 1516 c 2,10,-1
 679 1516 l 1,11,-1
 679 1357 l 1,12,-1
 496 1357 l 1,13,-1
 496 416 l 2,14,15
 496 321.163 496 321.163 445.5 246 c 0,16,17
 401.21 180.08 401.21 180.08 349 171 c 1,18,-1
 905 171 l 1,19,-1
 905 351 l 1,20,-1
 1116 351 l 1,21,-1
 1116 170 l 2,22,23
 1116 100.163 1116 100.163 1061.5 49 c 0,24,25
 1009.3 -2.57209e-05 1009.3 -2.57209e-05 941 0 c 2,26,-1
 21 0 l 1,0,1
954 1201 m 1,27,28
 872 1249.76 872 1249.76 872 1346 c 0,29,30
 872 1416.42 872 1416.42 920.5 1466 c 0,31,32
 968.435 1515 968.435 1515 1041 1515 c 0,33,34
 1111 1515 1111 1515 1160 1466 c 0,35,36
 1210 1416 1210 1416 1210 1359 c 128,-1,37
 1210 1302 1210 1302 1200.5 1264 c 128,-1,38
 1191 1226 1191 1226 1173 1190 c 0,39,40
 1140.81 1125.62 1140.81 1125.62 1071 1041 c 1,41,-1
 957 898 l 1,42,-1
 863 943 l 1,43,-1
 954 1201 l 1,27,28
EndSplineSet
EndChar

StartChar: OE
Encoding: 206 206 205
Width: 1850
Flags: HW
LayerCount: 2
Fore
SplineSet
203 1262 m 2,0,1
 203 1367.41 203 1367.41 258.5 1442.5 c 0,2,3
 312.826 1516 312.826 1516 391 1516 c 2,4,-1
 880 1516 l 2,5,6
 929 1516 929 1516 973 1482.5 c 128,-1,7
 1017 1449 1017 1449 1046 1392 c 1,8,9
 1075 1449 1075 1449 1119 1482.5 c 128,-1,10
 1163 1516 1163 1516 1212 1516 c 2,11,-1
 1739 1516 l 1,12,-1
 1739 1343 l 1,13,-1
 1163 1343 l 1,14,-1
 1163 755 l 1,15,-1
 1609 755 l 1,16,-1
 1609 594 l 1,17,-1
 1163 594 l 1,18,-1
 1163 171 l 1,19,-1
 1828 171 l 1,20,21
 1819.8 99.2269 1819.8 99.2269 1769.5 50 c 0,22,23
 1718.41 4.14859e-05 1718.41 4.14859e-05 1653 0 c 2,24,-1
 1206 0 l 2,25,26
 1157 0 1157 0 1113 33.5 c 128,-1,27
 1069 67 1069 67 1040 124 c 1,28,29
 1011 67 1011 67 967 33.5 c 128,-1,30
 923 0 923 0 874 0 c 2,31,-1
 391 0 l 2,32,33
 314 0 314 0 258.5 74 c 128,-1,34
 203 148 203 148 203 252 c 2,35,-1
 203 1262 l 2,0,1
923 171 m 1,36,-1
 923 1343 l 1,37,-1
 442 1343 l 1,38,-1
 442 171 l 1,39,-1
 923 171 l 1,36,-1
EndSplineSet
EndChar

StartChar: hbar
Encoding: 295 295 206
Width: 1337
Flags: HW
LayerCount: 2
Fore
SplineSet
476 933 m 1,0,1
 535.111 1047 535.111 1047 636 1047 c 2,2,-1
 909 1047 l 2,3,4
 986.855 1047 986.855 1047 1043 972.5 c 128,-1,5
 1099 898.192 1099 898.192 1099 793 c 2,6,-1
 1099 171 l 1,7,-1
 1313 171 l 1,8,9
 1304.87 99.871 1304.87 99.871 1255 50 c 128,-1,10
 1205 0 1205 0 1140 0 c 2,11,-1
 1051 0 l 2,12,13
 972.145 0 972.145 0 916 74.5 c 128,-1,14
 860 148.808 860 148.808 860 254 c 2,15,-1
 860 876 l 1,16,-1
 476 876 l 1,17,-1
 476 0 l 1,18,-1
 237 0 l 1,19,-1
 237 1237 l 1,20,-1
 46 1237 l 1,21,-1
 46 1391 l 1,22,-1
 237 1391 l 1,23,-1
 237 1590 l 1,24,-1
 476 1590 l 1,25,-1
 476 1391 l 1,26,-1
 888 1391 l 1,27,-1
 888 1237 l 1,28,-1
 476 1237 l 1,29,-1
 476 933 l 1,0,1
EndSplineSet
EndChar

StartChar: oe
Encoding: 207 207 208
Width: 2017
Flags: HW
LayerCount: 2
Fore
SplineSet
237 793 m 2,0,1
 237 898.412 237 898.412 292.5 973.5 c 0,2,3
 346.826 1047 346.826 1047 425 1047 c 2,4,-1
 855 1047 l 2,5,6
 904 1047 904 1047 948 1013.5 c 128,-1,7
 992 980 992 980 1021 923 c 1,8,9
 1050 980 1050 980 1094 1013.5 c 128,-1,10
 1138 1047 1138 1047 1187 1047 c 2,11,-1
 1620 1047 l 2,12,13
 1697.86 1047 1697.86 1047 1754 972.5 c 128,-1,14
 1810 898.192 1810 898.192 1810 793 c 2,15,-1
 1810 460 l 1,16,-1
 1138 460 l 1,17,-1
 1138 171 l 1,18,-1
 1862 171 l 1,19,20
 1853.8 99.2269 1853.8 99.2269 1803.5 50 c 0,21,22
 1752.41 4.14859e-05 1752.41 4.14859e-05 1687 0 c 2,23,-1
 1181 0 l 2,24,25
 1132 0 1132 0 1088 33.5 c 128,-1,26
 1044 67 1044 67 1015 124 c 1,27,28
 986 67 986 67 942 33.5 c 128,-1,29
 898 0 898 0 849 0 c 2,30,-1
 425 0 l 2,31,32
 348 0 348 0 292.5 74 c 128,-1,33
 237 148 237 148 237 252 c 2,34,-1
 237 793 l 2,0,1
1571 600 m 1,35,-1
 1571 876 l 1,36,-1
 1138 876 l 1,37,-1
 1138 600 l 1,38,-1
 1571 600 l 1,35,-1
898 171 m 1,39,-1
 898 876 l 1,40,-1
 476 876 l 1,41,-1
 476 171 l 1,42,-1
 898 171 l 1,39,-1
EndSplineSet
EndChar

StartChar: lslash
Encoding: 322 322 209
Width: 682
Flags: HW
LayerCount: 2
Fore
SplineSet
217 753 m 1,0,-1
 99 713 l 1,1,-1
 99 884 l 1,2,-1
 217 924 l 1,3,-1
 217 1591 l 1,4,-1
 456 1591 l 1,5,-1
 456 1007 l 1,6,-1
 671 1081 l 1,7,-1
 671 910 l 1,8,-1
 456 836 l 1,9,-1
 456 171 l 1,10,-1
 669 171 l 1,11,12
 650.762 49.4159 650.762 49.4159 553.5 11.5 c 0,13,14
 524 0 524 0 492 0 c 2,15,-1
 408 0 l 2,16,17
 329.145 0 329.145 0 273 74.5 c 128,-1,18
 217 148.808 217 148.808 217 254 c 2,19,-1
 217 753 l 1,0,-1
EndSplineSet
EndChar

StartChar: uni1E9E
Encoding: 7838 7838 210
Width: 1365
Flags: HW
LayerCount: 2
Fore
SplineSet
476 -269 m 2,0,1
 476 -374.855 476 -374.855 416.5 -449.5 c 0,2,3
 356.319 -525 356.319 -525 274 -525 c 2,4,-1
 237 -525 l 1,5,-1
 237 1261 l 2,6,7
 237 1366.41 237 1366.41 292.5 1441.5 c 0,8,9
 346.826 1515 346.826 1515 425 1515 c 2,10,-1
 998 1515 l 2,11,12
 1071.76 1515 1071.76 1515 1124 1459.5 c 0,13,14
 1176 1404.25 1176 1404.25 1176 1327 c 0,15,16
 1176 1272 1176 1272 1151 1232 c 1,17,-1
 945 886 l 1,18,-1
 1005 886 l 2,19,20
 1084.61 886 1084.61 886 1140 812.5 c 0,21,22
 1196 738.192 1196 738.192 1196 632 c 2,23,-1
 1195 252 l 2,24,25
 1195 147.231 1195 147.231 1139 74 c 0,26,27
 1082.41 -2.76091e-05 1082.41 -2.76091e-05 1005 0 c 2,28,-1
 684 0 l 1,29,-1
 684 171 l 1,30,-1
 957 171 l 1,31,-1
 957 717 l 1,32,-1
 683 717 l 1,33,-1
 683 849 l 1,34,-1
 957 1346 l 1,35,-1
 476 1346 l 1,36,-1
 476 -269 l 2,0,1
EndSplineSet
EndChar

StartChar: germandbls
Encoding: 167 167 245
Width: 1365
Flags: HW
LayerCount: 2
Fore
SplineSet
1081 1131 m 2,0,1
 1081 988.518 1081 988.518 968 909 c 1,2,3
 1066.69 888.518 1066.69 888.518 1124.5 803.5 c 0,4,5
 1174 730.706 1174 730.706 1174 645 c 2,6,-1
 1174 416 l 2,7,8
 1174 320.182 1174 320.182 1123 246 c 0,9,10
 1077.61 179.975 1077.61 179.975 1026 171 c 1,11,-1
 1269 171 l 1,12,13
 1263.18 101.181 1263.18 101.181 1211.5 49.5 c 0,14,15
 1162 0 1162 0 1094 0 c 2,16,-1
 676 0 l 1,17,18
 682.154 69.7466 682.154 69.7466 733.5 120 c 0,19,20
 785.609 171 785.609 171 851 171 c 2,21,-1
 932 171 l 1,22,-1
 932 806 l 1,23,-1
 712 806 l 1,24,-1
 712 977 l 1,25,-1
 839 977 l 1,26,-1
 839 1423 l 1,27,-1
 504 1423 l 1,28,-1
 504 0 l 1,29,-1
 266 0 l 1,30,-1
 266 1336 l 2,31,32
 266 1441.41 266 1441.41 321.5 1516.5 c 0,33,34
 376.565 1591 376.565 1591 456 1591 c 2,35,-1
 876 1591 l 2,36,37
 957.309 1591 957.309 1591 1018.5 1518 c 0,38,39
 1081 1443.44 1081 1443.44 1081 1339 c 2,40,-1
 1081 1131 l 2,0,1
EndSplineSet
EndChar

StartChar: oslash
Encoding: 191 191 246
Width: 1376
Flags: HW
LayerCount: 2
Fore
SplineSet
352 20 m 1,0,1
 301 49 301 49 269 111 c 128,-1,2
 237 173 237 173 237 252 c 2,3,-1
 237 793 l 2,4,5
 237 898.412 237 898.412 292.5 973.5 c 0,6,7
 346.826 1047 346.826 1047 425 1047 c 2,8,-1
 882 1047 l 1,9,-1
 973 1223 l 1,10,-1
 1124 1223 l 1,11,-1
 1023 1027 l 1,12,13
 1104.78 977.932 1104.78 977.932 1130.5 869 c 0,14,15
 1139 833 1139 833 1139 793 c 2,16,-1
 1138 252 l 2,17,18
 1138 147.231 1138 147.231 1082 74 c 0,19,20
 1025.41 -2.76091e-05 1025.41 -2.76091e-05 948 0 c 2,21,-1
 492 0 l 1,22,-1
 401 -177 l 1,23,-1
 250 -177 l 1,24,-1
 352 20 l 1,0,1
793 876 m 1,25,-1
 466 876 l 1,26,-1
 466 241 l 1,27,-1
 793 876 l 1,25,-1
910 171 m 1,28,-1
 910 808 l 1,29,-1
 581 171 l 1,30,-1
 910 171 l 1,28,-1
EndSplineSet
EndChar

StartChar: fi
Encoding: 222 222 247
AltUni2: 00fb01.ffffffff.0
Width: 1635
Flags: HW
LayerCount: 2
Fore
SplineSet
1286.5 1289 m 0,0,1
 1252 1289 1252 1289 1221.5 1302 c 128,-1,2
 1191 1315 1191 1315 1168 1338 c 0,3,4
 1119 1387 1119 1387 1119 1457 c 256,5,6
 1119 1527 1119 1527 1168 1576 c 0,7,8
 1218 1626 1218 1626 1287 1626 c 256,9,10
 1356 1626 1356 1626 1406 1576 c 128,-1,11
 1456 1526 1456 1526 1456 1457 c 256,12,13
 1456 1388 1456 1388 1406 1338 c 0,14,15
 1357 1289 1357 1289 1286.5 1289 c 0,0,1
531 -269 m 2,16,17
 531 -374.855 531 -374.855 471.5 -449.5 c 0,18,19
 411.319 -525 411.319 -525 329 -525 c 2,20,-1
 293 -525 l 1,21,-1
 293 894 l 1,22,-1
 213 894 l 1,23,-1
 213 1048 l 1,24,-1
 293 1048 l 1,25,-1
 293 1336 l 2,26,27
 293 1441.41 293 1441.41 348.5 1516.5 c 0,28,29
 403.565 1591 403.565 1591 483 1591 c 2,30,-1
 807 1591 l 1,31,-1
 807 1417 l 1,32,-1
 531 1417 l 1,33,-1
 531 1048 l 1,34,-1
 1409 1048 l 1,35,-1
 1409 171 l 1,36,-1
 1623 171 l 1,37,38
 1616.94 100.349 1616.94 100.349 1565.5 50 c 0,39,40
 1514.41 4.14859e-05 1514.41 4.14859e-05 1449 0 c 2,41,-1
 1361 0 l 2,42,43
 1282.14 0 1282.14 0 1226 74.5 c 128,-1,44
 1170 148.808 1170 148.808 1170 254 c 2,45,-1
 1170 894 l 1,46,-1
 531 894 l 1,47,-1
 531 -269 l 2,16,17
EndSplineSet
EndChar

StartChar: fl
Encoding: 223 223 248
AltUni2: 00fb02.ffffffff.0
Width: 1634
Flags: HW
LayerCount: 2
Fore
SplineSet
531 -269 m 2,0,1
 531 -374.855 531 -374.855 471.5 -449.5 c 0,2,3
 411.319 -525 411.319 -525 329 -525 c 2,4,-1
 293 -525 l 1,5,-1
 293 894 l 1,6,-1
 213 894 l 1,7,-1
 213 1048 l 1,8,-1
 293 1048 l 1,9,-1
 293 1336 l 2,10,11
 293 1441.41 293 1441.41 348.5 1516.5 c 0,12,13
 403.565 1591 403.565 1591 483 1591 c 2,14,-1
 1408 1591 l 1,15,-1
 1408 171 l 1,16,-1
 1621 171 l 1,17,18
 1602.76 49.4155 1602.76 49.4155 1505.5 11.5 c 0,19,20
 1476 0 1476 0 1444 0 c 2,21,-1
 1360 0 l 2,22,23
 1281.14 0 1281.14 0 1225 74.5 c 128,-1,24
 1169 148.808 1169 148.808 1169 254 c 2,25,-1
 1169 1417 l 1,26,-1
 531 1417 l 1,27,-1
 531 1048 l 1,28,-1
 777 1048 l 1,29,-1
 777 894 l 1,30,-1
 531 894 l 1,31,-1
 531 -269 l 2,0,1
EndSplineSet
EndChar

StartChar: ff
Encoding: 64256 64256 249
Width: 1704
Flags: HW
LayerCount: 2
Fore
SplineSet
531 -269 m 2,0,1
 531 -374.855 531 -374.855 471.5 -449.5 c 0,2,3
 411.319 -525 411.319 -525 329 -525 c 2,4,-1
 293 -525 l 1,5,-1
 293 894 l 1,6,-1
 213 894 l 1,7,-1
 213 1048 l 1,8,-1
 293 1048 l 1,9,-1
 293 1336 l 2,10,11
 293 1441.41 293 1441.41 348.5 1516.5 c 0,12,13
 403.565 1591 403.565 1591 483 1591 c 2,14,-1
 861 1591 l 1,15,-1
 861 1417 l 1,16,-1
 531 1417 l 1,17,-1
 531 1048 l 1,18,-1
 1145 1048 l 1,19,-1
 1145 1336 l 2,20,21
 1145 1441.41 1145 1441.41 1200.5 1516.5 c 0,22,23
 1255.57 1591 1255.57 1591 1335 1591 c 2,24,-1
 1713 1591 l 1,25,-1
 1713 1417 l 1,26,-1
 1383 1417 l 1,27,-1
 1383 1048 l 1,28,-1
 1629 1048 l 1,29,-1
 1629 894 l 1,30,-1
 1383 894 l 1,31,-1
 1383 -269 l 2,32,33
 1383 -374.855 1383 -374.855 1323.5 -449.5 c 0,34,35
 1263.32 -525 1263.32 -525 1181 -525 c 2,36,-1
 1145 -525 l 1,37,-1
 1145 894 l 1,38,-1
 531 894 l 1,39,-1
 531 -269 l 2,0,1
EndSplineSet
EndChar

StartChar: ffl
Encoding: 64260 64260 250
Width: 2386
Flags: HW
LayerCount: 2
Fore
SplineSet
531 -269 m 2,0,1
 531 -374.855 531 -374.855 471.5 -449.5 c 0,2,3
 411.319 -525 411.319 -525 329 -525 c 2,4,-1
 293 -525 l 1,5,-1
 293 894 l 1,6,-1
 213 894 l 1,7,-1
 213 1048 l 1,8,-1
 293 1048 l 1,9,-1
 293 1336 l 2,10,11
 293 1441.41 293 1441.41 348.5 1516.5 c 0,12,13
 403.565 1591 403.565 1591 483 1591 c 2,14,-1
 861 1591 l 1,15,-1
 861 1417 l 1,16,-1
 531 1417 l 1,17,-1
 531 1048 l 1,18,-1
 1145 1048 l 1,19,-1
 1145 1336 l 2,20,21
 1145 1441.41 1145 1441.41 1200.5 1516.5 c 0,22,23
 1255.57 1591 1255.57 1591 1335 1591 c 2,24,-1
 2160 1591 l 1,25,-1
 2160 171 l 1,26,-1
 2373 171 l 1,27,28
 2354.76 49.4163 2354.76 49.4163 2257.5 11.5 c 0,29,30
 2228 0 2228 0 2196 0 c 2,31,-1
 2112 0 l 2,32,33
 2033.14 0 2033.14 0 1977 74.5 c 128,-1,34
 1921 148.808 1921 148.808 1921 254 c 2,35,-1
 1921 1417 l 1,36,-1
 1383 1417 l 1,37,-1
 1383 1048 l 1,38,-1
 1629 1048 l 1,39,-1
 1629 894 l 1,40,-1
 1383 894 l 1,41,-1
 1383 -269 l 2,42,43
 1383 -374.855 1383 -374.855 1323.5 -449.5 c 0,44,45
 1263.32 -525 1263.32 -525 1181 -525 c 2,46,-1
 1145 -525 l 1,47,-1
 1145 894 l 1,48,-1
 531 894 l 1,49,-1
 531 -269 l 2,0,1
EndSplineSet
EndChar

StartChar: ellipsis
Encoding: 201 201 251
Width: 2565
Flags: HW
LayerCount: 2
Fore
SplineSet
1969 156 m 256,0,1
 1969 226 1969 226 2018 275 c 0,2,3
 2068 325 2068 325 2137 325 c 256,4,5
 2206 325 2206 325 2256 275 c 128,-1,6
 2306 225 2306 225 2306 156 c 256,7,8
 2306 87 2306 87 2256 37 c 0,9,10
 2207 -12 2207 -12 2137 -12 c 128,-1,11
 2067 -12 2067 -12 2018 37 c 128,-1,12
 1969 86 1969 86 1969 156 c 256,0,1
1114 156 m 256,13,14
 1114 226 1114 226 1163 275 c 0,15,16
 1213 325 1213 325 1282 325 c 256,17,18
 1351 325 1351 325 1401 275 c 128,-1,19
 1451 225 1451 225 1451 156 c 256,20,21
 1451 87 1451 87 1401 37 c 0,22,23
 1352 -12 1352 -12 1282 -12 c 128,-1,24
 1212 -12 1212 -12 1163 37 c 128,-1,25
 1114 86 1114 86 1114 156 c 256,13,14
259 156 m 256,26,27
 259 226 259 226 308 275 c 0,28,29
 358 325 358 325 427 325 c 256,30,31
 496 325 496 325 546 275 c 128,-1,32
 596 225 596 225 596 156 c 256,33,34
 596 87 596 87 546 37 c 0,35,36
 497 -12 497 -12 427 -12 c 128,-1,37
 357 -12 357 -12 308 37 c 128,-1,38
 259 86 259 86 259 156 c 256,26,27
EndSplineSet
EndChar

StartChar: uni00AD
Encoding: 65581 -1 283
Width: 1365
Flags: HW
LayerCount: 2
Fore
SplineSet
290 607 m 1,0,-1
 1164 607 l 1,1,-1
 1164 431 l 1,2,-1
 290 431 l 1,3,-1
 290 607 l 1,0,-1
EndSplineSet
EndChar

StartChar: scedilla
Encoding: 351 351 296
Width: 1365
Flags: HW
LayerCount: 2
Fore
SplineSet
490 -508 m 1,0,1
 498.2 -436.251 498.2 -436.251 547.5 -388 c 0,2,3
 598.587 -338 598.587 -338 665 -338 c 2,4,-1
 934 -338 l 1,5,-1
 934 -222 l 1,6,-1
 728 -222 l 1,7,-1
 728 151 l 1,8,-1
 848 151 l 1,9,-1
 848 -96 l 1,10,-1
 975 -96 l 2,11,12
 1041.48 -96 1041.48 -96 1090.5 -157 c 0,13,14
 1139 -217.356 1139 -217.356 1139 -303 c 0,15,16
 1139 -388.222 1139 -388.222 1090.5 -447.5 c 0,17,18
 1041 -508 1041 -508 975 -508 c 2,19,-1
 490 -508 l 1,0,1
780 1107 m 1,20,21
 759.5 1056.89 759.5 1056.89 759.5 1021.44 c 128,-1,22
 759.5 986 759.5 986 773.25 958.5 c 128,-1,23
 787 931 787 931 812.5 903.5 c 128,-1,24
 838 876 838 876 871.5 849 c 2,25,-1
 940 792 l 1,26,27
 1094.65 668.276 1094.65 668.276 1148.5 522.5 c 0,28,29
 1167.18 471.933 1167.18 471.933 1167.18 442.133 c 128,-1,30
 1167.18 412.333 1167.18 412.333 1166.09 388.667 c 128,-1,31
 1165 365 1165 365 1149 326.5 c 128,-1,32
 1133 288 1133 288 1107 257.5 c 0,33,34
 1052.6 193.684 1052.6 193.684 974 173 c 1,35,-1
 1346 173 l 1,36,37
 1301.82 49.9215 1301.82 49.9215 1215 12.5 c 0,38,39
 1186 0 1186 0 1155 0 c 2,40,-1
 881 0 l 2,41,42
 754.889 0 754.889 0 732.5 108.5 c 0,43,44
 728.053 130.053 728.053 130.053 728.053 146.658 c 128,-1,45
 728.053 163.263 728.053 163.263 729 174 c 1,46,47
 843.132 188.267 843.132 188.267 888.5 290 c 0,48,49
 910 338.212 910 338.212 910 383.606 c 128,-1,50
 910 429 910 429 899.5 460.5 c 128,-1,51
 889 492 889 492 869 524 c 128,-1,52
 849 556 849 556 823 585 c 2,53,-1
 772 641 l 1,54,55
 699.639 735.625 699.639 735.625 683 840 c 1,56,-1
 367 0 l 1,57,-1
 120 0 l 1,58,-1
 540 1107 l 1,59,-1
 780 1107 l 1,20,21
EndSplineSet
EndChar

StartChar: dotaccent.cap
Encoding: 65582 -1 305
Width: 867
Flags: HW
LayerCount: 2
Fore
SplineSet
433 1659 m 0,0,1
 398 1659 398 1659 367 1671 c 128,-1,2
 336 1683 336 1683 314 1705.5 c 0,3,4
 267 1753.57 267 1753.57 267 1827 c 128,-1,5
 267 1900.3 267 1900.3 314 1950.5 c 0,6,7
 360.34 2000 360.34 2000 434 2000 c 0,8,9
 504.106 2000 504.106 2000 551.5 1950.5 c 0,10,11
 600 1899.84 600 1899.84 600 1827 c 128,-1,12
 600 1754 600 1754 551.5 1705.5 c 0,13,14
 505 1659 505 1659 433 1659 c 0,0,1
EndSplineSet
EndChar

StartChar: breve.cap
Encoding: 65583 -1 316
Width: 867
Flags: HW
LayerCount: 2
Fore
SplineSet
388 1613 m 2,0,1
 237.233 1613 237.233 1613 134 1721.5 c 0,2,3
 29 1831.86 29 1831.86 29 2000 c 1,4,-1
 180 2000 l 1,5,6
 180 1943.75 180 1943.75 249 1892 c 0,7,8
 321 1838 321 1838 411 1838 c 2,9,-1
 457 1838 l 2,10,11
 547.625 1838 547.625 1838 618.5 1892 c 0,12,13
 688 1944.95 688 1944.95 688 2000 c 1,14,-1
 838 2000 l 1,15,16
 838 1831.86 838 1831.86 733 1721.5 c 0,17,18
 629.767 1613 629.767 1613 479 1613 c 2,19,-1
 388 1613 l 2,0,1
EndSplineSet
EndChar

StartChar: macron.cap
Encoding: 65584 -1 318
Width: 867
Flags: HW
LayerCount: 2
Fore
SplineSet
-17 1698 m 1,0,1
 -8.87097 1769.13 -8.87097 1769.13 40.5 1818.5 c 0,2,3
 91 1869 91 1869 158 1869 c 2,4,-1
 885 1869 l 1,5,6
 879 1799 879 1799 828 1748 c 0,7,8
 778 1698 778 1698 711 1698 c 2,9,-1
 -17 1698 l 1,0,1
EndSplineSet
EndChar

StartChar: Dcroat
Encoding: 272 272 389
Width: 1366
Flags: HW
LayerCount: 2
Fore
SplineSet
237 549 m 1,0,-1
 44 549 l 1,1,-1
 44 703 l 1,2,-1
 237 703 l 1,3,-1
 237 982 l 2,4,5
 237 1084.64 237 1084.64 294.5 1159.5 c 0,6,7
 351.725 1234 351.725 1234 431 1234 c 2,8,-1
 476 1234 l 1,9,-1
 476 703 l 1,10,-1
 717 703 l 1,11,-1
 717 549 l 1,12,-1
 476 549 l 1,13,-1
 476 171 l 1,14,-1
 937 171 l 1,15,-1
 937 1347 l 1,16,-1
 43 1347 l 1,17,18
 48.9622 1416.56 48.9622 1416.56 100.5 1467 c 0,19,20
 150.565 1516 150.565 1516 218 1516 c 2,21,-1
 986 1516 l 2,22,23
 1066.17 1516 1066.17 1516 1120.5 1442.5 c 0,24,25
 1176 1367.41 1176 1367.41 1176 1262 c 2,26,-1
 1176 252 l 2,27,28
 1176 148 1176 148 1120.5 74 c 128,-1,29
 1065 -1.19209e-06 1065 -1.19209e-06 987 0 c 2,30,-1
 238 0 l 1,31,-1
 237 549 l 1,0,-1
EndSplineSet
EndChar

StartChar: dcaron
Encoding: 271 271 390
Width: 1707
Flags: HW
LayerCount: 2
Fore
SplineSet
1372 1201 m 1,0,1
 1290 1249.76 1290 1249.76 1290 1346 c 0,2,3
 1290 1416.42 1290 1416.42 1338.5 1466 c 0,4,5
 1386.43 1515 1386.43 1515 1459 1515 c 0,6,7
 1529 1515 1529 1515 1578 1466 c 0,8,9
 1628 1416 1628 1416 1628 1359 c 128,-1,10
 1628 1302 1628 1302 1618.5 1264 c 128,-1,11
 1609 1226 1609 1226 1591 1190 c 0,12,13
 1558.81 1125.62 1558.81 1125.62 1489 1041 c 1,14,-1
 1375 898 l 1,15,-1
 1281 943 l 1,16,-1
 1372 1201 l 1,0,1
237 793 m 2,17,18
 237 897.412 237 897.412 292.5 972.5 c 0,19,20
 347.565 1047 347.565 1047 427 1047 c 2,21,-1
 889 1047 l 1,22,-1
 889 1590 l 1,23,-1
 1127 1590 l 1,24,-1
 1127 171 l 1,25,-1
 1317 171 l 1,26,27
 1308.8 99.2269 1308.8 99.2269 1258.5 50 c 0,28,29
 1207.41 4.14859e-05 1207.41 4.14859e-05 1142 0 c 2,30,-1
 889 0 l 1,31,-1
 889 109 l 1,32,33
 862 58 862 58 820 29 c 128,-1,34
 778 0 778 0 731 0 c 2,35,-1
 427 0 l 2,36,37
 347.565 0 347.565 0 292.5 74.5 c 0,38,39
 237 149.588 237 149.588 237 254 c 2,40,-1
 237 793 l 2,17,18
889 171 m 1,41,-1
 889 876 l 1,42,-1
 475 876 l 1,43,-1
 475 171 l 1,44,-1
 889 171 l 1,41,-1
EndSplineSet
EndChar

StartChar: florin
Encoding: 196 196 392
Width: 852
Flags: HW
LayerCount: 2
Fore
SplineSet
339 -269 m 2,0,1
 323.061 -374.597 323.061 -374.597 252.5 -449.5 c 0,2,3
 181.377 -525 181.377 -525 99 -525 c 2,4,-1
 63 -525 l 1,5,-1
 277 894 l 1,6,-1
 197 894 l 1,7,-1
 220 1048 l 1,8,-1
 300 1048 l 1,9,-1
 344 1336 l 2,10,11
 359.869 1441.13 359.869 1441.13 426.5 1516.5 c 0,12,13
 492.362 1591 492.362 1591 572 1591 c 2,14,-1
 950 1591 l 1,15,-1
 924 1417 l 1,16,-1
 594 1417 l 1,17,-1
 538 1048 l 1,18,-1
 784 1048 l 1,19,-1
 761 894 l 1,20,-1
 515 894 l 1,21,-1
 339 -269 l 2,0,1
EndSplineSet
EndChar

StartChar: hungarumlaut.cap
Encoding: 65587 -1 393
Width: 867
Flags: HW
LayerCount: 2
Fore
SplineSet
509 1686 m 1,0,-1
 741 1944 l 2,1,2
 789.889 1999 789.889 1999 855.5 1999 c 0,3,4
 923.467 1999 923.467 1999 966 1941 c 256,5,6
 993.032 1904.14 993.032 1904.14 993.032 1868.94 c 128,-1,7
 993.032 1833.74 993.032 1833.74 983.016 1805.87 c 0,8,9
 958.757 1738.37 958.757 1738.37 892 1706 c 1,10,-1
 596 1571 l 1,11,-1
 509 1686 l 1,0,-1
9 1686 m 1,12,-1
 241 1944 l 2,13,14
 289.889 1999 289.889 1999 355.5 1999 c 0,15,16
 423.467 1999 423.467 1999 466 1941 c 256,17,18
 493.032 1904.14 493.032 1904.14 493.032 1868.94 c 128,-1,19
 493.032 1833.74 493.032 1833.74 483.016 1805.87 c 0,20,21
 458.757 1738.37 458.757 1738.37 392 1706 c 1,22,-1
 96 1571 l 1,23,-1
 9 1686 l 1,12,-1
EndSplineSet
EndChar

StartChar: dcroat
Encoding: 273 273 398
Width: 1365
Flags: HW
LayerCount: 2
Fore
SplineSet
613 1374 m 1,0,-1
 1252 1374 l 1,1,-1
 1252 1208 l 1,2,-1
 613 1208 l 1,3,-1
 613 1374 l 1,0,-1
237 793 m 2,4,5
 237 897.412 237 897.412 292.5 972.5 c 0,6,7
 347.565 1047 347.565 1047 427 1047 c 2,8,-1
 889 1047 l 1,9,-1
 889 1590 l 1,10,-1
 1127 1590 l 1,11,-1
 1127 171 l 1,12,-1
 1317 171 l 1,13,14
 1308.8 99.2269 1308.8 99.2269 1258.5 50 c 0,15,16
 1207.41 4.14859e-05 1207.41 4.14859e-05 1142 0 c 2,17,-1
 889 0 l 1,18,-1
 889 109 l 1,19,20
 862 58 862 58 820 29 c 128,-1,21
 778 0 778 0 731 0 c 2,22,-1
 427 0 l 2,23,24
 347.565 0 347.565 0 292.5 74.5 c 0,25,26
 237 149.588 237 149.588 237 254 c 2,27,-1
 237 793 l 2,4,5
889 171 m 1,28,-1
 889 876 l 1,29,-1
 475 876 l 1,30,-1
 475 171 l 1,31,-1
 889 171 l 1,28,-1
EndSplineSet
EndChar

